SplineFontDB: 3.2
FontName: Unageo-Variable
FullName: Unageo Variable
FamilyName: Unageo
Weight: Variable
Copyright: Copyright 2023 The Unageo Project Authors (https://github.com/RichardSepsi/Unageo)
UComments: "2023-12-24: Created with FontForge (http://fontforge.org)"
Version: 2.2
ItalicAngle: 0
UnderlinePosition: -100
UnderlineWidth: 50
Ascent: 800
Descent: 200
InvalidEm: 0
LayerCount: 2
Layer: 0 0 "Back" 1
Layer: 1 0 "Fore" 0
XUID: [1021 442 -170519175 32250]
FSType: 0
OS2Version: 0
OS2_WeightWidthSlopeOnly: 0
OS2_UseTypoMetrics: 1
CreationTime: 1703449529
ModificationTime: 1730994778
PfmFamily: 33
TTFWeight: 300
TTFWidth: 5
LineGap: 90
VLineGap: 0
OS2TypoAscent: 950
OS2TypoAOffset: 0
OS2TypoDescent: -250
OS2TypoDOffset: 0
OS2TypoLinegap: 90
OS2WinAscent: 1010
OS2WinAOffset: 0
OS2WinDescent: 220
OS2WinDOffset: 0
HheadAscent: 950
HheadAOffset: 0
HheadDescent: -250
HheadDOffset: 0
OS2CapHeight: 700
OS2XHeight: 500
OS2Vendor: 'PfEd'
Lookup: 1 0 0 "'ss02' Style Set 2 lookup 1" { "'ss02' Style Set 2 lookup 1-1"  } ['ss02' ('DFLT' <'dflt' > 'cyrl' <'dflt' > 'grek' <'dflt' > 'latn' <'dflt' > ) ]
Lookup: 1 0 0 "'ss01' Style Set 1 lookup 0" { "'ss01' Style Set 1 lookup 0-1"  } ['ss01' ('DFLT' <'dflt' > 'cyrl' <'dflt' > 'grek' <'dflt' > 'latn' <'dflt' > ) ]
MarkAttachClasses: 1
DEI: 91125
LangName: 1033 "" "" "" "" "" "" "" "" "Richard Sepsi" "Richard Sepsi" "" "" "" "This Font Software is licensed under the SIL Open Font License, Version 1.1. This license is available with a FAQ at: https://scripts.sil.org/OFL" "http://scripts.sil.org/OFL" "" "Unageo" "Variable"
GaspTable: 1 65535 15 1
Encoding: UnicodeBmp
UnicodeInterp: none
NameList: AGL For New Fonts
DisplaySize: -48
AntiAlias: 1
FitToEm: 0
WinInfo: 912 19 14
BeginPrivate: 7
BlueValues 23 [-12 0 500 512 700 712]
OtherBlues 11 [-200 -200]
BlueShift 1 7
StdHW 4 [60]
StdVW 4 [60]
StemSnapH 4 [60]
StemSnapV 4 [60]
EndPrivate

StartChar: A
Encoding: 65 65 0
GlifName: A_
Width: 607
Flags: W
HStem: 0 21G<13 85.2195 522.78 595> 205 60<174 434> 619 81<233.5 374.5>
LayerCount: 2
Fore
SplineSet
174 265 m 1
 434 265 l 1
 304 619 l 1
 174 265 l 1
152 205 m 1
 78 0 l 1
 13 0 l 1
 274 700 l 1
 334 700 l 1
 595 0 l 1
 530 0 l 1
 456 205 l 1
 152 205 l 1
EndSplineSet
EndChar

StartChar: B
Encoding: 66 66 1
GlifName: B_
Width: 631
Flags: W
HStem: 0 62<163 437.975> 326 62<163 401.353> 638 62<163 401.25>
VStem: 103 60<62 326 388 638> 455 62<441.401 584.825> 498 62<121.731 266.395>
LayerCount: 2
Fore
SplineSet
163 326 m 1xf4
 163 62 l 1
 366 62 l 2
 402 62 433 75 459 101 c 0
 485 127 498 158 498 194 c 0
 498 230 485 261 459 287 c 0
 433 313 402 326 366 326 c 2
 163 326 l 1xf4
163 638 m 1
 163 388 l 1
 330 388 l 2
 365 388 395 400 419 424 c 0
 443 448 455 478 455 513 c 0xf8
 455 548 443 578 419 602 c 0
 395 626 365 638 330 638 c 2
 163 638 l 1
103 700 m 1
 330 700 l 2
 381 700 425 682 462 645 c 0
 499 608 517 564 517 513 c 0xf8
 517 454 494 407 449 369 c 1
 482 353 508 329 529 298 c 0
 550 267 560 232 560 194 c 0xf4
 560 141 541 95 503 57 c 0
 465 19 419 0 366 0 c 2
 103 0 l 1
 103 700 l 1
EndSplineSet
EndChar

StartChar: C
Encoding: 67 67 2
GlifName: C_
Width: 683
Flags: W
HStem: -12 60<282.675 500.227> 652 60<282.675 500.227>
VStem: 53 60<230.064 469.936>
LayerCount: 2
Fore
SplineSet
392 712 m 0
 442 712 489 703 531 683 c 0
 573 663 610 636 641 600 c 1
 598 556 l 1
 544 620 476 652 392 652 c 0
 311 652 244 623 192 564 c 0
 140 505 113 434 113 350 c 0
 113 266 140 195 192 136 c 0
 244 77 311 48 392 48 c 0
 476 48 544 80 598 144 c 1
 641 101 l 1
 610 65 573 38 531 18 c 0
 489 -2 442 -12 392 -12 c 0
 293 -12 212 23 149 93 c 0
 86 163 53 248 53 350 c 0
 53 452 86 537 149 607 c 0
 212 677 293 712 392 712 c 0
EndSplineSet
EndChar

StartChar: D
Encoding: 68 68 3
GlifName: D_
Width: 688
Flags: W
HStem: 0 60<163 396.859> 640 60<163 396.859>
VStem: 103 60<60 640> 576 60<239.008 461.173>
LayerCount: 2
Fore
SplineSet
286 640 m 2
 163 640 l 1
 163 60 l 1
 286 60 l 2
 366 60 434 88 491 145 c 0
 548 202 576 270 576 350 c 0
 576 430 548 498 491 555 c 0
 434 612 366 640 286 640 c 2
286 700 m 2
 383 700 465 666 533 598 c 0
 601 530 636 447 636 350 c 0
 636 253 601 171 533 103 c 0
 465 35 383 0 286 0 c 2
 103 0 l 1
 103 700 l 1
 286 700 l 2
EndSplineSet
EndChar

StartChar: E
Encoding: 69 69 4
GlifName: E_
Width: 598
Flags: W
HStem: 0 60<163 506> 329 60<163 442> 640 60<163 506>
VStem: 103 60<60 329 389 640>
LayerCount: 2
Fore
SplineSet
103 0 m 1
 103 700 l 1
 506 700 l 1
 506 640 l 1
 163 640 l 1
 163 389 l 1
 442 389 l 1
 442 329 l 1
 163 329 l 1
 163 60 l 1
 506 60 l 1
 506 0 l 1
 103 0 l 1
EndSplineSet
EndChar

StartChar: G
Encoding: 71 71 5
GlifName: G_
Width: 771
Flags: W
HStem: -12 60<281.675 499.021> 320 60<479 668> 652 60<281.675 499.658>
VStem: 53 60<230.064 469.936>
CounterMasks: 1 e0
LayerCount: 2
Fore
SplineSet
391 712 m 0
 441 712 489 703 531 683 c 0
 573 663 610 636 641 600 c 1
 597 556 l 1
 543 620 475 652 391 652 c 0
 310 652 243 623 191 564 c 0
 139 505 113 434 113 350 c 0
 113 266 139 195 191 136 c 0
 243 77 310 48 391 48 c 0
 475 48 543 80 597 144 c 0
 638 193 662 252 668 320 c 1
 479 320 l 1
 479 380 l 1
 729 380 l 1
 729 350 l 2
 729 252 699 168 640 100 c 0
 609 65 573 38 530 18 c 0
 487 -2 441 -12 391 -12 c 0
 292 -12 211 23 148 93 c 0
 85 163 53 248 53 350 c 0
 53 452 85 537 148 607 c 0
 211 677 292 712 391 712 c 0
EndSplineSet
EndChar

StartChar: H
Encoding: 72 72 6
GlifName: H_
Width: 732
Flags: W
HStem: 0 21G<103 163 570 630> 331 60<163 570> 680 20G<103 163 570 630>
VStem: 103 60<0 331 391 700> 570 60<0 331 391 700>
LayerCount: 2
Fore
SplineSet
103 0 m 1
 103 700 l 1
 163 700 l 1
 163 391 l 1
 570 391 l 1
 570 700 l 1
 630 700 l 1
 630 0 l 1
 570 0 l 1
 570 331 l 1
 163 331 l 1
 163 0 l 1
 103 0 l 1
EndSplineSet
EndChar

StartChar: I
Encoding: 73 73 7
GlifName: I_
Width: 265
Flags: W
HStem: 0 21G<103 163> 680 20G<103 163>
VStem: 103 60<0 700>
LayerCount: 2
Fore
SplineSet
103 0 m 1
 103 700 l 1
 163 700 l 1
 163 0 l 1
 103 0 l 1
EndSplineSet
EndChar

StartChar: J
Encoding: 74 74 8
GlifName: J_
Width: 408
Flags: W
HStem: -11 60<66.9046 203.407> 680 20G<256 316>
VStem: 256 60<101.861 700>
LayerCount: 2
Fore
SplineSet
256 700 m 1
 316 700 l 1
 316 169 l 2
 316 119 298 77 263 42 c 0
 228 7 186 -11 136 -11 c 0
 86 -11 44 7 9 42 c 1
 51 84 l 1
 74 61 103 49 136 49 c 0
 168 49 196 61 220 85 c 0
 244 109 256 137 256 169 c 2
 256 700 l 1
EndSplineSet
EndChar

StartChar: K
Encoding: 75 75 9
GlifName: K_
Width: 593
Flags: W
HStem: 0 21G<103 163 491.54 586> 680 20G<103 163 474.587 576>
VStem: 103 60<0 271 359 700>
LayerCount: 2
Fore
SplineSet
103 0 m 1
 103 700 l 1
 163 700 l 1
 163 359 l 1
 494 700 l 1
 576 700 l 1
 270 383 l 1
 586 0 l 1
 508 0 l 1
 229 339 l 1
 163 271 l 1
 163 0 l 1
 103 0 l 1
EndSplineSet
EndChar

StartChar: L
Encoding: 76 76 10
GlifName: L_
Width: 518
Flags: W
HStem: 0 60<163 506> 680 20G<103 163>
VStem: 103 60<60 700>
LayerCount: 2
Fore
SplineSet
103 0 m 1
 103 700 l 1
 163 700 l 1
 163 60 l 1
 506 60 l 1
 506 0 l 1
 103 0 l 1
EndSplineSet
EndChar

StartChar: M
Encoding: 77 77 11
GlifName: M_
Width: 792
Flags: W
HStem: 0 21G<15 79.5413 713.459 778> 680 20G<135.457 212.314 580.724 657.543>
VStem: 15 61<0 61> 717 61<0 61>
LayerCount: 2
Fore
SplineSet
139 700 m 1
 205 700 l 1
 397 175 l 1
 588 700 l 1
 654 700 l 1
 778 0 l 1
 717 0 l 1
 612 593 l 1
 431 93 l 1
 362 93 l 1
 181 593 l 1
 76 0 l 1
 15 0 l 1
 139 700 l 1
EndSplineSet
EndChar

StartChar: N
Encoding: 78 78 12
GlifName: N_
Width: 739
Flags: W
HStem: 0 21G<103 163 563.061 637> 680 20G<103 176.939 577 637>
VStem: 103 60<0 594> 577 60<106 700>
LayerCount: 2
Fore
SplineSet
103 700 m 1
 163 700 l 1
 577 106 l 1
 577 700 l 1
 637 700 l 1
 637 0 l 1
 577 0 l 1
 163 594 l 1
 163 0 l 1
 103 0 l 1
 103 700 l 1
EndSplineSet
EndChar

StartChar: O
Encoding: 79 79 13
GlifName: O_
Width: 781
Flags: W
HStem: -12 60<281.675 500.075> 652 60<281.675 500.075>
VStem: 53 60<230.064 469.936> 669 60<230.064 469.936>
LayerCount: 2
Fore
SplineSet
391 652 m 0
 310 652 243 623 191 564 c 0
 139 505 113 434 113 350 c 0
 113 266 139 195 191 136 c 0
 243 77 310 48 391 48 c 0
 472 48 538 77 590 136 c 0
 642 195 669 266 669 350 c 0
 669 434 642 505 590 564 c 0
 538 623 472 652 391 652 c 0
391 712 m 0
 490 712 571 677 634 607 c 0
 697 537 729 452 729 350 c 0
 729 248 697 163 634 93 c 0
 571 23 490 -12 391 -12 c 0
 292 -12 211 23 148 93 c 0
 85 163 53 248 53 350 c 0
 53 452 85 537 148 607 c 0
 211 677 292 712 391 712 c 0
EndSplineSet
EndChar

StartChar: P
Encoding: 80 80 14
GlifName: P_
Width: 573
Flags: W
HStem: 0 21G<103 163> 266 60<163 402.329> 640 60<163 402.329>
VStem: 103 60<0 266 326 640> 481 60<404.174 562.053>
LayerCount: 2
Fore
SplineSet
163 640 m 1
 163 326 l 1
 324 326 l 2
 366 326 404 342 435 373 c 0
 466 404 481 441 481 483 c 0
 481 525 466 562 435 593 c 0
 404 624 366 640 324 640 c 2
 163 640 l 1
103 700 m 1
 324 700 l 2
 384 700 436 679 478 637 c 0
 520 595 541 543 541 483 c 0
 541 423 520 372 478 330 c 0
 436 288 384 266 324 266 c 2
 163 266 l 1
 163 0 l 1
 103 0 l 1
 103 700 l 1
EndSplineSet
EndChar

StartChar: Q
Encoding: 81 81 15
GlifName: Q_
Width: 781
Flags: W
HStem: -12 60<281.675 501.755> 652 60<281.675 500.075>
VStem: 53 60<230.064 469.936> 669 60<228.231 469.936>
LayerCount: 2
Fore
SplineSet
391 652 m 0
 310 652 243 623 191 564 c 0
 139 505 113 434 113 350 c 0
 113 266 139 195 191 136 c 0
 243 77 310 48 391 48 c 0
 459 48 517 68 565 110 c 1
 488 186 l 1
 531 229 l 1
 606 154 l 1
 648 209 669 274 669 350 c 0
 669 434 642 505 590 564 c 0
 538 623 472 652 391 652 c 0
391 712 m 0
 490 712 571 677 634 607 c 0
 697 537 729 452 729 350 c 0
 729 257 702 176 649 110 c 1
 729 30 l 1
 687 -12 l 1
 607 67 l 1
 548 14 476 -12 391 -12 c 0
 292 -12 211 23 148 93 c 0
 85 163 53 248 53 350 c 0
 53 452 85 537 148 607 c 0
 211 677 292 712 391 712 c 0
EndSplineSet
EndChar

StartChar: R
Encoding: 82 82 16
GlifName: R_
Width: 593
Flags: W
HStem: 0 21G<103 163 465.667 541> 300 60<163 335> 640 60<163 415.291>
VStem: 103 60<0 300 360 640> 481 60<424.898 575.198>
LayerCount: 2
Fore
SplineSet
163 640 m 1
 163 360 l 1
 341 360 l 2
 379 360 412 373 440 401 c 0
 468 429 481 462 481 500 c 0
 481 538 468 571 440 599 c 0
 412 627 379 640 341 640 c 2
 163 640 l 1
103 700 m 1
 341 700 l 2
 396 700 443 681 482 642 c 0
 521 603 541 555 541 500 c 0
 541 456 528 415 501 380 c 0
 474 345 439 321 397 309 c 1
 541 0 l 1
 475 0 l 1
 335 300 l 1
 163 300 l 1
 163 0 l 1
 103 0 l 1
 103 700 l 1
EndSplineSet
EndChar

StartChar: S
Encoding: 83 83 17
GlifName: S_
Width: 544
Flags: W
HStem: -12 60<179.626 350.523> 652 60<181.257 353.042>
VStem: 65 60<466.24 599.552> 427 60<121.586 270.703>
LayerCount: 2
Fore
SplineSet
266 712 m 0
 313 712 353 701 386 680 c 0
 419 659 443 630 456 593 c 1
 399 572 l 1
 390 597 375 617 352 631 c 0
 329 645 301 652 266 652 c 0
 224 652 190 641 164 618 c 0
 138 595 125 566 125 531 c 0
 125 503 134 478 153 459 c 0
 176 435 214 419 266 410 c 0
 330 399 383 375 425 338 c 0
 467 301 487 255 487 199 c 0
 487 140 465 90 423 49 c 0
 381 8 328 -12 266 -12 c 0
 217 -12 174 1 137 26 c 0
 100 51 73 85 58 127 c 1
 115 147 l 1
 126 117 144 93 171 75 c 0
 198 57 230 48 266 48 c 0
 312 48 350 63 381 92 c 0
 412 121 427 157 427 199 c 0
 427 239 411 272 381 298 c 0
 351 324 313 342 266 350 c 0
 206 361 158 381 121 410 c 0
 84 439 65 480 65 531 c 0
 65 582 84 625 122 660 c 0
 160 695 207 712 266 712 c 0
EndSplineSet
EndChar

StartChar: T
Encoding: 84 84 18
GlifName: T_
Width: 545
Flags: W
HStem: 0 21G<243 303> 640 60<13 243 303 533>
VStem: 243 60<0 640>
LayerCount: 2
Fore
SplineSet
13 700 m 1
 533 700 l 1
 533 640 l 1
 303 640 l 1
 303 0 l 1
 243 0 l 1
 243 640 l 1
 13 640 l 1
 13 700 l 1
EndSplineSet
EndChar

StartChar: U
Encoding: 85 85 19
GlifName: U_
Width: 714
Flags: W
HStem: -12 60<267.4 447.1> 680 20G<93 153 562 622>
VStem: 93 60<170.003 700> 562 60<170.003 700>
LayerCount: 2
Fore
SplineSet
93 700 m 1
 153 700 l 1
 153 283 l 2
 153 213 172 156 212 113 c 0
 252 70 299 48 357 48 c 0
 415 48 463 70 503 113 c 0
 543 156 562 213 562 283 c 2
 562 700 l 1
 622 700 l 1
 622 283 l 2
 622 195 596 123 546 69 c 0
 496 15 433 -12 357 -12 c 0
 281 -12 219 15 169 69 c 0
 119 123 93 195 93 283 c 2
 93 700 l 1
EndSplineSet
EndChar

StartChar: V
Encoding: 86 86 20
GlifName: V_
Width: 622
Flags: W
HStem: 0 21G<271.4 349.571> 680 20G<13 84.5974 535.468 607>
LayerCount: 2
Fore
SplineSet
13 700 m 1
 77 700 l 1
 311 84 l 1
 543 700 l 1
 607 700 l 1
 342 0 l 1
 279 0 l 1
 13 700 l 1
EndSplineSet
EndChar

StartChar: W
Encoding: 87 87 21
GlifName: W_
Width: 917
Flags: W
HStem: 0 107<167.5 337.5> 680 20G<13 82.9022 421.098 496.902 834.132 905>
VStem: 13 64<636 700> 840 65<635 700>
LayerCount: 2
Fore
SplineSet
840 700 m 1
 905 700 l 1
 698 0 l 1
 635 0 l 1
 459 591 l 1
 284 0 l 1
 221 0 l 1
 13 700 l 1
 77 700 l 1
 252 107 l 1
 427 700 l 1
 491 700 l 1
 666 107 l 1
 840 700 l 1
EndSplineSet
EndChar

StartChar: X
Encoding: 88 88 22
GlifName: X_
Width: 548
Flags: W
HStem: 0 21G<14 97.9252 451.143 536> 680 20G<14 97.8814 451.186 536>
VStem: 239 72<314 386>
LayerCount: 2
Fore
SplineSet
464 700 m 1
 536 700 l 1
 311 350 l 1
 536 0 l 1
 464 0 l 1
 275 294 l 1
 85 0 l 1
 14 0 l 1
 239 350 l 1
 14 700 l 1
 85 700 l 1
 275 405 l 1
 464 700 l 1
EndSplineSet
EndChar

StartChar: Y
Encoding: 89 89 23
GlifName: Y_
Width: 531
Flags: W
HStem: 0 21G<236 296> 680 20G<13 95.7419 436.258 519>
VStem: 236 60<0 321>
LayerCount: 2
Fore
SplineSet
13 700 m 1
 84 700 l 1
 266 390 l 1
 448 700 l 1
 519 700 l 1
 296 321 l 5
 296 0 l 1
 236 0 l 1
 236 321 l 1
 13 700 l 1
EndSplineSet
EndChar

StartChar: Z
Encoding: 90 90 24
GlifName: Z_
Width: 608
Flags: W
HStem: 0 60<128 553> 640 60<56 481>
LayerCount: 2
Fore
SplineSet
53 0 m 1
 53 60 l 1
 481 640 l 1
 56 640 l 1
 56 700 l 1
 556 700 l 1
 556 640 l 1
 128 60 l 1
 553 60 l 1
 553 0 l 1
 53 0 l 1
EndSplineSet
EndChar

StartChar: F
Encoding: 70 70 25
GlifName: F_
Width: 544
Flags: W
HStem: 0 21G<103 163> 318 60<163 447> 640 60<163 506>
VStem: 103 60<0 318 378 640>
LayerCount: 2
Fore
SplineSet
103 0 m 1
 103 700 l 1
 506 700 l 1
 506 640 l 1
 163 640 l 1
 163 378 l 1
 447 378 l 1
 447 318 l 1
 163 318 l 1
 163 0 l 1
 103 0 l 1
EndSplineSet
EndChar

StartChar: a
Encoding: 97 97 26
GlifName: a
Width: 608
Flags: W
HStem: -12 60<203.894 378.714> 0 21G<471 531> 452 60<203.894 378.714> 480 20G<471 531>
VStem: 48 60<150.537 349.463> 471 60<0 85 149.177 350.823 415 500>
LayerCount: 2
Fore
SplineSet
471 500 m 1x1c
 531 500 l 1
 531 0 l 1
 471 0 l 1x5c
 471 85 l 1
 466 77 461 69 455 62 c 0
 416 13 363 -12 293 -12 c 0
 222 -12 163 13 117 64 c 0
 71 115 48 177 48 250 c 0
 48 323 71 385 117 436 c 0
 163 487 222 512 293 512 c 0xac
 363 512 416 487 455 438 c 0
 461 431 466 423 471 415 c 1
 471 500 l 1x1c
293 452 m 0xac
 238 452 193 433 159 394 c 0
 125 355 108 307 108 250 c 0
 108 193 125 145 159 106 c 0
 193 67 238 48 293 48 c 0
 347 48 390 67 422 106 c 0
 454 145 471 192 471 250 c 0
 471 308 454 355 422 394 c 0
 390 433 347 452 293 452 c 0xac
EndSplineSet
EndChar

StartChar: b
Encoding: 98 98 27
GlifName: b
Width: 608
Flags: W
HStem: -12 60<230.286 405.106> 0 21G<78 138> 452 60<230.286 405.106> 680 20G<78 138>
VStem: 78 60<0 85 149.177 350.823 415 700> 501 60<150.344 349.656>
LayerCount: 2
Fore
SplineSet
316 452 m 0xbc
 262 452 219 433 187 394 c 0
 155 355 138 308 138 250 c 0
 138 192 155 145 187 106 c 0
 219 67 262 48 316 48 c 0
 371 48 416 67 450 106 c 0
 484 145 501 193 501 250 c 0
 501 307 484 355 450 394 c 0
 416 433 371 452 316 452 c 0xbc
316 512 m 0
 387 512 446 487 492 436 c 0
 538 385 561 324 561 250 c 0
 561 176 538 115 492 64 c 0
 446 13 387 -12 316 -12 c 0xbc
 246 -12 193 13 154 62 c 0
 148 69 143 77 138 85 c 1
 138 0 l 1
 78 0 l 1x7c
 78 700 l 1
 138 700 l 1
 138 415 l 1
 143 423 148 431 154 438 c 0
 193 487 246 512 316 512 c 0
EndSplineSet
EndChar

StartChar: c
Encoding: 99 99 28
GlifName: c
Width: 504
Flags: W
HStem: -12 60<203.894 378.403> 452 60<203.894 378.403>
VStem: 48 60<150.537 349.463>
LayerCount: 2
Fore
SplineSet
293 512 m 0
 363 512 421 487 467 437 c 1
 426 393 l 1
 391 432 347 452 293 452 c 0
 238 452 193 433 159 394 c 0
 125 355 108 307 108 250 c 0
 108 193 125 145 159 106 c 0
 193 67 238 48 293 48 c 0
 347 48 391 68 426 107 c 1
 467 63 l 1
 421 13 363 -12 293 -12 c 0
 222 -12 163 13 117 64 c 0
 71 115 48 177 48 250 c 0
 48 323 71 385 117 436 c 0
 163 487 222 512 293 512 c 0
EndSplineSet
EndChar

StartChar: d
Encoding: 100 100 29
GlifName: d
Width: 608
Flags: W
HStem: -12 60<203.894 378.714> 452 60<203.894 378.714>
VStem: 48 60<150.344 349.656> 471 60<149.177 350.823>
LayerCount: 2
Fore
SplineSet
293 452 m 0
 347 452 390 433 422 394 c 0
 454 355 471 308 471 250 c 0
 471 192 454 145 422 106 c 0
 390 67 347 48 293 48 c 0
 238 48 193 67 159 106 c 0
 125 145 108 193 108 250 c 0
 108 307 125 355 159 394 c 0
 193 433 238 452 293 452 c 0
293 512 m 0
 222 512 163 487 117 436 c 0
 71 385 48 324 48 250 c 0
 48 176 71 115 117 64 c 0
 163 13 222 -12 293 -12 c 0
 363 -12 416 13 455 62 c 0
 461 69 466 77 471 85 c 1
 471 0 l 1
 531 0 l 1
 531 700 l 1
 471 700 l 1
 471 415 l 1
 466 423 461 431 455 438 c 0
 416 487 363 512 293 512 c 0
EndSplineSet
EndChar

StartChar: e
Encoding: 101 101 30
GlifName: e
Width: 554
Flags: W
HStem: -12 60<206.464 401.524> 220 60<110 456> 452 60<206.464 376.031>
VStem: 48 62<148.75 220 280 351.25>
CounterMasks: 1 e0
LayerCount: 2
Fore
SplineSet
517 220 m 5
 110 220 l 5
 116 170 136 129 169 97 c 4
 202 65 244 48 293 48 c 4
 363 48 417 68 456 107 c 5
 497 63 l 5
 447 13 379 -12 293 -12 c 4
 222 -12 163 13 117 64 c 4
 71 115 48 177 48 250 c 4
 48 323 71 385 117 436 c 4
 163 487 222 512 293 512 c 4
 363 512 417 488 457 438 c 4
 497 388 517 325 517 250 c 6
 517 220 l 5
293 452 m 4
 244 452 202 435 169 403 c 4
 136 371 116 330 110 280 c 5
 456 280 l 5
 451 331 435 372 407 404 c 4
 379 436 341 452 293 452 c 4
EndSplineSet
EndChar

StartChar: f
Encoding: 102 102 31
GlifName: f
Width: 344
Flags: W
HStem: 0 21G<128 188> 441 59<33 128 188 337> 652 60<223.312 337>
VStem: 128 60<0 441 500 616.688>
LayerCount: 2
Fore
SplineSet
285 712 m 2
 337 712 l 1
 337 652 l 1
 285 652 l 2
 258 652 235 643 216 624 c 0
 197 605 188 582 188 555 c 2
 188 500 l 1
 337 500 l 1
 337 441 l 1
 188 441 l 1
 188 0 l 1
 128 0 l 1
 128 441 l 1
 33 441 l 1
 33 500 l 1
 128 500 l 1
 128 555 l 2
 128 598 143 635 174 666 c 0
 205 697 242 712 285 712 c 2
EndSplineSet
EndChar

StartChar: g
Encoding: 103 103 32
GlifName: g
Width: 608
Flags: W
HStem: -212 55<173.177 381.438> -12 60<203.894 378.714> 452 60<203.894 378.714> 480 20G<471 531>
VStem: 48 60<150.537 349.463> 471 60<-56.258 85 149.177 350.823 415 500>
LayerCount: 2
Fore
SplineSet
293 512 m 0xec
 363 512 416 487 455 438 c 0
 461 431 466 423 471 415 c 1
 471 500 l 1
 531 500 l 1xdc
 531 46 l 2
 531 -29 509 -92 464 -140 c 0
 419 -188 361 -212 290 -212 c 0
 225 -212 164 -195 107 -162 c 1
 132 -114 l 1
 176 -143 229 -157 290 -157 c 0
 349 -157 393 -138 424 -98 c 0
 455 -58 471 -11 471 46 c 0
 471 62 471 69 471 85 c 1
 466 77 461 69 455 62 c 0
 416 13 363 -12 293 -12 c 0
 222 -12 163 13 117 64 c 0
 71 115 48 177 48 250 c 0
 48 323 71 385 117 436 c 0
 163 487 222 512 293 512 c 0xec
293 452 m 0xec
 238 452 193 433 159 394 c 0
 125 355 108 307 108 250 c 0
 108 193 125 145 159 106 c 0
 193 67 238 48 293 48 c 0
 347 48 390 67 422 106 c 0
 454 145 471 192 471 250 c 0
 471 308 454 355 422 394 c 0
 390 433 347 452 293 452 c 0xec
EndSplineSet
EndChar

StartChar: h
Encoding: 104 104 33
GlifName: h
Width: 559
Flags: W
HStem: 0 21G<78 138 437 497> 452 60<213.231 363.151> 680 20G<78 138>
VStem: 78 60<0 369.649 432 700> 437 60<0 370.142>
LayerCount: 2
Fore
SplineSet
497 0 m 1
 437 0 l 1
 437 268 l 2
 437 325 423 369 395 402 c 0
 367 435 331 452 288 452 c 0
 245 452 209 435 181 402 c 0
 153 369 138 325 138 268 c 2
 138 0 l 5
 78 0 l 5
 78 700 l 1
 138 700 l 1
 138 432 l 1
 141 437 145 442 148 446 c 0
 183 490 230 512 288 512 c 0
 348 512 397 489 437 445 c 0
 477 401 497 341 497 268 c 2
 497 0 l 1
EndSplineSet
EndChar

StartChar: i
Encoding: 105 105 34
GlifName: i
Width: 225
Flags: W
HStem: 0 21G<82 142> 480 20G<82 142> 630 80<85.3757 141.624>
VStem: 73 80<642.376 698.624> 82 60<0 500>
LayerCount: 2
Fore
SplineSet
82 0 m 1xe8
 82 500 l 1
 142 500 l 1
 142 0 l 1
 82 0 l 1xe8
153 670 m 0xf0
 153 659 150 650 142 642 c 0xe8
 134 634 124 630 113 630 c 0
 102 630 93 634 85 642 c 0
 77 650 73 659 73 670 c 0xf0
 73 681 77 691 85 699 c 0
 93 707 102 710 113 710 c 0
 124 710 134 707 142 699 c 0xe8
 150 691 153 681 153 670 c 0xf0
EndSplineSet
EndChar

StartChar: j
Encoding: 106 106 35
GlifName: j
Width: 243
Flags: W
HStem: -215 60<-47 30.1973> 480 20G<101 161> 632 80<103.376 159.624>
VStem: 91 80<644.376 700.624> 101 60<-83.7975 500>
LayerCount: 2
Fore
SplineSet
101 500 m 5xe8
 161 500 l 5
 161 -7 l 6
 161 -64 141 -113 100 -154 c 4
 59 -195 10 -215 -47 -215 c 5
 -47 -155 l 5
 -6 -155 29 -140 58 -111 c 4
 87 -82 101 -48 101 -7 c 6
 101 500 l 5xe8
171 672 m 4xf0
 171 661 168 652 160 644 c 4
 152 636 142 632 131 632 c 4
 120 632 111 636 103 644 c 4
 95 652 91 661 91 672 c 4
 91 683 95 693 103 701 c 4
 111 709 120 712 131 712 c 4
 142 712 152 709 160 701 c 4
 168 693 171 683 171 672 c 4xf0
EndSplineSet
EndChar

StartChar: k
Encoding: 107 107 36
GlifName: k
Width: 470
Flags: W
HStem: 0 21G<78 138 381.409 468> 480 20G<348.753 450> 680 20G<78 138>
VStem: 78 60<0 175 261 700>
LayerCount: 2
Fore
SplineSet
78 0 m 1
 78 700 l 1
 138 700 l 1
 138 261 l 1
 368 500 l 1
 450 500 l 1
 261 303 l 1
 468 0 l 1
 395 0 l 1
 219 259 l 1
 138 175 l 1
 138 0 l 1
 78 0 l 1
EndSplineSet
EndChar

StartChar: l
Encoding: 108 108 37
GlifName: l
Width: 215
Flags: W
HStem: 0 21G<78 138> 680 20G<78 138>
VStem: 78 60<0 700>
LayerCount: 2
Fore
SplineSet
78 700 m 5
 138 700 l 1
 138 0 l 1
 78 0 l 1
 78 700 l 5
EndSplineSet
EndChar

StartChar: m
Encoding: 109 109 38
GlifName: m
Width: 878
Flags: W
HStem: 0 21G<78 138 417 477 756 816> 452 60<205.525 349.556 544.299 688.556> 480 20G<78 138>
VStem: 78 60<0 376 437 500> 417 60<0 376> 756 60<0 375.948>
CounterMasks: 1 1c
LayerCount: 2
Fore
SplineSet
816 0 m 1xdc
 756 0 l 1
 756 268 l 2
 756 325 743 370 717 403 c 0
 691 436 657 452 616 452 c 0
 575 452 542 436 516 403 c 0
 490 370 477 325 477 268 c 2
 477 0 l 1
 417 0 l 1
 417 268 l 2
 417 325 404 370 378 403 c 0
 352 436 318 452 277 452 c 0xdc
 236 452 203 436 177 403 c 0
 151 370 138 325 138 268 c 2
 138 0 l 1
 78 0 l 1
 78 500 l 1
 138 500 l 1xbc
 138 437 l 1
 140 440 143 443 145 446 c 0
 177 489 221 512 277 512 c 0
 335 512 382 489 420 445 c 0
 434 429 445 411 454 391 c 1
 461 412 471 430 483 446 c 0
 515 489 560 512 616 512 c 0
 674 512 721 489 759 445 c 0
 797 401 816 342 816 268 c 2
 816 0 l 1xdc
EndSplineSet
EndChar

StartChar: n
Encoding: 110 110 39
GlifName: n
Width: 559
Flags: W
HStem: 0 21G<78 138 437 497> 452 60<213.231 363.151> 480 20G<78 138>
VStem: 78 60<0 369.649 432 500> 437 60<0 370.142>
LayerCount: 2
Fore
SplineSet
497 0 m 1xd8
 437 0 l 1
 437 268 l 2
 437 325 423 369 395 402 c 0
 367 435 331 452 288 452 c 0xd8
 245 452 209 435 181 402 c 0
 153 369 138 325 138 268 c 2
 138 0 l 5
 78 0 l 5
 78 500 l 1
 138 500 l 1xb8
 138 432 l 1
 141 437 145 442 148 446 c 0
 183 490 230 512 288 512 c 0
 348 512 397 489 437 445 c 0
 477 401 497 341 497 268 c 2
 497 0 l 1xd8
EndSplineSet
EndChar

StartChar: o
Encoding: 111 111 40
GlifName: o
Width: 584
Flags: W
HStem: -12 60<203.894 381.56> 452 60<203.894 381.56>
VStem: 48 60<150.537 349.463> 477 60<150.537 349.463>
LayerCount: 2
Fore
SplineSet
293 452 m 0
 238 452 193 433 159 394 c 0
 125 355 108 307 108 250 c 0
 108 193 125 145 159 106 c 0
 193 67 238 48 293 48 c 0
 348 48 392 67 426 106 c 0
 460 145 477 193 477 250 c 0
 477 307 460 355 426 394 c 0
 392 433 348 452 293 452 c 0
293 512 m 0
 364 512 422 487 468 436 c 0
 514 385 537 323 537 250 c 0
 537 177 514 115 468 64 c 0
 422 13 364 -12 293 -12 c 0
 222 -12 163 13 117 64 c 0
 71 115 48 177 48 250 c 0
 48 323 71 385 117 436 c 0
 163 487 222 512 293 512 c 0
EndSplineSet
EndChar

StartChar: p
Encoding: 112 112 41
GlifName: p
Width: 613
Flags: W
HStem: -12 60<233.667 410.106> 452 60<233.667 410.106>
VStem: 83 60<147.081 352.919> 506 60<150.344 349.656>
LayerCount: 2
Fore
SplineSet
143 500 m 1
 83 500 l 1
 83 -200 l 1
 143 -200 l 1
 143 85 l 1
 148 77 153 69 159 62 c 0
 198 13 251 -12 321 -12 c 0
 392 -12 451 13 497 64 c 0
 543 115 566 176 566 250 c 0
 566 324 543 385 497 436 c 0
 451 487 392 512 321 512 c 0
 251 512 198 487 159 438 c 0
 153 431 148 423 143 415 c 1
 143 500 l 1
321 48 m 0
 267 48 223 67 191 106 c 0
 159 145 143 192 143 250 c 0
 143 308 159 355 191 394 c 0
 223 433 267 452 321 452 c 0
 376 452 421 433 455 394 c 0
 489 355 506 307 506 250 c 0
 506 193 489 145 455 106 c 0
 421 67 376 48 321 48 c 0
EndSplineSet
EndChar

StartChar: q
Encoding: 113 113 42
GlifName: q
Width: 598
Flags: W
HStem: -200 21G<471 531> -12 60<203.894 378.714> 452 60<203.894 378.714> 480 20G<471 531>
VStem: 48 60<150.344 349.656> 471 60<-200 85 149.177 350.823 415 500>
LayerCount: 2
Fore
SplineSet
471 500 m 1xdc
 531 500 l 1xdc
 531 -200 l 1
 471 -200 l 1
 471 85 l 1
 466 77 461 69 455 62 c 0
 416 13 363 -12 293 -12 c 0
 222 -12 163 13 117 64 c 0
 71 115 48 176 48 250 c 0
 48 324 71 385 117 436 c 0
 163 487 222 512 293 512 c 0xec
 363 512 416 487 455 438 c 0
 461 431 466 423 471 415 c 1
 471 500 l 1xdc
293 48 m 0
 347 48 390 67 422 106 c 0
 454 145 471 192 471 250 c 0
 471 308 454 355 422 394 c 0
 390 433 347 452 293 452 c 0xec
 238 452 193 433 159 394 c 0
 125 355 108 307 108 250 c 0
 108 193 125 145 159 106 c 0
 193 67 238 48 293 48 c 0
EndSplineSet
EndChar

StartChar: r
Encoding: 114 114 43
GlifName: r
Width: 327
Flags: W
HStem: 0 21G<78 138> 452 60<230.152 315> 480 20G<78 138>
VStem: 78 60<0 359.848 424 500>
LayerCount: 2
Fore
SplineSet
78 500 m 1xb0
 138 500 l 1xb0
 138 424 l 1
 143 430 148 437 154 443 c 0
 172 462 192 477 213 488 c 0
 243 504 277 512 315 512 c 1
 315 452 l 1xd0
 266 452 225 435 190 400 c 0
 155 365 138 324 138 275 c 2
 138 0 l 1
 78 0 l 1
 78 500 l 1xb0
EndSplineSet
EndChar

StartChar: s
Encoding: 115 115 44
GlifName: s
Width: 435
Flags: W
HStem: -12 60<137.19 286.377> 452 60<152.873 286.786>
VStem: 68 60<333.317 427.672> 328 60<87.3032 193.325>
LayerCount: 2
Fore
SplineSet
364 422 m 1
 307 402 l 1
 302 417 291 429 275 438 c 0
 259 447 240 452 218 452 c 0
 191 452 168 445 152 430 c 0
 136 415 128 397 128 376 c 0
 128 352 144 332 176 316 c 0
 191 309 209 303 230 297 c 0
 284 282 324 262 350 236 c 0
 375 211 388 180 388 144 c 0
 388 101 371 64 337 34 c 0
 303 4 262 -12 212 -12 c 0
 173 -12 140 -3 112 16 c 0
 84 35 63 60 48 91 c 1
 104 111 l 1
 124 69 159 48 212 48 c 0
 245 48 273 57 295 76 c 0
 317 95 328 117 328 144 c 0
 328 172 312 195 279 214 c 0
 262 224 240 232 214 239 c 0
 172 250 137 268 109 290 c 0
 81 312 68 341 68 376 c 0
 68 414 82 447 110 473 c 0
 138 499 174 512 218 512 c 0
 253 512 284 504 310 488 c 0
 336 472 354 449 364 422 c 1
EndSplineSet
EndChar

StartChar: t
Encoding: 116 116 45
GlifName: t
Width: 364
Flags: W
HStem: 0 60<236.709 331> 441 59<23 112 172 332>
VStem: 112 60<123.611 441 500 656>
LayerCount: 2
Fore
SplineSet
112 656 m 1
 172 656 l 1
 172 500 l 1
 332 500 l 1
 332 441 l 1
 172 441 l 1
 172 199 l 2
 172 160 185 128 212 101 c 0
 239 74 272 60 311 60 c 2
 331 60 l 1
 331 0 l 1
 311 0 l 2
 256 0 209 20 170 59 c 0
 131 98 112 144 112 199 c 2
 112 441 l 1
 23 441 l 1
 23 500 l 1
 112 500 l 1
 112 656 l 1
EndSplineSet
EndChar

StartChar: u
Encoding: 117 117 46
GlifName: u
Width: 544
Flags: W
HStem: -12 60<197.634 347.788> 480 20G<63 123 422 482>
VStem: 63 60<130.351 500> 422 60<130.351 500>
LayerCount: 2
Fore
SplineSet
63 500 m 1
 123 500 l 1
 123 232 l 2
 123 175 138 131 166 98 c 0
 194 65 230 48 273 48 c 0
 316 48 351 65 379 98 c 0
 407 131 422 175 422 232 c 2
 422 500 l 1
 482 500 l 1
 482 232 l 2
 482 159 462 99 422 55 c 0
 382 11 333 -12 273 -12 c 0
 213 -12 163 11 123 55 c 0
 83 99 63 159 63 232 c 2
 63 500 l 1
EndSplineSet
EndChar

StartChar: v
Encoding: 118 118 47
GlifName: v
Width: 493
Flags: W
HStem: 0 80<175 319> 480 20G<13 86.0476 407.952 481>
LayerCount: 2
Fore
SplineSet
13 500 m 1
 78 500 l 1
 247 80 l 1
 416 500 l 1
 481 500 l 1
 279 0 l 1
 215 0 l 1
 13 500 l 1
EndSplineSet
EndChar

StartChar: w
Encoding: 119 119 48
GlifName: w
Width: 766
Flags: W
HStem: 0 21G<166.6 242.174 505.563 581.2> 480 20G<13 82.3725 344.843 421.373 683.843 754>
VStem: 13 63<437 500>
LayerCount: 2
Fore
SplineSet
691 500 m 1
 754 500 l 1
 574 0 l 1
 512 0 l 1
 381 407 l 1
 235 0 l 1
 173 0 l 1
 13 500 l 1
 76 500 l 1
 206 92 l 1
 352 500 l 1
 415 500 l 1
 545 92 l 1
 691 500 l 1
EndSplineSet
EndChar

StartChar: x
Encoding: 120 120 49
GlifName: x
Width: 440
Flags: W
HStem: 0 21G<12 100.673 341.327 428> 480 20G<12 98.7056 342.193 428>
VStem: 184 73<213.5 286.5>
LayerCount: 2
Fore
SplineSet
221 196 m 1
 87 0 l 1
 12 0 l 1
 184 250 l 1
 12 500 l 1
 85 500 l 1
 220 303 l 1
 356 500 l 1
 428 500 l 1
 257 250 l 1
 428 0 l 1
 355 0 l 1
 221 196 l 1
EndSplineSet
EndChar

StartChar: y
Encoding: 121 121 50
GlifName: y
Width: 511
Flags: W
HStem: -212 59<23 132.901> 480 20G<13 86.3886 425.517 499>
LayerCount: 2
Fore
SplineSet
13 500 m 1
 78 500 l 1
 255 78 l 1
 434 500 l 1
 499 500 l 1
 254 -80 l 2
 237 -120 211 -152 174 -176 c 0
 137 -200 97 -212 53 -212 c 2
 23 -212 l 1
 23 -153 l 1
 53 -153 l 2
 85 -153 115 -144 141 -127 c 0
 167 -110 186 -87 199 -57 c 2
 223 0 l 1
 13 500 l 1
EndSplineSet
EndChar

StartChar: z
Encoding: 122 122 51
GlifName: z
Width: 483
Flags: W
HStem: 0 60<129 431> 440 60<53 355>
LayerCount: 2
Fore
SplineSet
53 0 m 1
 53 60 l 1
 355 440 l 1
 53 440 l 1
 53 500 l 1
 431 500 l 1
 431 440 l 1
 129 60 l 1
 431 60 l 1
 431 0 l 1
 53 0 l 1
EndSplineSet
EndChar

StartChar: bracketleft
Encoding: 91 91 52
GlifName: bracketleft
Width: 321
Flags: W
LayerCount: 2
Fore
SplineSet
168 800 m 6
 150 800 135 794 122 781 c 4
 109 768 103 753 103 735 c 6
 103 -35 l 6
 103 -53 109 -68 122 -81 c 4
 135 -94 150 -100 168 -100 c 6
 239 -100 l 5
 239 -40 l 5
 168 -40 l 6
 165 -40 163 -38 163 -35 c 6
 163 735 l 6
 163 738 165 740 168 740 c 6
 239 740 l 5
 239 800 l 5
 168 800 l 6
EndSplineSet
EndChar

StartChar: backslash
Encoding: 92 92 53
GlifName: backslash
Width: 364
Flags: W
LayerCount: 2
Fore
SplineSet
75 747 m 5
 18 727 l 5
 288 -84 l 5
 344 -64 l 5
 75 747 l 5
EndSplineSet
EndChar

StartChar: bracketright
Encoding: 93 93 54
GlifName: bracketright
Width: 321
Flags: W
HStem: -100 60<93 168.984> 740 60<93 168.984>
VStem: 169 60<-39.9842 739.984>
LayerCount: 2
Fore
SplineSet
164 800 m 6
 182 800 197 794 210 781 c 4
 223 768 229 753 229 735 c 6
 229 -35 l 6
 229 -53 223 -68 210 -81 c 4
 197 -94 182 -100 164 -100 c 6
 93 -100 l 5
 93 -40 l 5
 164 -40 l 6
 167 -40 169 -38 169 -35 c 6
 169 735 l 6
 169 738 167 740 164 740 c 6
 93 740 l 5
 93 800 l 5
 164 800 l 6
EndSplineSet
EndChar

StartChar: asciicircum
Encoding: 94 94 55
GlifName: asciicircum
Width: 547
Flags: W
HStem: 373 327
LayerCount: 2
Fore
SplineSet
399 373 m 1
 239 700 l 1
 307 700 l 1
 465 373 l 1
 399 373 l 1
84 373 m 1
 239 700 l 1
 307 700 l 1
 148 373 l 1
 84 373 l 1
EndSplineSet
EndChar

StartChar: underscore
Encoding: 95 95 56
GlifName: underscore
Width: 485
Flags: W
HStem: -60 60<33 453>
LayerCount: 2
Fore
SplineSet
33 -60 m 1
 33 0 l 1
 453 0 l 1
 453 -60 l 1
 33 -60 l 1
EndSplineSet
EndChar

StartChar: grave
Encoding: 96 96 57
GlifName: grave
Width: 210
Flags: W
HStem: 574 127
VStem: 9 200
LayerCount: 2
Fore
SplineSet
133 574 m 1
 9 701 l 1
 98 701 l 1
 209 574 l 1
 133 574 l 1
EndSplineSet
EndChar

StartChar: zero
Encoding: 48 48 58
GlifName: zero
Width: 641
Flags: W
HStem: -12 60<236.618 405.109> 652 60<236.618 405.109>
VStem: 53 60<209.424 490.576> 529 60<207.855 492.145>
LayerCount: 2
Fore
SplineSet
321 652 m 0
 286 652 255 643 228 625 c 0
 201 607 178 584 162 555 c 0
 146 526 134 493 126 458 c 0
 118 423 113 388 113 350 c 0
 113 312 118 277 126 242 c 0
 134 207 146 174 162 145 c 0
 178 116 201 93 228 75 c 0
 255 57 286 48 321 48 c 0
 356 48 387 57 414 75 c 0
 441 93 464 116 480 145 c 0
 496 174 509 207 517 242 c 0
 525 277 529 312 529 350 c 0
 529 388 525 423 517 458 c 0
 509 493 496 526 480 555 c 0
 464 584 441 607 414 625 c 0
 387 643 356 652 321 652 c 0
321 712 m 0
 378 712 427 694 469 658 c 0
 511 622 542 577 561 524 c 0
 580 471 589 412 589 350 c 0
 589 288 580 229 561 176 c 0
 542 123 511 78 469 42 c 0
 427 6 378 -12 321 -12 c 0
 264 -12 214 6 172 42 c 0
 130 78 101 123 82 176 c 0
 63 229 53 288 53 350 c 0
 53 412 63 471 82 524 c 0
 101 577 130 622 172 658 c 0
 214 694 264 712 321 712 c 0
EndSplineSet
EndChar

StartChar: one
Encoding: 49 49 59
GlifName: one
Width: 411
Flags: W
HStem: 0 21G<229 289> 680 20G<205.148 289>
VStem: 229 60<0 622>
LayerCount: 2
Fore
SplineSet
229 700 m 1
 289 700 l 1
 289 0 l 1
 229 0 l 1
 229 622 l 1
 107 519 l 1
 68 565 l 1
 229 700 l 1
EndSplineSet
EndChar

StartChar: two
Encoding: 50 50 60
GlifName: two
Width: 526
Flags: W
HStem: 0 60<113 459> 652 60<163.125 324.174>
VStem: 42 58<556.948 590.261> 393 60<433.519 583.187>
LayerCount: 2
Fore
SplineSet
244 712 m 0
 302 712 351 692 392 651 c 0
 433 610 453 560 453 502 c 0
 453 454 429 404 382 351 c 2
 113 60 l 1
 459 60 l 1
 459 0 l 1
 33 0 l 1
 33 60 l 1
 337 388 l 2
 374 428 393 466 393 502 c 0
 393 545 379 581 351 609 c 0
 323 637 287 652 244 652 c 0
 209 652 178 643 152 623 c 0
 126 603 109 576 100 542 c 1
 42 559 l 1
 55 604 80 641 117 669 c 0
 154 697 197 712 244 712 c 0
EndSplineSet
EndChar

StartChar: three
Encoding: 51 51 61
GlifName: three
Width: 547
Flags: W
HStem: -12 60<179.565 356.646> 350 60<193 344.549> 652 60<184.748 347.168>
VStem: 403 60<463.966 599.59> 435 60<120.182 274.316>
LayerCount: 2
Fore
SplineSet
265 712 m 0xf0
 319 712 366 695 405 661 c 0
 444 627 463 584 463 532 c 0xf0
 463 507 456 482 443 460 c 0
 427 433 402 407 367 383 c 1
 404 363 435 337 459 305 c 0
 483 273 495 238 495 198 c 0
 495 138 472 88 428 48 c 0
 384 8 329 -12 267 -12 c 0
 226 -12 188 -2 152 17 c 0
 116 36 89 62 70 95 c 1
 121 126 l 1
 134 102 154 83 181 69 c 0
 208 55 236 48 267 48 c 0
 313 48 353 62 386 90 c 0
 419 118 435 154 435 198 c 0xe8
 435 242 418 278 384 307 c 0
 350 336 311 350 267 350 c 2
 193 350 l 1
 193 410 l 1
 267 410 l 2
 303 410 334 421 362 444 c 0
 390 467 403 497 403 532 c 0
 403 568 390 597 363 619 c 0
 336 641 303 652 265 652 c 0
 238 652 213 646 189 633 c 0
 165 620 148 603 138 582 c 1
 86 612 l 1
 101 642 125 667 158 685 c 0
 191 703 227 712 265 712 c 0xf0
EndSplineSet
EndChar

StartChar: four
Encoding: 52 52 62
GlifName: four
Width: 581
Flags: W
HStem: 0 21G<355 415> 182 60<119 355 415 549> 681 20G<258.632 311.2>
VStem: 355 60<0 182 242 440>
LayerCount: 2
Fore
SplineSet
268 701 m 1
 322 676 l 1
 119 242 l 1
 355 242 l 1
 355 440 l 1
 415 440 l 1
 415 242 l 1
 549 242 l 1
 549 182 l 1
 415 182 l 1
 415 0 l 1
 355 0 l 1
 355 182 l 1
 53 182 l 1
 53 242 l 1
 268 701 l 1
EndSplineSet
EndChar

StartChar: five
Encoding: 53 53 63
GlifName: five
Width: 539
Flags: W
HStem: -12 60<177.594 345.608> 382 60<171 343.948> 640 60<171 449>
VStem: 111 60<442 640> 427 60<129.392 297.573>
LayerCount: 2
Fore
SplineSet
111 700 m 1
 449 700 l 1
 449 640 l 1
 171 640 l 1
 171 442 l 1
 267 442 l 2
 328 441 379 418 422 373 c 0
 465 328 487 275 487 213 c 0
 487 151 465 98 421 54 c 0
 377 10 324 -12 262 -12 c 0
 222 -12 185 -2 151 18 c 0
 117 38 89 63 67 95 c 1
 113 133 l 1
 150 76 200 48 262 48 c 0
 309 48 347 64 379 96 c 0
 411 128 427 166 427 213 c 0
 427 259 412 298 381 331 c 0
 350 364 312 381 267 382 c 2
 111 382 l 1
 111 700 l 1
EndSplineSet
EndChar

StartChar: six
Encoding: 54 54 64
GlifName: six
Width: 542
Flags: W
HStem: -12 60<194.767 365.846> 387 60<211.05 365.846> 692 20G<289.451 370>
VStem: 51 60<131.767 302.738> 450 60<131.767 302.846>
LayerCount: 2
Fore
SplineSet
280 387 m 0
 233 387 193 371 160 338 c 0
 127 305 111 264 111 217 c 0
 111 170 127 130 160 97 c 0
 193 64 233 48 280 48 c 0
 327 48 368 64 401 97 c 0
 434 130 450 170 450 217 c 0
 450 264 434 305 401 338 c 0
 368 371 327 387 280 387 c 0
301 712 m 1
 370 712 l 1
 210 435 l 1
 233 443 257 447 280 447 c 0
 343 447 398 425 443 380 c 0
 488 335 510 280 510 217 c 0
 510 154 488 100 443 55 c 0
 398 10 343 -12 280 -12 c 0
 217 -12 163 10 118 55 c 0
 73 100 51 154 51 217 c 0
 51 258 61 296 81 331 c 2
 301 712 l 1
EndSplineSet
EndChar

StartChar: seven
Encoding: 55 55 65
GlifName: seven
Width: 535
Flags: W
HStem: 0 21G<82 162> 640 60<48 435>
LayerCount: 2
Fore
SplineSet
48 640 m 1
 48 700 l 1
 503 700 l 1
 503 640 l 1
 151 0 l 1
 82 0 l 1
 435 640 l 1
 48 640 l 1
EndSplineSet
EndChar

StartChar: eight
Encoding: 56 56 66
GlifName: eight
Width: 573
Flags: W
HStem: -12 60<202.049 371.951> 349 60<211.551 362.449> 652 60<209.929 364.071>
VStem: 63 60<121.48 275.483> 92 60<465.289 597.895> 421 61<463.647 598.499> 451 60<121.48 275.483>
LayerCount: 2
Fore
SplineSet
287 349 m 0xf2
 244 349 205 334 172 306 c 0
 139 278 123 241 123 198 c 0
 123 155 139 118 172 90 c 0
 205 62 244 48 287 48 c 0
 330 48 369 62 402 90 c 0
 435 118 451 155 451 198 c 0
 451 241 435 278 402 306 c 0
 369 334 330 349 287 349 c 0xf2
287 652 m 0
 251 652 220 640 193 618 c 0
 166 596 152 567 152 532 c 0
 152 497 166 467 193 444 c 0
 220 421 252 409 287 409 c 0
 322 409 354 421 381 444 c 0
 408 467 421 497 421 532 c 0xec
 421 567 408 596 381 618 c 0
 354 640 323 652 287 652 c 0
287 712 m 0
 339 712 384 695 423 660 c 0
 462 625 482 583 482 532 c 0xec
 482 481 462 438 423 403 c 0
 414 395 405 387 395 381 c 1
 413 372 428 361 444 347 c 0
 489 307 511 258 511 198 c 0
 511 138 489 88 444 48 c 0
 399 8 347 -12 287 -12 c 0
 227 -12 175 8 130 48 c 0
 85 88 63 138 63 198 c 0xf2
 63 258 85 307 130 347 c 0
 146 361 162 372 180 381 c 1
 170 387 160 395 151 403 c 0
 112 438 92 481 92 532 c 0
 92 583 112 625 151 660 c 0
 190 695 235 712 287 712 c 0
EndSplineSet
EndChar

StartChar: nine
Encoding: 57 57 67
GlifName: nine
Width: 542
Flags: W
HStem: 0 21G<178 258.653> 253 60<176.767 331.701> 652 60<176.767 347.846>
VStem: 33 60<397.867 568.027> 432 60<396.756 568.027>
LayerCount: 2
Fore
SplineSet
262 313 m 0
 309 313 350 329 383 362 c 0
 416 395 432 435 432 482 c 0
 432 529 416 570 383 603 c 0
 350 636 309 652 262 652 c 0
 215 652 175 636 142 603 c 0
 109 570 93 529 93 482 c 0
 93 435 109 395 142 362 c 0
 175 329 215 313 262 313 c 0
247 0 m 1
 178 0 l 1
 333 265 l 1
 309 257 285 253 262 253 c 0
 199 253 145 275 100 320 c 0
 55 364 33 419 33 482 c 0
 33 545 55 601 100 645 c 0
 145 690 199 712 262 712 c 0
 325 712 380 690 425 645 c 0
 470 601 492 545 492 482 c 0
 492 440 482 403 462 369 c 2
 247 0 l 1
EndSplineSet
EndChar

StartChar: exclam
Encoding: 33 33 68
GlifName: exclam
Width: 297
Flags: W
HStem: -14 92<109.571 188.429> 680 20G<119 179>
VStem: 103 92<-6.93184 70.9318> 119 60<193 700>
LayerCount: 2
Fore
SplineSet
119 700 m 5xd0
 179 700 l 5
 179 193 l 5
 119 193 l 5
 119 700 l 5xd0
149 78 m 4
 162 78 173 73 182 64 c 4
 191 55 195 45 195 32 c 4
 195 19 191 9 182 0 c 4
 173 -9 162 -14 149 -14 c 4
 136 -14 125 -9 116 0 c 4
 107 9 103 19 103 32 c 4xe0
 103 45 107 55 116 64 c 4
 125 73 136 78 149 78 c 4
EndSplineSet
EndChar

StartChar: quotedbl
Encoding: 34 34 69
GlifName: quotedbl
Width: 319
Flags: W
HStem: 510 206<68 118 192 242>
VStem: 58 70<571.8 716> 68 50<510 654.2> 182 70<571.8 716> 192 50<510 654.2>
LayerCount: 2
Fore
SplineSet
182 716 m 1x90
 252 716 l 1x90
 242 510 l 1
 192 510 l 1x88
 182 716 l 1x90
58 716 m 1xc0
 128 716 l 1xc0
 118 510 l 1
 68 510 l 1xa0
 58 716 l 1xc0
EndSplineSet
EndChar

StartChar: numbersign
Encoding: 35 35 70
GlifName: numbersign
Width: 633
Flags: W
HStem: 0 21G<99 163.462 329 393.462> 208 61<24 135 207 366 437 567> 448 60<65 178 249 408 480 609> 680 20G<218.562 283 448.562 513>
VStem: 99 61<0 61> 222 61<639 700> 329 61<0 61> 452 61<639 700>
LayerCount: 2
Fore
SplineSet
452 700 m 1
 513 700 l 1
 480 508 l 1
 620 508 l 1
 609 448 l 1
 469 448 l 1
 437 269 l 1
 577 269 l 1
 567 208 l 1
 426 208 l 1
 390 0 l 1
 329 0 l 1
 366 208 l 1
 196 208 l 1
 160 0 l 1
 99 0 l 1
 135 208 l 1
 13 208 l 1
 24 269 l 1
 146 269 l 1
 178 448 l 1
 55 448 l 1
 65 508 l 1
 189 508 l 1
 222 700 l 1
 283 700 l 1
 249 508 l 1
 419 508 l 1
 452 700 l 1
408 448 m 1
 239 448 l 1
 207 269 l 1
 376 269 l 1
 408 448 l 1
EndSplineSet
EndChar

StartChar: dollar
Encoding: 36 36 71
GlifName: dollar
Width: 544
Flags: W
HStem: -91 139<236.596 295.05> 652 139<237.787 295.373>
VStem: 65 60<467.347 599.552> 236 60<-91 -6.90625 706.843 791> 427 60<121.586 270.703>
LayerCount: 2
Fore
SplineSet
236 791 m 1
 296 791 l 1
 296 710 l 1
 330 706 360 697 386 680 c 0
 419 659 443 630 456 593 c 1
 399 572 l 1
 390 597 375 617 352 631 c 0
 329 645 301 652 266 652 c 0
 224 652 190 641 164 618 c 0
 138 595 125 566 125 531 c 0
 125 501 135 477 156 457 c 0
 179 435 216 419 266 410 c 0
 330 399 383 375 425 338 c 0
 467 301 487 255 487 199 c 0
 487 140 465 90 423 49 c 0
 388 15 346 -4 296 -10 c 1
 296 -91 l 1
 236 -91 l 1
 236 -10 l 1
 199 -6 166 6 137 26 c 0
 100 51 73 85 58 127 c 1
 115 147 l 1
 126 117 144 93 171 75 c 0
 198 57 230 48 266 48 c 0
 312 48 350 63 381 92 c 0
 412 121 427 157 427 199 c 0
 427 239 411 272 381 298 c 0
 351 324 313 342 266 350 c 0
 206 361 158 381 121 410 c 0
 84 439 65 480 65 531 c 0
 65 582 84 625 122 660 c 0
 153 689 191 705 236 710 c 1
 236 791 l 1
EndSplineSet
EndChar

StartChar: percent
Encoding: 37 37 72
GlifName: percent
Width: 862
Flags: W
HStem: -12 60<591.626 712.624> 0 21G<194.176 236.994> 244 60<591.626 712.624> 396 60<149.291 272.709> 652 60<149.291 272.709> 680 20G<626.006 668.824>
VStem: 53 60<492.027 615.973> 309 60<492.027 615.973> 494 60<85.6265 206.374> 750 60<85.6265 206.374>
LayerCount: 2
Fore
SplineSet
652 304 m 4xb3c0
 695 304 733 288 764 257 c 4
 795 226 810 189 810 146 c 4
 810 103 795 66 764 35 c 4
 733 4 695 -12 652 -12 c 4
 609 -12 572 4 541 35 c 4
 510 66 494 103 494 146 c 4
 494 189 510 226 541 257 c 4
 572 288 609 304 652 304 c 4xb3c0
652 244 m 4
 625 244 602 234 583 215 c 4
 564 196 554 173 554 146 c 4
 554 119 564 96 583 77 c 4
 602 58 625 48 652 48 c 4
 679 48 702 58 721 77 c 4
 740 96 750 119 750 146 c 4
 750 173 740 196 721 215 c 4
 702 234 679 244 652 244 c 4
640 700 m 5x77c0
 689 666 l 5
 223 0 l 5
 174 34 l 5
 640 700 l 5x77c0
211 712 m 4x3bc0
 254 712 291 697 322 666 c 4
 353 635 369 597 369 554 c 4
 369 511 353 473 322 442 c 4
 291 411 254 396 211 396 c 4
 168 396 131 411 100 442 c 4
 69 473 53 511 53 554 c 4
 53 597 69 635 100 666 c 4
 131 697 168 712 211 712 c 4x3bc0
211 652 m 4
 184 652 161 643 142 624 c 4
 123 605 113 581 113 554 c 4
 113 527 123 503 142 484 c 4
 161 465 184 456 211 456 c 4
 238 456 261 465 280 484 c 4
 299 503 309 527 309 554 c 4
 309 581 299 605 280 624 c 4
 261 643 238 652 211 652 c 4
EndSplineSet
EndChar

StartChar: ampersand
Encoding: 38 38 73
GlifName: ampersand
Width: 647
Flags: W
HStem: -12 60<182.699 380.099> 0 21G<535.239 630> 652 60<224.639 350.564>
VStem: 63 60<102.159 238.359> 128 60<502.477 616.541> 386 60<500.505 617.601> 539 60<249 309>
LayerCount: 2
Fore
SplineSet
264 -12 m 0xbe
 208 -12 161 5 122 39 c 0
 83 73 63 115 63 167 c 0
 63 203 73 236 94 269 c 0
 116 304 149 337 194 368 c 0
 228 391 254 410 275 424 c 0
 302 443 318 455 321 457 c 0
 365 492 386 526 386 559 c 0
 386 588 375 610 355 627 c 0
 335 644 312 652 285 652 c 0
 259 652 237 642 217 624 c 0
 197 606 188 585 188 561 c 0
 188 539 197 516 216 494 c 6
 630 0 l 1
 552 0 l 1x7e
 169 457 l 2
 142 490 128 524 128 561 c 0
 128 604 145 640 176 669 c 0
 207 698 243 712 285 712 c 0
 331 712 369 697 400 668 c 0
 431 639 446 603 446 559 c 0
 446 534 439 509 426 486 c 0
 414 464 395 443 372 422 c 0
 358 410 340 397 317 380 c 0
 293 362 264 342 229 319 c 0
 191 294 164 268 146 241 c 0
 130 217 123 192 123 167 c 0
 123 130 139 101 167 80 c 0
 195 59 227 48 264 48 c 0
 304 48 338 53 369 65 c 0
 399 77 425 95 447 118 c 0
 494 167 525 231 539 309 c 1
 599 309 l 1
 581 207 546 130 493 76 c 0
 465 47 430 25 388 10 c 0
 346 -5 305 -12 264 -12 c 0xbe
EndSplineSet
EndChar

StartChar: quotesingle
Encoding: 39 39 74
GlifName: quotesingle
Width: 195
Flags: W
HStem: 510 206<73 123>
VStem: 63 70<571.8 716> 73 50<510 654.2>
LayerCount: 2
Fore
SplineSet
63 716 m 1xc0
 133 716 l 1xc0
 123 510 l 1
 73 510 l 1xa0
 63 716 l 1xc0
EndSplineSet
EndChar

StartChar: parenleft
Encoding: 40 40 75
GlifName: parenleft
Width: 325
Flags: W
VStem: 63 60<186.82 513.017>
LayerCount: 2
Fore
SplineSet
230 799 m 1
 273 757 l 1
 225 701 188 638 162 567 c 0
 136 496 123 424 123 350 c 0
 123 276 136 204 162 134 c 0
 188 64 225 0 272 -56 c 1
 230 -99 l 1
 176 -37 135 33 106 110 c 0
 77 187 63 267 63 350 c 0
 63 433 77 512 106 589 c 0
 135 666 176 737 230 799 c 1
EndSplineSet
EndChar

StartChar: parenright
Encoding: 41 41 76
GlifName: parenright
Width: 325
Flags: W
VStem: 203 60<186.82 513.017>
LayerCount: 2
Fore
SplineSet
96 799 m 1
 150 737 191 666 220 589 c 0
 249 512 263 433 263 350 c 0
 263 267 249 187 220 110 c 0
 191 33 150 -37 96 -99 c 1
 96 -99 96 -99 54 -56 c 1
 101 0 138 64 164 134 c 0
 190 204 203 276 203 350 c 0
 203 424 190 496 164 567 c 0
 138 638 101 701 53 757 c 5
 53 757 53 757 96 799 c 1
EndSplineSet
EndChar

StartChar: asterisk
Encoding: 42 42 77
GlifName: asterisk
Width: 481
Flags: W
HStem: 395 321
VStem: 211 60<548 716>
LayerCount: 2
Fore
SplineSet
72 571 m 1
 90 628 l 1
 250 577 l 1
 232 520 l 1
 72 571 l 1
167 395 m 1
 118 430 l 1
 217 565 l 1
 265 530 l 1
 167 395 l 1
364 430 m 1
 315 395 l 1
 217 530 l 1
 265 565 l 1
 364 430 l 1
392 628 m 1
 410 571 l 1
 250 520 l 1
 232 577 l 1
 392 628 l 1
211 716 m 1
 271 716 l 1
 271 548 l 1
 211 548 l 5
 211 716 l 1
EndSplineSet
EndChar

StartChar: plus
Encoding: 43 43 78
GlifName: plus
Width: 625
Flags: W
HStem: 269 60<88 283 343 538>
VStem: 283 60<73 269 329 523>
LayerCount: 2
Fore
SplineSet
283 523 m 1
 343 523 l 1
 343 329 l 1
 538 329 l 1
 538 269 l 1
 343 269 l 1
 343 73 l 1
 283 73 l 1
 283 269 l 1
 88 269 l 1
 88 329 l 1
 283 329 l 1
 283 523 l 1
EndSplineSet
EndChar

StartChar: comma
Encoding: 44 44 79
GlifName: comma
Width: 209
Flags: W
HStem: -116 202<103 112.413>
VStem: 103 61<-44.2869 86>
LayerCount: 2
Fore
SplineSet
103 86 m 5
 164 86 l 5
 164 9 146 -59 109 -116 c 5
 48 -116 l 5
 85 -55 103 12 103 86 c 5
EndSplineSet
EndChar

StartChar: hyphen
Encoding: 45 45 80
GlifName: hyphen
Width: 425
Flags: W
HStem: 268 60<63 363>
VStem: 63 300<268 328>
LayerCount: 2
Fore
SplineSet
63 268 m 1
 63 328 l 1
 363 328 l 1
 363 268 l 1
 63 268 l 1
EndSplineSet
EndChar

StartChar: period
Encoding: 46 46 81
GlifName: period
Width: 197
Flags: W
HStem: -14 92<59.5705 137.622>
VStem: 53 92<-6.62228 70.6223>
LayerCount: 2
Fore
SplineSet
145 32 m 0
 145 19 140 9 131 0 c 0
 122 -9 112 -14 99 -14 c 0
 86 -14 75 -9 66 0 c 0
 57 9 53 19 53 32 c 0
 53 45 57 55 66 64 c 0
 75 73 86 78 99 78 c 0
 112 78 122 73 131 64 c 0
 140 55 145 45 145 32 c 0
EndSplineSet
EndChar

StartChar: slash
Encoding: 47 47 82
GlifName: slash
Width: 361
Flags: W
VStem: 18 326
LayerCount: 2
Fore
SplineSet
288 747 m 5
 344 727 l 5
 75 -84 l 5
 18 -64 l 5
 288 747 l 5
EndSplineSet
EndChar

StartChar: colon
Encoding: 58 58 83
GlifName: colon
Width: 239
Flags: W
HStem: -2 92<88.4233 159.622> 410 92<86.4233 157.622>
VStem: 75 92<5.37772 76.5767 423.423 492.981>
LayerCount: 2
Fore
SplineSet
119 410 m 256
 106 410 95 414 86 423 c 0
 77 432 73 443 73 456 c 256
 73 469 77 479 86 488 c 0
 95 497 106 502 119 502 c 256
 132 502 142 497 151 488 c 0
 160 479 165 469 165 456 c 256
 165 443 160 432 151 423 c 0
 142 414 132 410 119 410 c 256
121 -2 m 256
 108 -2 97 3 88 12 c 0
 79 21 75 31 75 44 c 256
 75 57 79 68 88 77 c 0
 97 86 108 90 121 90 c 256
 134 90 144 86 153 77 c 0
 162 68 167 57 167 44 c 256
 167 31 162 21 153 12 c 0
 144 3 134 -2 121 -2 c 256
EndSplineSet
EndChar

StartChar: semicolon
Encoding: 59 59 84
GlifName: semicolon
Width: 243
Flags: W
HStem: 410 92<92.4233 163.622>
VStem: 79 92<423.423 494.622> 103 61<-44.2869 86>
LayerCount: 2
Fore
SplineSet
103 86 m 5xa0
 164 86 l 5
 164 9 146 -59 109 -116 c 5
 48 -116 l 5
 85 -55 103 12 103 86 c 5xa0
125 410 m 0
 112 410 101 414 92 423 c 0
 83 432 79 443 79 456 c 0
 79 469 83 479 92 488 c 0
 101 497 112 502 125 502 c 0
 138 502 148 497 157 488 c 0
 166 479 171 469 171 456 c 0xc0
 171 443 166 432 157 423 c 0
 148 414 138 410 125 410 c 0
EndSplineSet
EndChar

StartChar: less
Encoding: 60 60 85
GlifName: less
Width: 625
Flags: W
VStem: 142 69<230.5 365.5>
LayerCount: 2
Fore
SplineSet
473 489 m 1
 473 423 l 1
 211 298 l 1
 473 173 l 1
 473 106 l 1
 142 265 l 1
 142 331 l 1
 473 489 l 1
EndSplineSet
EndChar

StartChar: equal
Encoding: 61 61 86
GlifName: equal
Width: 625
Flags: W
HStem: 167 61<113 513> 368 60<113 513>
LayerCount: 2
Fore
SplineSet
113 368 m 1
 113 428 l 1
 513 428 l 1
 513 368 l 1
 113 368 l 1
113 167 m 1
 113 228 l 1
 513 228 l 1
 513 167 l 1
 113 167 l 1
EndSplineSet
EndChar

StartChar: greater
Encoding: 62 62 87
GlifName: greater
Width: 625
Flags: W
VStem: 415 69<230.5 365.5>
LayerCount: 2
Fore
SplineSet
153 489 m 1
 153 423 l 1
 415 298 l 1
 153 173 l 1
 153 106 l 5
 484 265 l 5
 484 331 l 1
 153 489 l 1
EndSplineSet
EndChar

StartChar: question
Encoding: 63 63 88
GlifName: question
Width: 504
Flags: W
HStem: -14 92<183.378 260.622> 652 60<165.931 318.283>
VStem: 176 92<-6.62228 70.6223> 190 60<183 260.478> 392 60<426.221 578.439>
LayerCount: 2
Fore
SplineSet
268 32 m 4xe8
 268 19 263 9 254 0 c 4
 245 -9 235 -14 222 -14 c 4
 209 -14 199 -9 190 0 c 4xd8
 181 9 176 19 176 32 c 4xe8
 176 45 181 55 190 64 c 4xd8
 199 73 209 78 222 78 c 4
 235 78 245 73 254 64 c 4
 263 55 268 45 268 32 c 4xe8
242 712 m 4
 300 712 350 691 391 650 c 4
 432 609 452 560 452 502 c 4
 452 462 441 426 419 392 c 4
 397 358 368 332 331 314 c 4
 307 302 287 285 272 261 c 4
 257 237 250 211 250 183 c 5
 190 183 l 5
 190 223 201 259 222 293 c 4
 243 327 271 352 307 369 c 4
 333 381 353 400 369 424 c 4
 385 448 392 474 392 502 c 4
 392 543 378 577 348 607 c 4
 318 637 283 652 242 652 c 4
 208 652 177 641 150 620 c 4
 123 599 105 572 97 539 c 5
 38 549 l 5
 49 596 73 636 111 666 c 4
 149 696 193 712 242 712 c 4
EndSplineSet
EndChar

StartChar: at
Encoding: 64 64 89
GlifName: at
Width: 993
Flags: W
HStem: -213 62<384.354 648.13> -83 62<759.798 829.118> 13 63<432.492 602.418> 426 63<432.492 602.086> 653 62<384.346 649.233>
VStem: 53 61<120.886 380.749> 279 63<167.052 334.948> 692 63<-16.5439 90 164.817 337.183> 920 61<121.665 381.114>
LayerCount: 2
Fore
SplineSet
517 715 m 0
 579 715 637 703 694 680 c 0
 751 657 802 622 845 579 c 0
 888 536 923 486 946 429 c 0
 969 372 981 313 981 251 c 0
 981 193 972 138 952 87 c 4
 934 40 908 -4 873 -46 c 0
 852 -71 826 -83 795 -83 c 0
 767 -83 742 -73 722 -53 c 0
 702 -33 692 -9 692 19 c 2
 692 90 l 1
 645 39 586 13 517 13 c 0
 451 13 395 37 349 83 c 0
 303 129 279 185 279 251 c 0
 279 317 303 373 349 419 c 0
 395 465 451 489 517 489 c 0
 583 489 640 465 686 419 c 0
 732 373 755 317 755 251 c 2
 755 19 l 2
 755 8 759 -1 767 -9 c 0
 775 -17 784 -21 795 -21 c 0
 807 -21 817 -15 825 -6 c 0
 888 69 920 154 920 251 c 0
 920 304 910 356 889 405 c 0
 868 454 840 498 802 536 c 0
 764 574 720 602 671 623 c 0
 622 644 570 653 517 653 c 0
 444 653 377 636 315 600 c 0
 253 564 205 515 169 453 c 0
 133 391 114 324 114 251 c 0
 114 198 124 146 145 97 c 0
 166 48 194 4 232 -34 c 0
 270 -72 314 -100 363 -121 c 0
 412 -142 464 -151 517 -151 c 0
 565 -151 613 -143 659 -125 c 1
 681 -182 l 1
 627 -203 573 -213 517 -213 c 0
 455 -213 396 -201 339 -178 c 0
 282 -155 232 -120 189 -77 c 0
 146 -34 111 16 88 73 c 0
 65 130 53 189 53 251 c 0
 53 313 65 372 88 429 c 0
 111 486 146 536 189 579 c 0
 232 622 282 657 339 680 c 0
 396 703 455 715 517 715 c 0
517 426 m 0
 469 426 428 409 394 375 c 0
 360 341 342 299 342 251 c 0
 342 203 360 161 394 127 c 0
 428 93 469 76 517 76 c 0
 565 76 607 93 641 127 c 0
 675 161 692 203 692 251 c 0
 692 299 675 341 641 375 c 0
 607 409 565 426 517 426 c 0
EndSplineSet
EndChar

StartChar: braceleft
Encoding: 123 123 90
GlifName: braceleft
Width: 387
Flags: W
HStem: -100 60<273.633 325> 320 60<63 126.686> 740 60<273.928 325>
VStem: 163 60<26.4029 281.498 417.873 672.176>
CounterMasks: 1 e0
LayerCount: 2
Fore
SplineSet
325 -100 m 1
 273 -100 233 -77 206 -32 c 0
 178 16 163 89 163 188 c 0
 163 232 154 266 137 288 c 0
 120 309 96 320 63 320 c 1
 63 380 l 1
 100 380 126 393 143 420 c 0
 157 442 163 472 163 512 c 0
 163 612 178 686 207 734 c 0
 234 778 273 800 325 800 c 1
 325 740 l 1
 294 739 270 723 253 692 c 0
 232 654 223 595 223 513 c 0
 223 459 212 416 191 386 c 0
 181 371 169 359 153 350 c 1
 162 345 171 338 178 330 c 0
 208 299 223 252 223 187 c 0
 223 98 235 35 259 -2 c 0
 275 -26 298 -39 325 -40 c 1
 325 -100 l 1
EndSplineSet
EndChar

StartChar: bar
Encoding: 124 124 91
GlifName: bar
Width: 263
Flags: W
VStem: 102 60<-220 790>
LayerCount: 2
Fore
SplineSet
102 790 m 1
 162 790 l 1
 162 -220 l 1
 102 -220 l 1
 102 790 l 1
EndSplineSet
EndChar

StartChar: braceright
Encoding: 125 125 92
GlifName: braceright
Width: 387
Flags: W
HStem: -100 60<63 113.999> 320 60<261.314 325> 740 60<63 114.072>
VStem: 165 60<29.4827 281.498 417.873 672.176>
CounterMasks: 1 e0
LayerCount: 2
Fore
SplineSet
63 -100 m 1
 115 -100 155 -77 182 -32 c 0
 210 16 225 89 225 188 c 0
 225 232 234 266 251 288 c 0
 268 309 292 320 325 320 c 5
 325 380 l 5
 288 380 262 393 245 420 c 0
 231 442 225 472 225 512 c 0
 225 612 210 686 181 734 c 0
 154 778 115 800 63 800 c 1
 63 740 l 1
 94 739 117 723 134 692 c 0
 155 654 165 595 165 513 c 0
 165 459 175 416 196 386 c 0
 206 371 219 359 235 350 c 1
 226 345 217 338 210 330 c 0
 180 299 165 252 165 187 c 0
 165 98 152 35 128 -2 c 0
 112 -26 90 -39 63 -40 c 1
 63 -100 l 1
EndSplineSet
EndChar

StartChar: asciitilde
Encoding: 126 126 93
GlifName: asciitilde
Width: 534
Flags: W
HStem: 237 60<309.026 395.2> 336 60<138.685 226.464>
VStem: 63 60<265 320.479> 412 60<311.521 368>
LayerCount: 2
Fore
SplineSet
180 396 m 0
 217 396 253 377 287 340 c 0
 296 331 304 323 311 317 c 0
 326 303 341 297 354 297 c 0
 372 297 385 302 393 311 c 0
 403 322 410 341 412 368 c 1
 472 368 l 1
 467 320 451 284 428 263 c 0
 409 246 385 237 354 237 c 0
 318 237 283 255 250 291 c 0
 234 309 220 321 207 328 c 0
 197 333 188 336 180 336 c 0
 162 336 150 331 141 321 c 0
 131 310 125 291 123 265 c 1
 63 265 l 1
 67 313 81 348 104 369 c 0
 123 387 148 396 180 396 c 0
EndSplineSet
EndChar

StartChar: exclamdown
Encoding: 161 161 94
GlifName: exclamdown
Width: 297
Flags: W
HStem: 420 92<116.423 181.577>
VStem: 103 92<427.068 498.577>
LayerCount: 2
Fore
SplineSet
149 420 m 0
 162 420 173 425 182 434 c 0
 191 443 195 453 195 466 c 0
 195 479 191 490 182 499 c 0
 173 508 162 512 149 512 c 0
 136 512 125 508 116 499 c 0
 107 490 103 479 103 466 c 0
 103 453 107 443 116 434 c 0
 125 425 136 420 149 420 c 0
119 -202 m 1
 179 -202 l 1
 179 305 l 1
 119 305 l 1
 119 -202 l 1
EndSplineSet
EndChar

StartChar: cent
Encoding: 162 162 95
GlifName: cent
Width: 499
Flags: W
HStem: 0 21G<248 307> 88 61<307 381.727> 551 61<307 381.727> 680 20G<248 307>
VStem: 48 60<250.707 449.656> 248 59<0 88 153 546 612 700>
LayerCount: 2
Fore
SplineSet
307 612 m 1
 370 609 424 583 467 537 c 1
 426 493 l 1
 395 528 354 548 307 551 c 1
 307 149 l 1
 354 152 395 172 426 207 c 1
 467 163 l 1
 424 117 370 91 307 88 c 1
 307 0 l 1
 248 0 l 1
 248 92 l 1
 197 101 153 124 117 164 c 0
 71 215 48 276 48 350 c 0
 48 424 71 485 117 536 c 0
 153 576 197 599 248 608 c 1
 248 700 l 1
 307 700 l 1
 307 612 l 1
248 546 m 1
 213 538 183 521 159 494 c 0
 125 455 108 407 108 350 c 0
 108 293 125 246 159 207 c 0
 183 180 213 161 248 153 c 1
 248 546 l 1
EndSplineSet
EndChar

StartChar: sterling
Encoding: 163 163 96
GlifName: sterling
Width: 575
Flags: W
HStem: 0 63<53 107.494 171 522> 287 63<53 133 197 395> 648 64<256.387 399.191>
VStem: 133 64<88.2698 287 350 588.719> 459 64<517 587.664>
LayerCount: 2
Fore
SplineSet
522 63 m 1
 522 0 l 1
 53 0 l 1
 53 63 l 1
 75 63 93 70 109 86 c 0
 125 102 133 121 133 143 c 2
 133 287 l 1
 53 287 l 1
 53 350 l 1
 133 350 l 1
 133 517 l 2
 133 571 152 617 190 655 c 0
 228 693 274 712 328 712 c 0
 382 712 428 693 466 655 c 0
 504 617 523 571 523 517 c 1
 459 517 l 1
 459 553 446 583 420 609 c 0
 394 635 364 648 328 648 c 0
 292 648 261 635 235 609 c 0
 209 583 197 553 197 517 c 2
 197 350 l 1
 395 350 l 1
 395 287 l 1
 197 287 l 1
 197 143 l 2
 197 115 188 88 171 63 c 1
 522 63 l 1
EndSplineSet
EndChar

StartChar: currency
Encoding: 164 164 97
GlifName: currency
Width: 544
Flags: W
HStem: 192 60<211.079 333.415> 448 60<211.079 333.415>
VStem: 114 60<289.221 410.415> 371 60<289.221 410.415>
LayerCount: 2
Fore
SplineSet
342 419 m 0
 323 438 300 448 273 448 c 0
 246 448 222 438 203 419 c 0
 184 400 174 377 174 350 c 0
 174 323 184 300 203 281 c 0
 222 262 246 252 273 252 c 0
 300 252 323 262 342 281 c 0
 361 300 371 323 371 350 c 0
 371 377 361 400 342 419 c 0
420 540 m 1
 462 497 l 1
 403 438 l 1
 421 412 431 383 431 350 c 0
 431 317 421 287 403 261 c 1
 462 203 l 1
 420 161 l 1
 361 219 l 1
 335 201 306 192 273 192 c 0
 240 192 210 201 184 219 c 1
 126 161 l 1
 83 203 l 1
 141 261 l 1
 123 287 114 317 114 350 c 0
 114 383 123 412 141 438 c 1
 83 497 l 1
 126 540 l 1
 184 481 l 1
 210 499 240 508 273 508 c 0
 306 508 335 499 361 481 c 1
 420 540 l 1
EndSplineSet
EndChar

StartChar: yen
Encoding: 165 165 98
GlifName: yen
Width: 521
Flags: W
HStem: 0 365<48.5 473.5> 145 60<91 231 291 431> 282 60<91 206 316 431> 692 20G<13 91.3746 430.625 509>
VStem: 231 60<0 145 205 282>
LayerCount: 2
Fore
SplineSet
91 282 m 1x78
 91 342 l 1
 206 342 l 1x78
 13 712 l 1
 81 712 l 1
 261 365 l 1x98
 441 712 l 1
 509 712 l 1
 316 342 l 1
 431 342 l 1
 431 282 l 1
 291 282 l 1
 291 205 l 1
 431 205 l 1
 431 145 l 1
 291 145 l 1x78
 291 0 l 1
 231 0 l 1x98
 231 145 l 1
 91 145 l 1
 91 205 l 1
 231 205 l 1
 231 282 l 1
 91 282 l 1x78
EndSplineSet
EndChar

StartChar: brokenbar
Encoding: 166 166 99
GlifName: brokenbar
Width: 265
Flags: W
VStem: 103 60<-220 220 350 790>
LayerCount: 2
Fore
SplineSet
103 -220 m 1
 103 220 l 1
 163 220 l 1
 163 -220 l 1
 103 -220 l 1
103 350 m 1
 103 790 l 1
 163 790 l 1
 163 350 l 1
 103 350 l 1
EndSplineSet
EndChar

StartChar: section
Encoding: 167 167 100
GlifName: section
Width: 531
Flags: W
HStem: -90 57<198.844 331.786> 158 57<199.062 331.903> 407 57<199.062 332.938> 655 57<198.844 331.786>
VStem: 104 57<4 62 251.85 370.15 500.875 618.402> 372 56<5.83948 118.853 252.317 369.683 560 615.99>
LayerCount: 2
Fore
SplineSet
266 712 m 0
 310 712 349 697 381 667 c 0
 413 637 428 602 428 560 c 1
 372 560 l 1
 372 586 361 608 340 627 c 0
 319 646 295 655 266 655 c 0
 237 655 212 646 191 627 c 0
 170 608 161 586 161 560 c 0
 161 534 170 511 191 492 c 0
 212 473 237 464 266 464 c 0
 310 464 349 449 381 419 c 0
 413 389 429 353 429 311 c 0
 429 269 413 233 381 203 c 0
 375 197 367 192 360 187 c 1
 367 182 375 176 381 170 c 0
 413 140 428 104 428 62 c 0
 428 20 413 -15 381 -45 c 0
 349 -75 310 -90 266 -90 c 0
 222 -90 183 -75 151 -45 c 0
 119 -15 104 20 104 62 c 1
 161 62 l 1
 161 36 170 14 191 -5 c 0
 212 -24 237 -33 266 -33 c 0
 295 -33 319 -24 340 -5 c 0
 361 14 372 36 372 62 c 0
 372 88 361 111 340 130 c 0
 319 149 295 158 266 158 c 0
 222 158 183 173 151 203 c 0
 119 233 103 269 103 311 c 0
 103 353 119 389 151 419 c 0
 157 425 164 431 171 436 c 1
 164 441 157 446 151 452 c 0
 119 482 104 518 104 560 c 0
 104 602 119 637 151 667 c 0
 183 697 222 712 266 712 c 0
266 407 m 0
 237 407 212 398 191 379 c 0
 170 360 160 338 160 311 c 0
 160 284 170 262 191 243 c 0
 212 224 237 215 266 215 c 0
 295 215 320 224 341 243 c 0
 362 262 372 284 372 311 c 0
 372 338 362 360 341 379 c 0
 320 398 295 407 266 407 c 0
EndSplineSet
EndChar

StartChar: dieresis
Encoding: 168 168 101
GlifName: dieresis
Width: 427
Flags: W
HStem: 630 80<65.3757 121.624 307.376 362.624>
VStem: 53 80<642.376 698.624> 295 80<634.456 698.624>
LayerCount: 2
Fore
SplineSet
93 710 m 4
 104 710 114 707 122 699 c 4
 130 691 133 681 133 670 c 4
 133 659 130 650 122 642 c 4
 114 634 104 630 93 630 c 4
 82 630 73 634 65 642 c 4
 57 650 53 659 53 670 c 4
 53 681 57 691 65 699 c 4
 73 707 82 710 93 710 c 4
335 710 m 4
 346 710 355 707 363 699 c 4
 371 691 375 681 375 670 c 4
 375 659 371 650 363 642 c 4
 355 634 346 630 335 630 c 4
 324 630 315 634 307 642 c 4
 299 650 295 659 295 670 c 4
 295 681 299 691 307 699 c 4
 315 707 324 710 335 710 c 4
EndSplineSet
EndChar

StartChar: copyright
Encoding: 169 169 102
GlifName: copyright
Width: 828
Flags: W
HStem: -11 60<299.927 529.492> 152 60<349.181 487.982> 488 60<349.181 487.982> 652 60<301.607 527.824>
VStem: 53 60<235.927 465.242> 234 60<270.305 429.695> 716 60<235.927 465.242>
LayerCount: 2
Fore
SplineSet
415 712 m 0
 480 712 540 696 596 664 c 0
 652 632 696 588 728 532 c 0
 760 476 776 416 776 351 c 0
 776 286 760 225 728 169 c 0
 696 113 652 70 596 38 c 0
 540 6 480 -11 415 -11 c 0
 350 -11 289 6 233 38 c 0
 177 70 133 113 101 169 c 0
 69 225 53 286 53 351 c 0
 53 416 69 476 101 532 c 0
 133 588 177 632 233 664 c 0
 289 696 350 712 415 712 c 0
415 652 m 0
 332 652 260 622 201 563 c 0
 142 504 113 434 113 351 c 0
 113 268 142 196 201 137 c 0
 260 78 332 49 415 49 c 0
 498 49 569 78 628 137 c 0
 687 196 716 268 716 351 c 0
 716 434 687 504 628 563 c 0
 569 622 498 652 415 652 c 0
419 548 m 0
 472 548 516 529 551 491 c 1
 508 448 l 1
 485 475 456 488 419 488 c 0
 382 488 352 474 329 448 c 0
 306 422 294 389 294 350 c 0
 294 311 306 278 329 252 c 0
 352 226 382 212 419 212 c 0
 456 212 485 225 508 252 c 1
 551 208 l 1
 516 170 472 152 419 152 c 0
 365 152 321 171 286 209 c 0
 251 247 234 294 234 350 c 0
 234 406 251 453 286 491 c 0
 321 529 365 548 419 548 c 0
EndSplineSet
EndChar

StartChar: ordfeminine
Encoding: 170 170 103
GlifName: ordfeminine
Width: 377
Flags: W
HStem: 393 55<125.579 243.587> 651 56<124.935 244.613> 680 20G<281 333>
VStem: 35 56<483.337 616.867> 281 52<400 439 487.606 612.394 659 700>
LayerCount: 2
Fore
SplineSet
281 700 m 1xb8
 333 700 l 1xb8
 333 400 l 1
 281 400 l 1
 281 439 l 1
 258 408 225 393 182 393 c 0
 140 393 104 408 76 438 c 0
 48 469 35 506 35 550 c 0
 35 594 48 632 76 662 c 0
 104 692 139 707 182 707 c 0xd8
 224 707 258 691 281 659 c 5
 281 700 l 1xb8
185 651 m 0xd8
 157 651 135 642 117 622 c 0
 99 602 91 579 91 550 c 0
 91 521 99 498 117 478 c 0
 135 458 157 448 185 448 c 0
 212 448 235 458 252 478 c 0
 269 498 277 521 277 550 c 0
 277 579 269 602 252 622 c 0
 235 642 212 651 185 651 c 0xd8
EndSplineSet
EndChar

StartChar: guillemotleft
Encoding: 171 171 104
GlifName: guillemotleft
Width: 555
Flags: W
LayerCount: 2
Fore
SplineSet
275 515 m 5
 318 473 l 5
 143 298 l 5
 318 124 l 5
 275 81 l 5
 58 298 l 5
 275 515 l 5
452 515 m 5
 495 473 l 5
 320 298 l 5
 495 124 l 5
 452 81 l 5
 235 298 l 5
 452 515 l 5
EndSplineSet
EndChar

StartChar: logicalnot
Encoding: 172 172 105
GlifName: logicalnot
Width: 625
Flags: W
HStem: 296 60<133 433>
VStem: 433 60<201 296>
LayerCount: 2
Fore
SplineSet
133 296 m 1
 133 356 l 1
 493 356 l 5
 493 201 l 5
 433 201 l 1
 433 296 l 1
 133 296 l 1
EndSplineSet
EndChar

StartChar: uni00AD
Encoding: 173 173 106
GlifName: uni00A_D_
Width: 425
Flags: W
HStem: 268 60<63 363>
VStem: 63 300<268 328>
LayerCount: 2
Fore
SplineSet
63 268 m 1
 63 328 l 1
 363 328 l 1
 363 268 l 1
 63 268 l 1
EndSplineSet
EndChar

StartChar: registered
Encoding: 174 174 107
GlifName: registered
Width: 631
Flags: W
HStem: 176 60<222.556 409.444> 411 60<288 311> 531 59<288 354.717> 652 60<222.556 409.444>
VStem: 48 60<350.341 537.444> 228 60<297 411 471 531> 364 60<475.916 525.365> 524 60<350.341 537.444>
LayerCount: 2
Fore
SplineSet
316 712 m 0
 390 712 453 685 505 633 c 0
 557 581 584 518 584 444 c 0
 584 370 557 306 505 254 c 0
 453 202 390 176 316 176 c 0
 242 176 179 202 127 254 c 0
 75 306 48 370 48 444 c 0
 48 518 75 581 127 633 c 0
 179 685 242 712 316 712 c 0
316 652 m 0
 259 652 210 632 169 591 c 0
 128 550 108 501 108 444 c 0
 108 387 128 338 169 297 c 0
 210 256 259 236 316 236 c 0
 373 236 422 256 463 297 c 0
 504 338 524 387 524 444 c 0
 524 501 504 550 463 591 c 0
 422 632 373 652 316 652 c 0
228 590 m 1
 336 590 l 2
 359 590 380 581 398 563 c 0
 416 545 424 524 424 501 c 0
 424 480 418 462 408 447 c 0
 398 432 386 421 373 415 c 1
 424 297 l 1
 360 297 l 1
 311 411 l 1
 288 411 l 1
 288 297 l 1
 228 297 l 1
 228 590 l 1
288 531 m 1
 288 471 l 1
 332 471 l 2
 341 471 349 474 355 479 c 0
 361 484 364 492 364 501 c 0
 364 510 361 517 355 522 c 0
 349 527 341 531 332 531 c 2
 288 531 l 1
EndSplineSet
EndChar

StartChar: macron
Encoding: 175 175 108
GlifName: macron
Width: 305
Flags: W
HStem: 580 60<3 303>
VStem: 3 300<580 640>
LayerCount: 2
Fore
SplineSet
3 580 m 1
 3 640 l 1
 303 640 l 1
 303 580 l 1
 3 580 l 1
EndSplineSet
EndChar

StartChar: degree
Encoding: 176 176 109
GlifName: degree
Width: 370
Flags: W
HStem: 453 60<134.037 236.483> 658 59<134.767 236.81>
VStem: 53 60<534.267 635.733> 258 60<534.267 636.388>
LayerCount: 2
Fore
SplineSet
186 717 m 0
 223 717 253 705 279 679 c 0
 305 653 318 622 318 585 c 0
 318 548 305 517 279 491 c 0
 253 465 223 453 186 453 c 0
 149 453 118 465 92 491 c 0
 66 517 53 548 53 585 c 0
 53 622 66 653 92 679 c 0
 118 705 149 717 186 717 c 0
186 658 m 0
 166 658 148 650 134 636 c 0
 120 622 113 605 113 585 c 0
 113 565 120 548 134 534 c 0
 148 520 166 513 186 513 c 0
 206 513 223 520 237 534 c 0
 251 548 258 565 258 585 c 0
 258 605 251 622 237 636 c 0
 223 650 206 658 186 658 c 0
EndSplineSet
EndChar

StartChar: plusminus
Encoding: 177 177 110
GlifName: plusminus
Width: 625
Flags: W
HStem: 0 60<88 538> 312 61<118 283 343 508>
VStem: 283 60<139 312 373 547>
LayerCount: 2
Fore
SplineSet
88 0 m 1
 88 60 l 1
 538 60 l 1
 538 0 l 1
 88 0 l 1
118 312 m 1
 118 373 l 1
 283 373 l 1
 283 547 l 1
 343 547 l 1
 343 373 l 1
 508 373 l 1
 508 312 l 1
 343 312 l 1
 343 139 l 1
 283 139 l 1
 283 312 l 1
 118 312 l 1
EndSplineSet
EndChar

StartChar: uni00B2
Encoding: 178 178 111
GlifName: uni00B_2
Width: 364
Flags: W
HStem: 379 60<121 303> 747 60<117.322 221.337>
VStem: 242 59<630.867 726.697>
LayerCount: 2
Fore
SplineSet
168 807 m 0
 205 807 237 794 263 769 c 0
 289 744 301 712 301 676 c 0
 301 644 286 612 257 581 c 2
 121 439 l 1
 303 439 l 1
 303 379 l 1
 37 379 l 1
 37 439 l 1
 213 622 l 2
 233 643 242 660 242 676 c 0
 242 698 233 715 219 728 c 0
 205 741 189 747 170 747 c 0
 152 747 137 741 124 731 c 0
 111 721 103 708 99 692 c 1
 41 705 l 1
 46 734 61 758 85 778 c 0
 109 798 137 807 168 807 c 0
EndSplineSet
EndChar

StartChar: uni00B3
Encoding: 179 179 112
GlifName: uni00B_3
Width: 359
Flags: W
HStem: 373 60<124.948 238.951> 570 60<147 228.343> 711 21G<61 120> 747 60<126.291 235.495>
VStem: 249 59<646.611 732.033> 260 60<452.704 550.941>
LayerCount: 2
Fore
SplineSet
181 807 m 0xf8
 216 807 246 795 271 773 c 0
 296 751 308 723 308 690 c 0xf8
 308 675 303 660 295 645 c 0
 287 630 274 617 257 603 c 1
 275 591 289 577 300 561 c 0
 313 542 320 522 320 501 c 0
 320 465 306 435 279 410 c 0
 252 385 220 373 182 373 c 0
 154 373 128 380 105 395 c 0
 82 410 64 429 55 452 c 1
 112 472 l 1
 118 460 128 450 141 443 c 0
 154 436 168 433 183 433 c 0
 204 433 223 439 238 452 c 0
 253 465 260 481 260 501 c 0xf4
 260 521 253 539 237 552 c 0
 222 564 205 570 183 570 c 2
 147 570 l 1
 147 630 l 1
 183 630 l 2
 200 630 215 636 229 647 c 0
 242 658 249 673 249 690 c 0
 249 708 242 721 229 731 c 0
 216 741 201 747 182 747 c 0
 166 747 153 744 141 737 c 0
 130 731 122 722 118 711 c 1
 61 730 l 1
 69 752 85 772 107 786 c 0
 129 800 155 807 181 807 c 0xf8
EndSplineSet
EndChar

StartChar: acute
Encoding: 180 180 113
GlifName: acute
Width: 210
Flags: W
HStem: 574 126
VStem: 4 198
LayerCount: 2
Fore
SplineSet
4 574 m 1
 113 700 l 1
 202 700 l 1
 80 574 l 1
 4 574 l 1
EndSplineSet
EndChar

StartChar: mu
Encoding: 181 181 114
GlifName: mu
Width: 559
Flags: W
HStem: -200 21G<63 123> -12 60<197.931 347.502> 0 21G<422 482> 480 20G<63 123 422 482>
VStem: 63 60<-200 63 130.351 500> 422 60<0 63 130.351 500>
LayerCount: 2
Fore
SplineSet
482 500 m 1xdc
 482 0 l 1
 422 0 l 1xbc
 422 63 l 1
 385 13 335 -12 273 -12 c 0
 211 -12 160 13 123 63 c 1
 123 -200 l 1
 63 -200 l 1
 63 500 l 5
 123 500 l 5
 123 232 l 2
 123 175 138 131 166 98 c 0
 194 65 230 48 273 48 c 0
 316 48 351 65 379 98 c 0
 407 131 422 175 422 232 c 2
 422 500 l 1
 482 500 l 1xdc
EndSplineSet
EndChar

StartChar: paragraph
Encoding: 182 182 115
GlifName: paragraph
Width: 536
Flags: W
HStem: 640 60<320 374>
VStem: 33 287<387.962 578.655> 260 60<-84 266> 374 60<-84 640>
LayerCount: 2
Fore
SplineSet
250 700 m 2xd0
 260 700 l 1
 434 700 l 1
 434 -84 l 1
 374 -84 l 1
 374 640 l 1
 320 640 l 1
 320 -84 l 1
 260 -84 l 1
 260 266 l 1xb0
 250 266 l 2
 190 266 138 288 96 330 c 0
 54 372 33 423 33 483 c 0
 33 543 54 595 96 637 c 0
 138 679 190 700 250 700 c 2xd0
EndSplineSet
EndChar

StartChar: periodcentered
Encoding: 183 183 116
GlifName: periodcentered
Width: 257
Flags: W
HStem: 275 92<96.4233 161.577>
VStem: 83 92<282.068 353.577>
LayerCount: 2
Fore
SplineSet
175 321 m 0
 175 308 171 298 162 289 c 0
 153 280 142 275 129 275 c 0
 116 275 105 280 96 289 c 0
 87 298 83 308 83 321 c 0
 83 334 87 345 96 354 c 0
 105 363 116 367 129 367 c 0
 142 367 153 363 162 354 c 0
 171 345 175 334 175 321 c 0
EndSplineSet
EndChar

StartChar: cedilla
Encoding: 184 184 117
GlifName: cedilla
Width: 211
Flags: W
HStem: -210 57<31.1927 146.089>
VStem: 175 57<-124.089 -13.3859>
LayerCount: 2
Fore
SplineSet
187 33 m 1
 217 5 232 -29 232 -70 c 0
 232 -109 218 -142 191 -169 c 0
 164 -196 131 -210 92 -210 c 0
 60 -210 32 -201 7 -181 c 1
 31 -152 44 -137 44 -137 c 5
 58 -147 74 -153 92 -153 c 0
 114 -153 134 -144 150 -128 c 0
 166 -112 175 -92 175 -70 c 0
 175 -54 171 -39 163 -26 c 0
 155 -13 144 -3 130 4 c 1
 187 33 l 1
EndSplineSet
EndChar

StartChar: uni00B9
Encoding: 185 185 118
GlifName: uni00B_9
Width: 287
Flags: W
VStem: 135 60<380 722>
LayerCount: 2
Fore
SplineSet
135 800 m 1
 195 800 l 1
 195 380 l 1
 135 380 l 1
 135 722 l 1
 67 665 l 1
 29 711 l 1
 135 800 l 1
EndSplineSet
EndChar

StartChar: ordmasculine
Encoding: 186 186 119
GlifName: ordmasculine
Width: 370
Flags: W
HStem: 393 60<125.207 246.543> 647 60<126.913 245.695>
VStem: 34 60<485.364 613.277> 277 60<483.572 615.068>
LayerCount: 2
Fore
SplineSet
186 707 m 0
 230 707 266 692 294 662 c 0
 322 632 337 594 337 550 c 0
 337 506 322 468 294 438 c 0
 266 408 230 393 186 393 c 0
 142 393 105 408 77 438 c 0
 49 468 34 506 34 550 c 0
 34 594 49 632 77 662 c 0
 105 692 142 707 186 707 c 0
186 647 m 0
 159 647 137 638 120 619 c 0
 103 600 94 577 94 550 c 0
 94 523 103 499 120 480 c 0
 137 461 159 453 186 453 c 0
 213 453 235 461 252 480 c 0
 269 499 277 523 277 550 c 0
 277 577 269 600 252 619 c 0
 235 638 213 647 186 647 c 0
EndSplineSet
EndChar

StartChar: guillemotright
Encoding: 187 187 120
GlifName: guillemotright
Width: 555
Flags: W
LayerCount: 2
Fore
SplineSet
101 515 m 5
 58 473 l 5
 233 298 l 5
 58 124 l 5
 101 81 l 5
 318 298 l 5
 101 515 l 5
277 515 m 5
 235 473 l 5
 410 298 l 5
 235 124 l 5
 277 81 l 5
 495 298 l 5
 277 515 l 5
EndSplineSet
EndChar

StartChar: onequarter
Encoding: 188 188 121
GlifName: onequarter
Width: 829
Flags: W
HStem: 0 21G<161.176 203.994 676 736> 91 60<557 676 736 805> 680 20G<111.18 195 593.006 635.824>
VStem: 135 60<280 622> 676 60<0 91 151 270>
LayerCount: 2
Fore
SplineSet
617 420 m 1
 671 394 l 1
 557 151 l 1
 676 151 l 1
 676 270 l 1
 736 270 l 1
 736 151 l 1
 805 151 l 1
 805 91 l 1
 736 91 l 1
 736 0 l 1
 676 0 l 1
 676 91 l 1
 491 91 l 1
 491 151 l 1
 617 420 l 1
607 700 m 5
 656 666 l 5
 190 0 l 5
 141 34 l 5
 607 700 l 5
135 700 m 1
 195 700 l 1
 195 280 l 1
 135 280 l 1
 135 622 l 1
 67 565 l 1
 29 611 l 1
 135 700 l 1
EndSplineSet
EndChar

StartChar: onehalf
Encoding: 189 189 122
GlifName: onehalf
Width: 862
Flags: W
HStem: 0 60<619 801> 367 60<615.062 717.726> 680 20G<111.18 195 593.006 635.824>
VStem: 135 60<280 622> 739 60<249.182 347.006>
LayerCount: 2
Fore
SplineSet
666 427 m 0
 703 427 735 414 761 389 c 0
 787 364 799 332 799 296 c 0
 799 264 784 232 755 201 c 2
 619 60 l 1
 801 60 l 1
 801 0 l 1
 535 0 l 1
 535 60 l 1
 711 242 l 2
 731 263 739 280 739 296 c 0
 739 318 731 335 717 348 c 0
 703 361 687 367 668 367 c 0
 650 367 635 362 622 352 c 0
 609 342 601 328 597 312 c 1
 539 325 l 1
 544 354 559 377 583 397 c 0
 607 417 635 427 666 427 c 0
607 700 m 5
 656 666 l 5
 190 0 l 5
 141 34 l 5
 607 700 l 5
135 700 m 1
 195 700 l 1
 195 280 l 1
 135 280 l 1
 135 622 l 1
 67 565 l 1
 29 611 l 1
 135 700 l 1
EndSplineSet
EndChar

StartChar: threequarters
Encoding: 190 190 123
GlifName: threequarters
Width: 901
Flags: W
HStem: 0 21G<233.176 275.994 748 808> 91 60<629 748 808 877> 273 60<124.948 238.951> 470 60<147 228.343> 647 60<126.291 235.495> 680 20G<665.006 707.824>
VStem: 249 59<546.611 632.033> 260 60<352.705 450.928> 748 60<0 91 151 270>
LayerCount: 2
Fore
SplineSet
689 420 m 1xf080
 743 394 l 1
 629 151 l 1
 748 151 l 1
 748 270 l 1
 808 270 l 1
 808 151 l 1
 877 151 l 1
 877 91 l 1
 808 91 l 1
 808 0 l 1
 748 0 l 1
 748 91 l 1
 563 91 l 1
 563 151 l 1
 689 420 l 1xf080
679 700 m 5xf480
 728 666 l 5
 262 0 l 5
 213 34 l 5
 679 700 l 5xf480
181 707 m 0xfa80
 216 707 246 695 271 673 c 0
 296 651 308 623 308 590 c 0xfa80
 308 575 303 560 295 545 c 0
 287 530 274 516 257 502 c 1
 275 490 289 476 300 460 c 0
 313 441 320 422 320 401 c 0
 320 365 306 335 279 310 c 0
 252 285 220 273 182 273 c 0
 154 273 128 280 105 295 c 0
 82 310 64 329 55 352 c 1
 112 372 l 1
 118 360 128 350 141 343 c 0
 154 336 168 333 183 333 c 0
 204 333 223 339 238 352 c 0
 253 365 260 382 260 402 c 0xf980
 260 422 253 439 237 452 c 0
 222 464 205 470 183 470 c 2
 147 470 l 1
 147 530 l 1
 183 530 l 2
 200 530 215 536 229 547 c 0
 242 558 249 573 249 590 c 0
 249 608 242 621 229 631 c 0
 216 641 201 647 182 647 c 0
 166 647 153 644 141 637 c 0
 130 631 122 622 118 611 c 1
 61 630 l 1
 69 652 85 672 107 686 c 0
 129 700 155 707 181 707 c 0xfa80
EndSplineSet
EndChar

StartChar: questiondown
Encoding: 191 191 124
GlifName: questiondown
Width: 456
Flags: W
HStem: -213 60<157.328 308.33> 421 92<220.423 284.577>
VStem: 23 60<-78.6722 71.3795> 207 92<428.378 499.577> 225 60<238.522 316>
LayerCount: 2
Fore
SplineSet
207 467 m 0xf0
 207 480 211 491 220 500 c 0
 229 509 240 513 253 513 c 0
 266 513 276 509 285 500 c 0xe8
 294 491 299 480 299 467 c 0xf0
 299 454 294 444 285 435 c 0xe8
 276 426 266 421 253 421 c 0
 240 421 229 426 220 435 c 0
 211 444 207 454 207 467 c 0xf0
233 -213 m 0
 175 -213 126 -192 85 -151 c 0
 44 -110 23 -61 23 -3 c 0
 23 37 34 73 56 107 c 0
 78 141 107 166 144 184 c 0
 168 196 188 214 203 238 c 0
 218 262 225 288 225 316 c 1
 285 316 l 1
 285 276 274 240 253 206 c 0
 232 172 205 147 169 130 c 0
 143 118 123 99 107 75 c 0
 91 51 83 25 83 -3 c 0
 83 -44 98 -78 128 -108 c 0
 158 -138 192 -153 233 -153 c 0
 267 -153 297 -142 324 -121 c 0
 351 -100 370 -73 378 -40 c 1
 437 -50 l 1
 426 -97 401 -137 363 -167 c 0
 325 -197 282 -213 233 -213 c 0
EndSplineSet
EndChar

StartChar: Agrave
Encoding: 192 192 125
GlifName: A_grave
Width: 607
Flags: W
HStem: 0 21G<13 85.2195 522.78 595> 205 60<174 434> 619 81<233.5 374.5>
LayerCount: 2
Fore
SplineSet
267 744 m 1
 143 871 l 1
 232 871 l 1
 343 744 l 1
 267 744 l 1
174 265 m 1
 434 265 l 1
 304 619 l 1
 174 265 l 1
152 205 m 1
 78 0 l 1
 13 0 l 1
 274 700 l 1
 334 700 l 1
 595 0 l 1
 530 0 l 1
 456 205 l 1
 152 205 l 1
EndSplineSet
EndChar

StartChar: Aacute
Encoding: 193 193 126
GlifName: A_acute
Width: 607
Flags: W
HStem: 0 21G<13 85.2195 522.78 595> 205 60<174 434> 619 81<233.5 374.5>
LayerCount: 2
Fore
SplineSet
174 265 m 1
 434 265 l 1
 304 619 l 1
 174 265 l 1
152 205 m 1
 78 0 l 1
 13 0 l 1
 274 700 l 1
 334 700 l 1
 595 0 l 1
 530 0 l 1
 456 205 l 1
 152 205 l 1
266 744 m 1
 375 870 l 1
 464 870 l 1
 342 744 l 1
 266 744 l 1
EndSplineSet
EndChar

StartChar: Acircumflex
Encoding: 194 194 127
GlifName: A_circumflex
Width: 607
Flags: W
HStem: 0 21G<13 85.2195 522.78 595> 205 60<174 434> 619 81<233.5 374.5> 824 46<258 340>
LayerCount: 2
Fore
SplineSet
138 744 m 1
 258 870 l 1
 340 870 l 1
 460 744 l 1
 378 744 l 1
 299 824 l 5
 220 744 l 1
 138 744 l 1
174 265 m 1
 434 265 l 1
 304 619 l 1
 174 265 l 1
152 205 m 1
 78 0 l 1
 13 0 l 1
 274 700 l 1
 334 700 l 1
 595 0 l 1
 530 0 l 1
 456 205 l 1
 152 205 l 1
EndSplineSet
EndChar

StartChar: Atilde
Encoding: 195 195 128
GlifName: A_tilde
Width: 607
Flags: W
HStem: 0 21G<13 85.2195 522.78 595> 205 60<174 434> 619 81<233.5 374.5> 742 56<323.662 391.975> 814 56<207.584 273.805>
VStem: 143 59<777 809.45> 397 59<801.411 836>
LayerCount: 2
Fore
SplineSet
359 742 m 0
 330 742 306 754 286 778 c 0
 278 787 271 796 264 803 c 0
 257 810 250 814 242 814 c 0
 221 814 208 802 202 777 c 1
 143 777 l 1
 146 803 157 824 176 842 c 0
 195 860 217 870 242 870 c 0
 267 870 290 858 311 834 c 0
 319 825 327 816 334 809 c 0
 341 802 350 798 359 798 c 0
 380 798 393 811 397 836 c 1
 456 836 l 1
 452 809 441 787 423 769 c 0
 405 751 384 742 359 742 c 0
174 265 m 1
 434 265 l 1
 304 619 l 1
 174 265 l 1
152 205 m 1
 78 0 l 1
 13 0 l 1
 274 700 l 1
 334 700 l 1
 595 0 l 1
 530 0 l 1
 456 205 l 1
 152 205 l 1
EndSplineSet
EndChar

StartChar: Adieresis
Encoding: 196 196 129
GlifName: A_dieresis
Width: 607
Flags: W
HStem: 0 21G<13 85.2195 522.78 595> 205 60<174 434> 619 81<233.5 374.5> 800 80<146.376 202.624 387.376 443.624>
VStem: 134 80<812.376 868.624> 376 80<812.376 868.624>
LayerCount: 2
Fore
SplineSet
174 880 m 4
 185 880 195 877 203 869 c 4
 211 861 214 851 214 840 c 4
 214 829 211 820 203 812 c 4
 195 804 185 800 174 800 c 4
 163 800 154 804 146 812 c 4
 138 820 134 829 134 840 c 4
 134 851 138 861 146 869 c 4
 154 877 163 880 174 880 c 4
416 880 m 4
 427 880 436 877 444 869 c 4
 452 861 456 851 456 840 c 4
 456 829 452 820 444 812 c 4
 436 804 427 800 416 800 c 4
 405 800 395 804 387 812 c 4
 379 820 376 829 376 840 c 4
 376 851 379 861 387 869 c 4
 395 877 405 880 416 880 c 4
174 265 m 1
 434 265 l 1
 304 619 l 1
 174 265 l 1
152 205 m 1
 78 0 l 1
 13 0 l 1
 274 700 l 1
 334 700 l 1
 595 0 l 1
 530 0 l 1
 456 205 l 1
 152 205 l 1
EndSplineSet
EndChar

StartChar: Aring
Encoding: 197 197 130
GlifName: A_ring
Width: 607
Flags: W
HStem: 0 21G<13 85.2195 522.78 595> 205 60<174 434> 619 81<233.5 374.5> 733 46<271.667 335.118> 859 45<271.667 335.118>
VStem: 218 46<787.205 850.795> 343 46<787.667 850.333>
LayerCount: 2
Fore
SplineSet
303 904 m 0
 326 904 347 896 364 879 c 0
 381 862 389 842 389 819 c 0
 389 796 381 776 364 759 c 0
 347 742 326 733 303 733 c 0
 280 733 260 742 243 759 c 0
 226 776 218 796 218 819 c 0
 218 842 226 862 243 879 c 0
 260 896 280 904 303 904 c 0
303 859 m 0
 292 859 283 855 275 847 c 0
 267 839 264 830 264 819 c 0
 264 808 267 799 275 791 c 0
 283 783 292 779 303 779 c 0
 314 779 324 783 332 791 c 0
 340 799 343 808 343 819 c 0
 343 830 340 839 332 847 c 0
 324 855 314 859 303 859 c 0
174 265 m 1
 434 265 l 1
 304 619 l 1
 174 265 l 1
152 205 m 1
 78 0 l 1
 13 0 l 1
 274 700 l 1
 334 700 l 1
 595 0 l 1
 530 0 l 1
 456 205 l 1
 152 205 l 1
EndSplineSet
EndChar

StartChar: AE
Encoding: 198 198 131
GlifName: A_E_
Width: 1000
Flags: W
HStem: 0 60<563 906> 205 60<271 503> 331 60<563 842> 640 60<563 906>
VStem: 503 60<60 205 265 331 391 596>
LayerCount: 2
Fore
SplineSet
503 700 m 1
 906 700 l 1
 906 640 l 1
 563 640 l 1
 563 391 l 1
 842 391 l 1
 842 331 l 1
 563 331 l 1
 563 60 l 1
 906 60 l 1
 906 0 l 1
 503 0 l 1
 503 205 l 1
 229 205 l 1
 85 0 l 1
 11 0 l 1
 503 700 l 1
503 596 m 1
 271 265 l 1
 503 265 l 1
 503 596 l 1
EndSplineSet
EndChar

StartChar: Ccedilla
Encoding: 199 199 132
GlifName: C_cedilla
Width: 683
Flags: W
HStem: -210 57<291.193 406.089> -12 60<282.675 400.584> 652 60<282.675 500.227>
VStem: 53 60<230.064 469.936> 435 57<-124.089 -14.7037>
LayerCount: 2
Fore
SplineSet
447 33 m 1
 477 5 492 -29 492 -70 c 0
 492 -109 478 -142 451 -169 c 0
 424 -196 391 -210 352 -210 c 0
 320 -210 292 -201 267 -181 c 1
 291 -152 304 -137 304 -137 c 5
 318 -147 334 -153 352 -153 c 0
 374 -153 394 -144 410 -128 c 0
 426 -112 435 -92 435 -70 c 0
 435 -54 430 -39 422 -26 c 0
 414 -13 404 -3 390 4 c 1
 447 33 l 1
392 712 m 0
 442 712 489 703 531 683 c 0
 573 663 610 636 641 600 c 1
 598 556 l 1
 544 620 476 652 392 652 c 0
 311 652 244 623 192 564 c 0
 140 505 113 434 113 350 c 0
 113 266 140 195 192 136 c 0
 244 77 311 48 392 48 c 0
 476 48 544 80 598 144 c 1
 641 101 l 1
 610 65 573 38 531 18 c 0
 489 -2 442 -12 392 -12 c 0
 293 -12 212 23 149 93 c 0
 86 163 53 248 53 350 c 0
 53 452 86 537 149 607 c 0
 212 677 293 712 392 712 c 0
EndSplineSet
EndChar

StartChar: Egrave
Encoding: 200 200 133
GlifName: E_grave
Width: 598
Flags: W
HStem: 0 60<163 506> 329 60<163 442> 640 60<163 506>
VStem: 103 60<60 329 389 640>
LayerCount: 2
Fore
SplineSet
275 744 m 1
 151 871 l 1
 240 871 l 1
 351 744 l 1
 275 744 l 1
103 0 m 1
 103 700 l 1
 506 700 l 1
 506 640 l 1
 163 640 l 1
 163 389 l 1
 442 389 l 1
 442 329 l 1
 163 329 l 1
 163 60 l 1
 506 60 l 1
 506 0 l 1
 103 0 l 1
EndSplineSet
EndChar

StartChar: Eacute
Encoding: 201 201 134
GlifName: E_acute
Width: 598
Flags: W
HStem: 0 60<163 506> 329 60<163 442> 640 60<163 506>
VStem: 103 60<60 329 389 640>
LayerCount: 2
Fore
SplineSet
103 0 m 1
 103 700 l 1
 506 700 l 1
 506 640 l 1
 163 640 l 1
 163 389 l 1
 442 389 l 1
 442 329 l 1
 163 329 l 1
 163 60 l 1
 506 60 l 1
 506 0 l 1
 103 0 l 1
260 744 m 1
 369 870 l 1
 458 870 l 1
 336 744 l 1
 260 744 l 1
EndSplineSet
EndChar

StartChar: Ecircumflex
Encoding: 202 202 135
GlifName: E_circumflex
Width: 598
Flags: W
HStem: 0 60<163 506> 329 60<163 442> 640 60<163 506> 824 46<269 351>
VStem: 103 60<60 329 389 640>
LayerCount: 2
Fore
SplineSet
149 744 m 1
 269 870 l 1
 351 870 l 1
 471 744 l 1
 389 744 l 1
 310 824 l 5
 231 744 l 1
 149 744 l 1
103 0 m 1
 103 700 l 1
 506 700 l 1
 506 640 l 1
 163 640 l 1
 163 389 l 1
 442 389 l 1
 442 329 l 1
 163 329 l 1
 163 60 l 1
 506 60 l 1
 506 0 l 1
 103 0 l 1
EndSplineSet
EndChar

StartChar: Edieresis
Encoding: 203 203 136
GlifName: E_dieresis
Width: 598
Flags: W
HStem: 0 60<163 506> 329 60<163 442> 640 60<163 506> 800 80<162.376 217.624 403.376 460.624>
VStem: 103 60<60 329 389 640> 150 80<804.456 868.624> 392 80<812.376 868.624>
LayerCount: 2
Fore
SplineSet
190 880 m 4xf6
 201 880 210 877 218 869 c 4
 226 861 230 851 230 840 c 4
 230 829 226 820 218 812 c 4
 210 804 201 800 190 800 c 4
 179 800 170 804 162 812 c 4
 154 820 150 829 150 840 c 4
 150 851 154 861 162 869 c 4
 170 877 179 880 190 880 c 4xf6
432 880 m 4
 443 880 453 877 461 869 c 4
 469 861 472 851 472 840 c 4
 472 829 469 820 461 812 c 4
 453 804 443 800 432 800 c 4
 421 800 411 804 403 812 c 4
 395 820 392 829 392 840 c 4
 392 851 395 861 403 869 c 4
 411 877 421 880 432 880 c 4
103 0 m 1xfa
 103 700 l 1
 506 700 l 1
 506 640 l 1
 163 640 l 1
 163 389 l 1
 442 389 l 1
 442 329 l 1
 163 329 l 1
 163 60 l 1
 506 60 l 1
 506 0 l 1
 103 0 l 1xfa
EndSplineSet
EndChar

StartChar: Igrave
Encoding: 204 204 137
GlifName: I_grave
Width: 265
Flags: W
HStem: 0 21G<103 163> 680 20G<103 163>
VStem: 103 60<0 700>
LayerCount: 2
Fore
SplineSet
100 744 m 1
 -24 871 l 1
 65 871 l 1
 176 744 l 1
 100 744 l 1
103 0 m 1
 103 700 l 1
 163 700 l 1
 163 0 l 1
 103 0 l 1
EndSplineSet
EndChar

StartChar: Iacute
Encoding: 205 205 138
GlifName: I_acute
Width: 265
Flags: W
HStem: 0 21G<103 163> 680 20G<103 163>
VStem: 103 60<0 700>
LayerCount: 2
Fore
SplineSet
103 0 m 1
 103 700 l 1
 163 700 l 1
 163 0 l 1
 103 0 l 1
94 740 m 1
 203 866 l 1
 292 866 l 1
 170 740 l 1
 94 740 l 1
EndSplineSet
EndChar

StartChar: Icircumflex
Encoding: 206 206 139
GlifName: I_circumflex
Width: 265
Flags: W
HStem: 0 21G<103 163> 680 20G<103 163> 824 46<91 173>
VStem: 103 60<0 700>
LayerCount: 2
Fore
SplineSet
-29 744 m 1
 91 870 l 1
 173 870 l 1
 293 744 l 1
 211 744 l 1
 132 824 l 5
 53 744 l 1
 -29 744 l 1
103 0 m 1
 103 700 l 1
 163 700 l 1
 163 0 l 1
 103 0 l 1
EndSplineSet
EndChar

StartChar: Idieresis
Encoding: 207 207 140
GlifName: I_dieresis
Width: 265
Flags: W
HStem: 0 21G<103 163> 680 20G<103 163> 800 80<32.3765 88.6243 172.376 229.624>
VStem: 21 80<812.376 868.624> 103 60<0 700> 161 80<812.376 868.624>
LayerCount: 2
Fore
SplineSet
103 0 m 1xf8
 103 700 l 1
 163 700 l 1
 163 0 l 1
 103 0 l 1xf8
61 880 m 0
 72 880 81 877 89 869 c 0
 97 861 101 851 101 840 c 0
 101 829 97 820 89 812 c 0
 81 804 72 800 61 800 c 0
 50 800 40 804 32 812 c 0
 24 820 21 829 21 840 c 0
 21 851 24 861 32 869 c 0
 40 877 50 880 61 880 c 0
201 880 m 0
 212 880 222 877 230 869 c 0
 238 861 241 851 241 840 c 0
 241 829 238 820 230 812 c 0
 222 804 212 800 201 800 c 0
 190 800 180 804 172 812 c 0
 164 820 161 829 161 840 c 0xf4
 161 851 164 861 172 869 c 0
 180 877 190 880 201 880 c 0
EndSplineSet
EndChar

StartChar: Eth
Encoding: 208 208 141
GlifName: E_th
Width: 688
Flags: W
HStem: 0 60<163 396.859> 319 60<53 301> 640 60<163 396.859>
VStem: 103 60<60 640> 576 60<239.008 461.173>
LayerCount: 2
Fore
SplineSet
286 640 m 2
 163 640 l 1
 163 60 l 1
 286 60 l 2
 366 60 434 88 491 145 c 0
 548 202 576 270 576 350 c 0
 576 430 548 498 491 555 c 0
 434 612 366 640 286 640 c 2
286 700 m 2
 383 700 465 666 533 598 c 0
 601 530 636 447 636 350 c 0
 636 253 601 171 533 103 c 0
 465 35 383 0 286 0 c 2
 103 0 l 1
 103 700 l 1
 286 700 l 2
53 319 m 1
 53 379 l 1
 301 379 l 1
 301 319 l 1
 53 319 l 1
EndSplineSet
EndChar

StartChar: Ntilde
Encoding: 209 209 142
GlifName: N_tilde
Width: 739
Flags: W
HStem: 0 21G<103 163 563.061 637> 680 20G<103 176.939 577 637> 742 56<389.662 457.975> 814 56<273.584 339.805>
VStem: 103 60<0 594> 209 59<777 809.45> 463 59<801.411 836> 577 60<106 700>
LayerCount: 2
Fore
SplineSet
425 742 m 0
 396 742 372 754 352 778 c 0
 344 787 337 796 330 803 c 0
 323 810 316 814 308 814 c 0
 287 814 274 802 268 777 c 1
 209 777 l 1
 212 803 223 824 242 842 c 0
 261 860 283 870 308 870 c 0
 333 870 356 858 377 834 c 0
 385 825 393 816 400 809 c 0
 407 802 416 798 425 798 c 0
 446 798 459 811 463 836 c 1
 522 836 l 1
 518 809 507 787 489 769 c 0
 471 751 450 742 425 742 c 0
103 700 m 1
 163 700 l 1
 577 106 l 1
 577 700 l 1
 637 700 l 1
 637 0 l 1
 577 0 l 1
 163 594 l 1
 163 0 l 1
 103 0 l 1
 103 700 l 1
EndSplineSet
EndChar

StartChar: Ograve
Encoding: 210 210 143
GlifName: O_grave
Width: 781
Flags: W
HStem: -12 60<281.675 500.075> 652 60<281.675 500.075>
VStem: 53 60<230.064 469.936> 669 60<230.064 469.936>
LayerCount: 2
Fore
SplineSet
360 744 m 1
 236 871 l 1
 325 871 l 1
 436 744 l 1
 360 744 l 1
391 652 m 0
 310 652 243 623 191 564 c 0
 139 505 113 434 113 350 c 0
 113 266 139 195 191 136 c 0
 243 77 310 48 391 48 c 0
 472 48 538 77 590 136 c 0
 642 195 669 266 669 350 c 0
 669 434 642 505 590 564 c 0
 538 623 472 652 391 652 c 0
391 712 m 0
 490 712 571 677 634 607 c 0
 697 537 729 452 729 350 c 0
 729 248 697 163 634 93 c 0
 571 23 490 -12 391 -12 c 0
 292 -12 211 23 148 93 c 0
 85 163 53 248 53 350 c 0
 53 452 85 537 148 607 c 0
 211 677 292 712 391 712 c 0
EndSplineSet
EndChar

StartChar: Oacute
Encoding: 211 211 144
GlifName: O_acute
Width: 781
Flags: W
HStem: -12 60<281.675 500.075> 652 60<281.675 500.075>
VStem: 53 60<230.064 469.936> 669 60<230.064 469.936>
LayerCount: 2
Fore
SplineSet
391 652 m 0
 310 652 243 623 191 564 c 0
 139 505 113 434 113 350 c 0
 113 266 139 195 191 136 c 0
 243 77 310 48 391 48 c 0
 472 48 538 77 590 136 c 0
 642 195 669 266 669 350 c 0
 669 434 642 505 590 564 c 0
 538 623 472 652 391 652 c 0
391 712 m 0
 490 712 571 677 634 607 c 0
 697 537 729 452 729 350 c 0
 729 248 697 163 634 93 c 0
 571 23 490 -12 391 -12 c 0
 292 -12 211 23 148 93 c 0
 85 163 53 248 53 350 c 0
 53 452 85 537 148 607 c 0
 211 677 292 712 391 712 c 0
355 740 m 1
 464 866 l 1
 553 866 l 1
 431 740 l 1
 355 740 l 1
EndSplineSet
EndChar

StartChar: Ocircumflex
Encoding: 212 212 145
GlifName: O_circumflex
Width: 781
Flags: W
HStem: -12 60<281.675 500.075> 652 60<281.675 500.075> 824 46<351 433>
VStem: 53 60<230.064 469.936> 669 60<230.064 469.936>
LayerCount: 2
Fore
SplineSet
231 744 m 1
 351 870 l 1
 433 870 l 1
 553 744 l 1
 471 744 l 1
 392 824 l 5
 313 744 l 1
 231 744 l 1
391 652 m 0
 310 652 243 623 191 564 c 0
 139 505 113 434 113 350 c 0
 113 266 139 195 191 136 c 0
 243 77 310 48 391 48 c 0
 472 48 538 77 590 136 c 0
 642 195 669 266 669 350 c 0
 669 434 642 505 590 564 c 0
 538 623 472 652 391 652 c 0
391 712 m 0
 490 712 571 677 634 607 c 0
 697 537 729 452 729 350 c 0
 729 248 697 163 634 93 c 0
 571 23 490 -12 391 -12 c 0
 292 -12 211 23 148 93 c 0
 85 163 53 248 53 350 c 0
 53 452 85 537 148 607 c 0
 211 677 292 712 391 712 c 0
EndSplineSet
EndChar

StartChar: Otilde
Encoding: 213 213 146
GlifName: O_tilde
Width: 781
Flags: W
HStem: -12 60<281.675 500.075> 652 60<281.675 500.075> 742 56<420.054 488.202> 814 56<303.584 369.033>
VStem: 53 60<230.064 469.936> 239 59<777 809.45> 493 59<801.411 836> 669 60<230.064 469.936>
LayerCount: 2
Fore
SplineSet
455 742 m 0
 426 742 401 754 381 778 c 0
 373 787 367 796 360 803 c 0
 353 810 346 814 338 814 c 0
 317 814 304 802 298 777 c 1
 239 777 l 1
 242 803 253 824 272 842 c 0
 291 860 313 870 338 870 c 0
 363 870 386 858 407 834 c 0
 415 825 423 816 430 809 c 0
 437 802 446 798 455 798 c 0
 476 798 489 811 493 836 c 1
 552 836 l 1
 548 809 538 787 520 769 c 0
 502 751 480 742 455 742 c 0
391 652 m 0
 310 652 243 623 191 564 c 0
 139 505 113 434 113 350 c 0
 113 266 139 195 191 136 c 0
 243 77 310 48 391 48 c 0
 472 48 538 77 590 136 c 0
 642 195 669 266 669 350 c 0
 669 434 642 505 590 564 c 0
 538 623 472 652 391 652 c 0
391 712 m 0
 490 712 571 677 634 607 c 0
 697 537 729 452 729 350 c 0
 729 248 697 163 634 93 c 0
 571 23 490 -12 391 -12 c 0
 292 -12 211 23 148 93 c 0
 85 163 53 248 53 350 c 0
 53 452 85 537 148 607 c 0
 211 677 292 712 391 712 c 0
EndSplineSet
EndChar

StartChar: Odieresis
Encoding: 214 214 147
GlifName: O_dieresis
Width: 781
Flags: W
HStem: -12 60<281.675 500.075> 652 60<281.675 500.075> 800 80<244.376 299.624 485.376 542.624>
VStem: 53 60<230.064 469.936> 232 80<804.456 868.624> 474 80<812.376 868.624> 669 60<230.064 469.936>
LayerCount: 2
Fore
SplineSet
272 880 m 4
 283 880 292 877 300 869 c 4
 308 861 312 851 312 840 c 4
 312 829 308 820 300 812 c 4
 292 804 283 800 272 800 c 4
 261 800 252 804 244 812 c 4
 236 820 232 829 232 840 c 4
 232 851 236 861 244 869 c 4
 252 877 261 880 272 880 c 4
514 880 m 4
 525 880 535 877 543 869 c 4
 551 861 554 851 554 840 c 4
 554 829 551 820 543 812 c 4
 535 804 525 800 514 800 c 4
 503 800 493 804 485 812 c 4
 477 820 474 829 474 840 c 4
 474 851 477 861 485 869 c 4
 493 877 503 880 514 880 c 4
391 652 m 0
 310 652 243 623 191 564 c 0
 139 505 113 434 113 350 c 0
 113 266 139 195 191 136 c 0
 243 77 310 48 391 48 c 0
 472 48 538 77 590 136 c 0
 642 195 669 266 669 350 c 0
 669 434 642 505 590 564 c 0
 538 623 472 652 391 652 c 0
391 712 m 0
 490 712 571 677 634 607 c 0
 697 537 729 452 729 350 c 0
 729 248 697 163 634 93 c 0
 571 23 490 -12 391 -12 c 0
 292 -12 211 23 148 93 c 0
 85 163 53 248 53 350 c 0
 53 452 85 537 148 607 c 0
 211 677 292 712 391 712 c 0
EndSplineSet
EndChar

StartChar: multiply
Encoding: 215 215 148
GlifName: multiply
Width: 625
Flags: W
HStem: 254 85<271.5 356.5>
VStem: 272 85<253.5 338.5>
LayerCount: 2
Fore
SplineSet
166 106 m 1
 124 148 l 1
 272 296 l 1
 124 444 l 1
 166 487 l 1
 314 339 l 1
 462 487 l 1
 505 444 l 1
 357 296 l 1
 505 148 l 1
 462 106 l 1
 314 254 l 1
 166 106 l 1
EndSplineSet
EndChar

StartChar: Oslash
Encoding: 216 216 149
GlifName: O_slash
Width: 781
Flags: W
HStem: -12 60<284.675 503.075> 652 60<284.675 503.075>
VStem: 56 60<230.064 469.936> 672 60<230.064 469.936>
LayerCount: 2
Fore
SplineSet
394 652 m 0
 313 652 246 623 194 564 c 0
 142 505 116 434 116 350 c 0
 116 266 142 195 194 136 c 0
 246 77 313 48 394 48 c 0
 475 48 541 77 593 136 c 0
 645 195 672 266 672 350 c 0
 672 434 645 505 593 564 c 0
 541 623 475 652 394 652 c 0
394 712 m 0
 493 712 574 677 637 607 c 0
 700 537 732 452 732 350 c 0
 732 248 700 163 637 93 c 0
 574 23 493 -12 394 -12 c 0
 295 -12 214 23 151 93 c 0
 88 163 56 248 56 350 c 0
 56 452 88 537 151 607 c 0
 214 677 295 712 394 712 c 0
130 -11 m 5
 85 28 l 1
 657 711 l 1
 704 672 l 1
 130 -11 l 5
EndSplineSet
EndChar

StartChar: Ugrave
Encoding: 217 217 150
GlifName: U_grave
Width: 714
Flags: W
HStem: -12 60<267.4 447.1> 680 20G<93 153 562 622>
VStem: 93 60<170.003 700> 562 60<170.003 700>
LayerCount: 2
Fore
SplineSet
321 744 m 1
 197 871 l 1
 286 871 l 1
 397 744 l 1
 321 744 l 1
93 700 m 1
 153 700 l 1
 153 283 l 2
 153 213 172 156 212 113 c 0
 252 70 299 48 357 48 c 0
 415 48 463 70 503 113 c 0
 543 156 562 213 562 283 c 2
 562 700 l 1
 622 700 l 1
 622 283 l 2
 622 195 596 123 546 69 c 0
 496 15 433 -12 357 -12 c 0
 281 -12 219 15 169 69 c 0
 119 123 93 195 93 283 c 2
 93 700 l 1
EndSplineSet
EndChar

StartChar: Uacute
Encoding: 218 218 151
GlifName: U_acute
Width: 714
Flags: W
HStem: -12 60<267.4 447.1> 680 20G<93 153 562 622>
VStem: 93 60<170.003 700> 562 60<170.003 700>
LayerCount: 2
Fore
SplineSet
314 744 m 1
 423 870 l 1
 512 870 l 1
 390 744 l 1
 314 744 l 1
93 700 m 1
 153 700 l 1
 153 283 l 2
 153 213 172 156 212 113 c 0
 252 70 299 48 357 48 c 0
 415 48 463 70 503 113 c 0
 543 156 562 213 562 283 c 2
 562 700 l 1
 622 700 l 1
 622 283 l 2
 622 195 596 123 546 69 c 0
 496 15 433 -12 357 -12 c 0
 281 -12 219 15 169 69 c 0
 119 123 93 195 93 283 c 2
 93 700 l 1
EndSplineSet
EndChar

StartChar: Ucircumflex
Encoding: 219 219 152
GlifName: U_circumflex
Width: 714
Flags: W
HStem: -12 60<267.4 447.1> 680 20G<93 153 562 622> 824 46<317 399>
VStem: 93 60<170.003 700> 562 60<170.003 700>
LayerCount: 2
Fore
SplineSet
197 744 m 1
 317 870 l 1
 399 870 l 1
 519 744 l 1
 437 744 l 1
 358 824 l 5
 279 744 l 1
 197 744 l 1
93 700 m 1
 153 700 l 1
 153 283 l 2
 153 213 172 156 212 113 c 0
 252 70 299 48 357 48 c 0
 415 48 463 70 503 113 c 0
 543 156 562 213 562 283 c 2
 562 700 l 1
 622 700 l 1
 622 283 l 2
 622 195 596 123 546 69 c 0
 496 15 433 -12 357 -12 c 0
 281 -12 219 15 169 69 c 0
 119 123 93 195 93 283 c 2
 93 700 l 1
EndSplineSet
EndChar

StartChar: Udieresis
Encoding: 220 220 153
GlifName: U_dieresis
Width: 714
Flags: W
HStem: -12 60<267.4 447.1> 680 20G<93 153 562 622> 800 80<199.376 255.624 441.376 498.624>
VStem: 93 60<170.003 700> 188 80<812.376 868.624> 430 80<812.376 868.624> 562 60<170.003 700>
LayerCount: 2
Fore
SplineSet
228 880 m 4
 239 880 248 877 256 869 c 4
 264 861 268 851 268 840 c 4
 268 829 264 820 256 812 c 4
 248 804 239 800 228 800 c 4
 217 800 207 804 199 812 c 4
 191 820 188 829 188 840 c 4
 188 851 191 861 199 869 c 4
 207 877 217 880 228 880 c 4
470 880 m 4
 481 880 491 877 499 869 c 4
 507 861 510 851 510 840 c 4
 510 829 507 820 499 812 c 4
 491 804 481 800 470 800 c 4
 459 800 449 804 441 812 c 4
 433 820 430 829 430 840 c 4
 430 851 433 861 441 869 c 4
 449 877 459 880 470 880 c 4
93 700 m 1
 153 700 l 1
 153 283 l 2
 153 213 172 156 212 113 c 0
 252 70 299 48 357 48 c 0
 415 48 463 70 503 113 c 0
 543 156 562 213 562 283 c 2
 562 700 l 1
 622 700 l 1
 622 283 l 2
 622 195 596 123 546 69 c 0
 496 15 433 -12 357 -12 c 0
 281 -12 219 15 169 69 c 0
 119 123 93 195 93 283 c 2
 93 700 l 1
EndSplineSet
EndChar

StartChar: Yacute
Encoding: 221 221 154
GlifName: Y_acute
Width: 531
Flags: W
HStem: 0 21G<236 296> 680 20G<13 95.7419 436.258 519>
VStem: 236 60<0 321>
LayerCount: 2
Fore
SplineSet
212 744 m 1
 321 870 l 1
 411 870 l 1
 289 744 l 1
 212 744 l 1
13 700 m 1
 84 700 l 1
 266 390 l 1
 448 700 l 1
 519 700 l 1
 296 321 l 5
 296 0 l 1
 236 0 l 1
 236 321 l 1
 13 700 l 1
EndSplineSet
EndChar

StartChar: Thorn
Encoding: 222 222 155
GlifName: T_horn
Width: 575
Flags: W
HStem: 1 21G<103 163> 144 60<163 404.896> 518 60<163 404.896> 681 20G<103 163>
VStem: 103 60<1 144 204 518 578 701> 483 60<281.689 440.538>
LayerCount: 2
Fore
SplineSet
103 701 m 1
 163 701 l 1
 163 578 l 1
 326 578 l 2
 386 578 438 557 480 515 c 0
 522 473 543 421 543 361 c 0
 543 301 522 250 480 208 c 0
 438 166 386 144 326 144 c 2
 163 144 l 1
 163 1 l 1
 103 1 l 1
 103 701 l 1
163 518 m 1
 163 204 l 1
 326 204 l 2
 369 204 406 219 437 250 c 0
 468 281 483 318 483 361 c 0
 483 404 468 441 437 472 c 0
 406 503 369 518 326 518 c 2
 163 518 l 1
EndSplineSet
EndChar

StartChar: germandbls
Encoding: 223 223 156
GlifName: germandbls
Width: 556
Flags: W
HStem: 0 60<242 374.701> 327 60<247 364.332> 652 60<202.484 359.266>
VStem: 78 60<0 588.361> 424 60<446.063 589.107> 444 60<125.329 261.8>
LayerCount: 2
Fore
SplineSet
281 712 m 0xf8
 337 712 384 693 424 655 c 0
 464 617 484 572 484 519 c 0xf8
 484 486 476 456 461 428 c 0
 446 400 426 378 400 360 c 1
 432 343 457 319 476 290 c 0
 495 261 504 228 504 193 c 0
 504 140 483 95 441 57 c 0
 399 19 350 0 291 0 c 2
 242 0 l 1
 242 60 l 1
 291 60 l 2
 333 60 369 73 399 99 c 0
 429 125 444 156 444 193 c 0xf4
 444 230 429 262 399 288 c 0
 369 314 333 327 291 327 c 2
 247 327 l 1
 247 387 l 1
 291 387 l 2
 328 387 359 399 385 425 c 0
 411 451 424 482 424 519 c 0
 424 556 410 587 382 613 c 0
 354 639 321 652 281 652 c 0
 241 652 208 639 180 613 c 0
 152 587 138 556 138 519 c 2
 138 0 l 1
 78 0 l 1
 78 519 l 2
 78 572 97 617 137 655 c 0
 177 693 225 712 281 712 c 0xf8
EndSplineSet
EndChar

StartChar: agrave
Encoding: 224 224 157
GlifName: agrave
Width: 608
Flags: W
HStem: -12 60<203.894 378.714> 0 21G<471 531> 452 60<203.894 378.714> 480 20G<471 531> 681 20G<159 265.48>
VStem: 48 60<150.537 349.463> 471 60<0 85 149.177 350.823 415 500>
LayerCount: 2
Fore
SplineSet
283 574 m 1x0e
 159 701 l 1
 248 701 l 1
 359 574 l 1
 283 574 l 1x0e
471 500 m 1x1e
 531 500 l 1
 531 0 l 1
 471 0 l 1x5e
 471 85 l 1
 466 77 461 69 455 62 c 0
 416 13 363 -12 293 -12 c 0
 222 -12 163 13 117 64 c 0
 71 115 48 177 48 250 c 0
 48 323 71 385 117 436 c 0
 163 487 222 512 293 512 c 0xae
 363 512 416 487 455 438 c 0
 461 431 466 423 471 415 c 1
 471 500 l 1x1e
293 452 m 0xae
 238 452 193 433 159 394 c 0
 125 355 108 307 108 250 c 0
 108 193 125 145 159 106 c 0
 193 67 238 48 293 48 c 0
 347 48 390 67 422 106 c 0
 454 145 471 192 471 250 c 0
 471 308 454 355 422 394 c 0
 390 433 347 452 293 452 c 0xae
EndSplineSet
EndChar

StartChar: aacute
Encoding: 225 225 158
GlifName: aacute
Width: 608
Flags: W
HStem: -12 60<203.894 378.714> 0 21G<471 531> 452 60<203.894 378.714> 480 20G<471 531> 680 20G<365.698 472>
VStem: 48 60<150.537 349.463> 471 60<0 85 149.177 350.823 415 500>
LayerCount: 2
Fore
SplineSet
274 574 m 1x0e
 383 700 l 1
 472 700 l 1
 350 574 l 1
 274 574 l 1x0e
471 500 m 1x1e
 531 500 l 1
 531 0 l 1
 471 0 l 1x5e
 471 85 l 1
 466 77 461 69 455 62 c 0
 416 13 363 -12 293 -12 c 0
 222 -12 163 13 117 64 c 0
 71 115 48 177 48 250 c 0
 48 323 71 385 117 436 c 0
 163 487 222 512 293 512 c 0xae
 363 512 416 487 455 438 c 0
 461 431 466 423 471 415 c 1
 471 500 l 1x1e
293 452 m 0xae
 238 452 193 433 159 394 c 0
 125 355 108 307 108 250 c 0
 108 193 125 145 159 106 c 0
 193 67 238 48 293 48 c 0
 347 48 390 67 422 106 c 0
 454 145 471 192 471 250 c 0
 471 308 454 355 422 394 c 0
 390 433 347 452 293 452 c 0xae
EndSplineSet
EndChar

StartChar: acircumflex
Encoding: 226 226 159
GlifName: acircumflex
Width: 608
Flags: W
HStem: -12 60<203.894 378.714> 0 21G<471 531> 452 60<203.894 378.714> 480 20G<471 531> 654 46<264 346>
VStem: 48 60<150.537 349.463> 471 60<0 85 149.177 350.823 415 500>
LayerCount: 2
Fore
SplineSet
144 574 m 1x0e
 264 700 l 1
 346 700 l 1
 466 574 l 1
 384 574 l 1
 305 654 l 5
 226 574 l 1
 144 574 l 1x0e
471 500 m 1x1e
 531 500 l 1
 531 0 l 1
 471 0 l 1x5e
 471 85 l 1
 466 77 461 69 455 62 c 0
 416 13 363 -12 293 -12 c 0
 222 -12 163 13 117 64 c 0
 71 115 48 177 48 250 c 0
 48 323 71 385 117 436 c 0
 163 487 222 512 293 512 c 0xae
 363 512 416 487 455 438 c 0
 461 431 466 423 471 415 c 1
 471 500 l 1x1e
293 452 m 0xae
 238 452 193 433 159 394 c 0
 125 355 108 307 108 250 c 0
 108 193 125 145 159 106 c 0
 193 67 238 48 293 48 c 0
 347 48 390 67 422 106 c 0
 454 145 471 192 471 250 c 0
 471 308 454 355 422 394 c 0
 390 433 347 452 293 452 c 0xae
EndSplineSet
EndChar

StartChar: atilde
Encoding: 227 227 160
GlifName: atilde
Width: 608
Flags: W
HStem: -12 60<203.894 378.714> 0 21G<471 531> 452 60<203.894 378.714> 480 20G<471 531> 572 56<324.662 392.975> 644 56<208.584 274.805>
VStem: 48 60<150.537 349.463> 144 59<607 639.45> 398 59<631.411 666> 471 60<0 85 149.177 350.823 415 500>
LayerCount: 2
Fore
SplineSet
360 572 m 0x0fc0
 331 572 307 584 287 608 c 0
 279 617 272 626 265 633 c 0
 258 640 251 644 243 644 c 0
 222 644 209 632 203 607 c 1
 144 607 l 1
 147 633 158 654 177 672 c 0
 196 690 218 700 243 700 c 0
 268 700 291 688 312 664 c 0
 320 655 328 646 335 639 c 0
 342 632 351 628 360 628 c 0
 381 628 394 641 398 666 c 1
 457 666 l 1
 453 639 442 617 424 599 c 0
 406 581 385 572 360 572 c 0x0fc0
471 500 m 1x1fc0
 531 500 l 1
 531 0 l 1
 471 0 l 1x5fc0
 471 85 l 1
 466 77 461 69 455 62 c 0
 416 13 363 -12 293 -12 c 0
 222 -12 163 13 117 64 c 0
 71 115 48 177 48 250 c 0
 48 323 71 385 117 436 c 0
 163 487 222 512 293 512 c 0xafc0
 363 512 416 487 455 438 c 0
 461 431 466 423 471 415 c 1
 471 500 l 1x1fc0
293 452 m 0xafc0
 238 452 193 433 159 394 c 0
 125 355 108 307 108 250 c 0
 108 193 125 145 159 106 c 0
 193 67 238 48 293 48 c 0
 347 48 390 67 422 106 c 0
 454 145 471 192 471 250 c 0
 471 308 454 355 422 394 c 0
 390 433 347 452 293 452 c 0xafc0
EndSplineSet
EndChar

StartChar: adieresis
Encoding: 228 228 161
GlifName: adieresis
Width: 608
Flags: W
HStem: -12 60<203.894 378.714> 0 21G<471 531> 452 60<203.894 378.714> 480 20G<471 531> 630 80<156.376 212.624 399.376 455.624>
VStem: 48 60<150.537 349.463> 145 80<642.376 698.624> 387 80<642.376 698.624> 471 60<0 85 149.177 350.823 415 500>
LayerCount: 2
Fore
SplineSet
185 710 m 4x0f80
 196 710 205 707 213 699 c 4
 221 691 225 681 225 670 c 4
 225 659 221 650 213 642 c 4
 205 634 196 630 185 630 c 4
 174 630 164 634 156 642 c 4
 148 650 145 659 145 670 c 4
 145 681 148 691 156 699 c 4
 164 707 174 710 185 710 c 4x0f80
427 710 m 4
 438 710 448 707 456 699 c 4
 464 691 467 681 467 670 c 4
 467 659 464 650 456 642 c 4
 448 634 438 630 427 630 c 4
 416 630 407 634 399 642 c 4
 391 650 387 659 387 670 c 4
 387 681 391 691 399 699 c 4
 407 707 416 710 427 710 c 4
471 500 m 1x1f80
 531 500 l 1
 531 0 l 1
 471 0 l 1x5f80
 471 85 l 1
 466 77 461 69 455 62 c 0
 416 13 363 -12 293 -12 c 0
 222 -12 163 13 117 64 c 0
 71 115 48 177 48 250 c 0
 48 323 71 385 117 436 c 0
 163 487 222 512 293 512 c 0xaf80
 363 512 416 487 455 438 c 0
 461 431 466 423 471 415 c 1
 471 500 l 1x1f80
293 452 m 0xaf80
 238 452 193 433 159 394 c 0
 125 355 108 307 108 250 c 0
 108 193 125 145 159 106 c 0
 193 67 238 48 293 48 c 0
 347 48 390 67 422 106 c 0
 454 145 471 192 471 250 c 0
 471 308 454 355 422 394 c 0
 390 433 347 452 293 452 c 0xaf80
EndSplineSet
EndChar

StartChar: aring
Encoding: 229 229 162
GlifName: aring
Width: 608
Flags: W
HStem: -12 60<203.894 378.714> 0 21G<471 531> 452 60<203.894 378.714> 480 20G<471 531> 563 46<273.882 337.333> 689 45<273.882 337.333>
VStem: 48 60<150.537 349.463> 220 46<617.381 680.333> 345 46<617.381 680.795> 471 60<0 85 149.177 350.823 415 500>
LayerCount: 2
Fore
SplineSet
306 734 m 0x0fc0
 329 734 349 726 366 709 c 0
 383 692 391 672 391 649 c 0
 391 626 383 605 366 588 c 0
 349 571 329 563 306 563 c 0
 283 563 262 571 245 588 c 0
 228 605 220 626 220 649 c 0
 220 672 228 692 245 709 c 0
 262 726 283 734 306 734 c 0x0fc0
306 689 m 0
 295 689 285 685 277 677 c 0
 269 669 266 660 266 649 c 0
 266 638 269 629 277 621 c 0
 285 613 295 609 306 609 c 0
 317 609 326 613 334 621 c 0
 342 629 345 638 345 649 c 0
 345 660 342 669 334 677 c 0
 326 685 317 689 306 689 c 0
471 500 m 1x1fc0
 531 500 l 1
 531 0 l 1
 471 0 l 1x5fc0
 471 85 l 1
 466 77 461 69 455 62 c 0
 416 13 363 -12 293 -12 c 0
 222 -12 163 13 117 64 c 0
 71 115 48 177 48 250 c 0
 48 323 71 385 117 436 c 0
 163 487 222 512 293 512 c 0xafc0
 363 512 416 487 455 438 c 0
 461 431 466 423 471 415 c 1
 471 500 l 1x1fc0
293 452 m 0xafc0
 238 452 193 433 159 394 c 0
 125 355 108 307 108 250 c 0
 108 193 125 145 159 106 c 0
 193 67 238 48 293 48 c 0
 347 48 390 67 422 106 c 0
 454 145 471 192 471 250 c 0
 471 308 454 355 422 394 c 0
 390 433 347 452 293 452 c 0xafc0
EndSplineSet
EndChar

StartChar: ae
Encoding: 230 230 163
GlifName: ae
Width: 1052
Flags: W
HStem: -12 60<203.894 378.714 701.464 896.524> 0 21G<471 531> 220 60<605 951> 452 60<203.894 378.714 701.464 871.031> 480 20G<471 531>
VStem: 48 60<150.537 349.463> 471 60<0 85 149.177 350.823 415 500> 543 62<148.75 220 280 351.25>
LayerCount: 2
Fore
SplineSet
1012 220 m 5xb7
 605 220 l 5
 611 170 631 129 664 97 c 4
 697 65 739 48 788 48 c 4
 858 48 912 68 951 107 c 5
 992 63 l 5
 942 13 874 -12 788 -12 c 4
 717 -12 658 13 612 64 c 4
 566 115 543 177 543 250 c 4
 543 323 566 385 612 436 c 4
 658 487 717 512 788 512 c 4
 858 512 912 488 952 438 c 4
 992 388 1012 325 1012 250 c 6
 1012 220 l 5xb7
788 452 m 4
 739 452 697 435 664 403 c 4
 631 371 611 330 605 280 c 5
 951 280 l 5
 946 331 930 372 902 404 c 4
 874 436 836 452 788 452 c 4
471 500 m 1x2f
 531 500 l 1
 531 0 l 1
 471 0 l 1x6f
 471 85 l 1
 466 77 461 69 455 62 c 0
 416 13 363 -12 293 -12 c 0
 222 -12 163 13 117 64 c 0
 71 115 48 177 48 250 c 0
 48 323 71 385 117 436 c 0
 163 487 222 512 293 512 c 0xb7
 363 512 416 487 455 438 c 0
 461 431 466 423 471 415 c 1
 471 500 l 1x2f
293 452 m 0xb7
 238 452 193 433 159 394 c 0
 125 355 108 307 108 250 c 0
 108 193 125 145 159 106 c 0
 193 67 238 48 293 48 c 0
 347 48 390 67 422 106 c 0
 454 145 471 192 471 250 c 0
 471 308 454 355 422 394 c 0
 390 433 347 452 293 452 c 0xb7
EndSplineSet
EndChar

StartChar: ccedilla
Encoding: 231 231 164
GlifName: ccedilla
Width: 504
Flags: W
HStem: -210 57<190.193 305.089> -12 60<203.894 339.174> 452 60<203.894 378.403>
VStem: 48 60<150.537 349.463> 334 57<-124.089 -14.7037>
LayerCount: 2
Fore
SplineSet
346 33 m 1
 376 5 391 -29 391 -70 c 0
 391 -109 377 -142 350 -169 c 0
 323 -196 290 -210 251 -210 c 0
 219 -210 191 -201 166 -181 c 1
 190 -152 203 -137 203 -137 c 5
 217 -147 233 -153 251 -153 c 0
 273 -153 293 -144 309 -128 c 0
 325 -112 334 -92 334 -70 c 0
 334 -54 329 -39 321 -26 c 0
 313 -13 303 -3 289 4 c 1
 346 33 l 1
293 512 m 0
 363 512 421 487 467 437 c 1
 426 393 l 1
 391 432 347 452 293 452 c 0
 238 452 193 433 159 394 c 0
 125 355 108 307 108 250 c 0
 108 193 125 145 159 106 c 0
 193 67 238 48 293 48 c 0
 347 48 391 68 426 107 c 1
 467 63 l 1
 421 13 363 -12 293 -12 c 0
 222 -12 163 13 117 64 c 0
 71 115 48 177 48 250 c 0
 48 323 71 385 117 436 c 0
 163 487 222 512 293 512 c 0
EndSplineSet
EndChar

StartChar: egrave
Encoding: 232 232 165
GlifName: egrave
Width: 554
Flags: W
HStem: -12 60<206.464 401.524> 220 60<110 456> 452 60<206.464 376.031> 681 20G<142 248.48>
VStem: 48 62<148.75 220 280 351.25>
LayerCount: 2
Fore
SplineSet
517 220 m 5
 110 220 l 5
 116 170 136 129 169 97 c 4
 202 65 244 48 293 48 c 4
 363 48 417 68 456 107 c 5
 497 63 l 5
 447 13 379 -12 293 -12 c 4
 222 -12 163 13 117 64 c 4
 71 115 48 177 48 250 c 4
 48 323 71 385 117 436 c 4
 163 487 222 512 293 512 c 4
 363 512 417 488 457 438 c 4
 497 388 517 325 517 250 c 6
 517 220 l 5
293 452 m 4
 244 452 202 435 169 403 c 4
 136 371 116 330 110 280 c 5
 456 280 l 5
 451 331 435 372 407 404 c 4
 379 436 341 452 293 452 c 4
266 574 m 1
 142 701 l 1
 231 701 l 1
 342 574 l 1
 266 574 l 1
EndSplineSet
EndChar

StartChar: eacute
Encoding: 233 233 166
GlifName: eacute
Width: 554
Flags: W
HStem: -12 60<206.464 401.524> 220 60<110 456> 452 60<206.464 376.031> 680 20G<338.698 445>
VStem: 48 62<148.75 220 280 351.25>
LayerCount: 2
Fore
SplineSet
517 220 m 5
 110 220 l 5
 116 170 136 129 169 97 c 4
 202 65 244 48 293 48 c 4
 363 48 417 68 456 107 c 5
 497 63 l 5
 447 13 379 -12 293 -12 c 4
 222 -12 163 13 117 64 c 4
 71 115 48 177 48 250 c 4
 48 323 71 385 117 436 c 4
 163 487 222 512 293 512 c 4
 363 512 417 488 457 438 c 4
 497 388 517 325 517 250 c 6
 517 220 l 5
293 452 m 4
 244 452 202 435 169 403 c 4
 136 371 116 330 110 280 c 5
 456 280 l 5
 451 331 435 372 407 404 c 4
 379 436 341 452 293 452 c 4
247 574 m 1
 356 700 l 1
 445 700 l 1
 323 574 l 1
 247 574 l 1
EndSplineSet
EndChar

StartChar: ecircumflex
Encoding: 234 234 167
GlifName: ecircumflex
Width: 554
Flags: W
HStem: -12 60<206.464 401.524> 220 60<110 456> 452 60<206.464 376.031> 654 46<247 329>
VStem: 48 62<148.75 220 280 351.25>
LayerCount: 2
Fore
SplineSet
517 220 m 5
 110 220 l 5
 116 170 136 129 169 97 c 4
 202 65 244 48 293 48 c 4
 363 48 417 68 456 107 c 5
 497 63 l 5
 447 13 379 -12 293 -12 c 4
 222 -12 163 13 117 64 c 4
 71 115 48 177 48 250 c 4
 48 323 71 385 117 436 c 4
 163 487 222 512 293 512 c 4
 363 512 417 488 457 438 c 4
 497 388 517 325 517 250 c 6
 517 220 l 5
293 452 m 4
 244 452 202 435 169 403 c 4
 136 371 116 330 110 280 c 5
 456 280 l 5
 451 331 435 372 407 404 c 4
 379 436 341 452 293 452 c 4
127 574 m 1
 247 700 l 1
 329 700 l 1
 449 574 l 1
 367 574 l 1
 288 654 l 1
 209 574 l 1
 127 574 l 1
EndSplineSet
EndChar

StartChar: edieresis
Encoding: 235 235 168
GlifName: edieresis
Width: 554
Flags: W
HStem: -12 60<206.464 401.524> 220 60<110 456> 452 60<206.464 376.031> 630 80<140.376 195.624 381.376 438.624>
VStem: 48 62<148.75 220 280 351.25> 128 80<634.456 698.624> 370 80<642.376 698.624>
LayerCount: 2
Fore
SplineSet
517 220 m 5
 110 220 l 5
 116 170 136 129 169 97 c 4
 202 65 244 48 293 48 c 4
 363 48 417 68 456 107 c 5
 497 63 l 5
 447 13 379 -12 293 -12 c 4
 222 -12 163 13 117 64 c 4
 71 115 48 177 48 250 c 4
 48 323 71 385 117 436 c 4
 163 487 222 512 293 512 c 4
 363 512 417 488 457 438 c 4
 497 388 517 325 517 250 c 6
 517 220 l 5
293 452 m 4
 244 452 202 435 169 403 c 4
 136 371 116 330 110 280 c 5
 456 280 l 5
 451 331 435 372 407 404 c 4
 379 436 341 452 293 452 c 4
168 710 m 0
 179 710 188 707 196 699 c 0
 204 691 208 681 208 670 c 0
 208 659 204 650 196 642 c 0
 188 634 179 630 168 630 c 0
 157 630 148 634 140 642 c 0
 132 650 128 659 128 670 c 0
 128 681 132 691 140 699 c 0
 148 707 157 710 168 710 c 0
410 710 m 0
 421 710 431 707 439 699 c 0
 447 691 450 681 450 670 c 0
 450 659 447 650 439 642 c 0
 431 634 421 630 410 630 c 0
 399 630 389 634 381 642 c 0
 373 650 370 659 370 670 c 0
 370 681 373 691 381 699 c 0
 389 707 399 710 410 710 c 0
EndSplineSet
EndChar

StartChar: igrave
Encoding: 236 236 169
GlifName: igrave
Width: 225
Flags: W
HStem: 0 21G<82 142> 480 20G<82 142> 681 20G<-51 55.4803>
VStem: 82 60<0 500>
LayerCount: 2
Fore
SplineSet
73 574 m 1
 -51 701 l 1
 38 701 l 1
 149 574 l 1
 73 574 l 1
82 0 m 1
 82 500 l 1
 142 500 l 1
 142 0 l 1
 82 0 l 1
EndSplineSet
EndChar

StartChar: iacute
Encoding: 237 237 170
GlifName: iacute
Width: 225
Flags: W
HStem: 0 21G<82 142> 480 20G<82 142> 680 20G<162.698 269>
VStem: 82 60<0 500>
LayerCount: 2
Fore
SplineSet
71 574 m 1
 180 700 l 1
 269 700 l 1
 147 574 l 1
 71 574 l 1
82 0 m 1
 82 500 l 1
 142 500 l 1
 142 0 l 1
 82 0 l 1
EndSplineSet
EndChar

StartChar: icircumflex
Encoding: 238 238 171
GlifName: icircumflex
Width: 225
Flags: W
HStem: 0 21G<82 142> 480 20G<82 142> 654 46<71 153>
VStem: 82 60<0 500>
LayerCount: 2
Fore
SplineSet
-49 574 m 1
 71 700 l 1
 153 700 l 1
 273 574 l 1
 191 574 l 1
 112 654 l 5
 33 574 l 1
 -49 574 l 1
82 0 m 1
 82 500 l 1
 142 500 l 1
 142 0 l 1
 82 0 l 1
EndSplineSet
EndChar

StartChar: idieresis
Encoding: 239 239 172
GlifName: idieresis
Width: 225
Flags: W
HStem: 0 21G<82 142> 480 20G<82 142> 630 80<15.3757 70.6243 154.376 210.624>
VStem: 3 80<634.456 698.624> 82 60<0 500> 143 80<642.376 698.624>
LayerCount: 2
Fore
SplineSet
82 0 m 1xec
 82 500 l 1
 142 500 l 1
 142 0 l 1
 82 0 l 1xec
43 710 m 0
 54 710 63 707 71 699 c 0
 79 691 83 681 83 670 c 0
 83 659 79 650 71 642 c 0
 63 634 54 630 43 630 c 0
 32 630 23 634 15 642 c 0
 7 650 3 659 3 670 c 0xf4
 3 681 7 691 15 699 c 0
 23 707 32 710 43 710 c 0
183 710 m 0
 194 710 203 707 211 699 c 0
 219 691 223 681 223 670 c 0
 223 659 219 650 211 642 c 0
 203 634 194 630 183 630 c 0
 172 630 162 634 154 642 c 0
 146 650 143 659 143 670 c 0
 143 681 146 691 154 699 c 0
 162 707 172 710 183 710 c 0
EndSplineSet
EndChar

StartChar: eth
Encoding: 240 240 173
GlifName: eth
Width: 594
Flags: W
HStem: -12 60<205.225 382.775> 452 60<205.225 382.775> 654 58<176 272.529> 683 20G<388.356 430.878>
VStem: 49 60<151.406 348.594> 479 60<151.406 339>
LayerCount: 2
Fore
SplineSet
294 512 m 0xcc
 365 512 424 487 470 436 c 0
 516 385 539 324 539 250 c 0
 539 176 516 115 470 64 c 0
 424 13 365 -12 294 -12 c 0
 223 -12 164 13 118 64 c 0
 72 115 49 176 49 250 c 0
 49 324 72 385 118 436 c 0
 164 487 223 512 294 512 c 0xcc
294 452 m 0
 239 452 195 433 161 394 c 0
 127 355 109 307 109 250 c 0
 109 193 127 145 161 106 c 0
 195 67 239 48 294 48 c 0
 349 48 393 67 427 106 c 0
 461 145 479 193 479 250 c 0
 479 307 461 355 427 394 c 0
 393 433 349 452 294 452 c 0
161 654 m 1xec
 176 712 l 1
 193 712 218 709 248 702 c 0
 273 696 296 688 319 678 c 0
 342 668 368 651 396 628 c 0
 424 605 447 577 467 546 c 0
 487 515 504 473 518 422 c 0
 532 371 539 313 539 250 c 1
 479 250 l 1
 479 339 466 412 439 469 c 4
 413 524 382 565 346 590 c 0
 308 617 273 635 243 642 c 0
 210 650 183 654 161 654 c 1xec
248 585 m 1
 417 703 l 1xdc
 451 654 l 1
 282 536 l 1
 248 585 l 1
EndSplineSet
EndChar

StartChar: ntilde
Encoding: 241 241 174
GlifName: ntilde
Width: 559
Flags: W
HStem: 0 21G<78 138 437 497> 452 60<213.231 363.151> 480 20G<78 138> 572 56<306.662 374.975> 644 56<190.584 256.805>
VStem: 78 60<0 369.649 432 500> 126 59<607 639.45> 380 59<631.411 666> 437 60<0 370.142>
LayerCount: 2
Fore
SplineSet
342 572 m 0x9b
 313 572 289 584 269 608 c 0
 261 617 254 626 247 633 c 0
 240 640 233 644 225 644 c 0
 204 644 191 632 185 607 c 1
 126 607 l 1
 129 633 140 654 159 672 c 0
 178 690 200 700 225 700 c 0
 250 700 273 688 294 664 c 0
 302 655 310 646 317 639 c 0
 324 632 333 628 342 628 c 0
 363 628 376 641 380 666 c 1
 439 666 l 1
 435 639 424 617 406 599 c 0
 388 581 367 572 342 572 c 0x9b
497 0 m 1xdc80
 437 0 l 1
 437 268 l 2
 437 325 423 369 395 402 c 0
 367 435 331 452 288 452 c 0xdc80
 245 452 209 435 181 402 c 0
 153 369 138 325 138 268 c 2
 138 0 l 5
 78 0 l 5
 78 500 l 1
 138 500 l 1xbc80
 138 432 l 1
 141 437 145 442 148 446 c 0
 183 490 230 512 288 512 c 0
 348 512 397 489 437 445 c 0
 477 401 497 341 497 268 c 2
 497 0 l 1xdc80
EndSplineSet
EndChar

StartChar: ograve
Encoding: 242 242 175
GlifName: ograve
Width: 584
Flags: W
HStem: -12 60<203.894 381.56> 452 60<203.894 381.56> 681 20G<140 246.48>
VStem: 48 60<150.537 349.463> 477 60<150.537 349.463>
LayerCount: 2
Fore
SplineSet
264 574 m 1
 140 701 l 1
 229 701 l 1
 340 574 l 1
 264 574 l 1
293 452 m 0
 238 452 193 433 159 394 c 0
 125 355 108 307 108 250 c 0
 108 193 125 145 159 106 c 0
 193 67 238 48 293 48 c 0
 348 48 392 67 426 106 c 0
 460 145 477 193 477 250 c 0
 477 307 460 355 426 394 c 0
 392 433 348 452 293 452 c 0
293 512 m 0
 364 512 422 487 468 436 c 0
 514 385 537 323 537 250 c 0
 537 177 514 115 468 64 c 0
 422 13 364 -12 293 -12 c 0
 222 -12 163 13 117 64 c 0
 71 115 48 177 48 250 c 0
 48 323 71 385 117 436 c 0
 163 487 222 512 293 512 c 0
EndSplineSet
EndChar

StartChar: oacute
Encoding: 243 243 176
GlifName: oacute
Width: 584
Flags: W
HStem: -12 60<203.894 381.56> 452 60<203.894 381.56> 680 20G<345.698 452>
VStem: 48 60<150.537 349.463> 477 60<150.537 349.463>
LayerCount: 2
Fore
SplineSet
254 574 m 1
 363 700 l 1
 452 700 l 1
 330 574 l 1
 254 574 l 1
293 452 m 0
 238 452 193 433 159 394 c 0
 125 355 108 307 108 250 c 0
 108 193 125 145 159 106 c 0
 193 67 238 48 293 48 c 0
 348 48 392 67 426 106 c 0
 460 145 477 193 477 250 c 0
 477 307 460 355 426 394 c 0
 392 433 348 452 293 452 c 0
293 512 m 0
 364 512 422 487 468 436 c 0
 514 385 537 323 537 250 c 0
 537 177 514 115 468 64 c 0
 422 13 364 -12 293 -12 c 0
 222 -12 163 13 117 64 c 0
 71 115 48 177 48 250 c 0
 48 323 71 385 117 436 c 0
 163 487 222 512 293 512 c 0
EndSplineSet
EndChar

StartChar: ocircumflex
Encoding: 244 244 177
GlifName: ocircumflex
Width: 584
Flags: W
HStem: -12 60<203.894 381.56> 452 60<203.894 381.56> 654 46<263 345>
VStem: 48 60<150.537 349.463> 477 60<150.537 349.463>
LayerCount: 2
Fore
SplineSet
143 574 m 1
 263 700 l 1
 345 700 l 1
 465 574 l 1
 383 574 l 1
 304 654 l 5
 225 574 l 1
 143 574 l 1
293 452 m 0
 238 452 193 433 159 394 c 0
 125 355 108 307 108 250 c 0
 108 193 125 145 159 106 c 0
 193 67 238 48 293 48 c 0
 348 48 392 67 426 106 c 0
 460 145 477 193 477 250 c 0
 477 307 460 355 426 394 c 0
 392 433 348 452 293 452 c 0
293 512 m 0
 364 512 422 487 468 436 c 0
 514 385 537 323 537 250 c 0
 537 177 514 115 468 64 c 0
 422 13 364 -12 293 -12 c 0
 222 -12 163 13 117 64 c 0
 71 115 48 177 48 250 c 0
 48 323 71 385 117 436 c 0
 163 487 222 512 293 512 c 0
EndSplineSet
EndChar

StartChar: otilde
Encoding: 245 245 178
GlifName: otilde
Width: 584
Flags: W
HStem: -12 60<203.894 381.56> 452 60<203.894 381.56> 572 56<324.662 392.975> 644 56<208.584 274.805>
VStem: 48 60<150.537 349.463> 144 59<607 639.45> 398 59<631.411 666> 477 60<150.537 349.463>
LayerCount: 2
Fore
SplineSet
360 572 m 0
 331 572 307 584 287 608 c 0
 279 617 272 626 265 633 c 0
 258 640 251 644 243 644 c 0
 222 644 209 632 203 607 c 1
 144 607 l 1
 147 633 158 654 177 672 c 0
 196 690 218 700 243 700 c 0
 268 700 291 688 312 664 c 0
 320 655 328 646 335 639 c 0
 342 632 351 628 360 628 c 0
 381 628 394 641 398 666 c 1
 457 666 l 1
 453 639 442 617 424 599 c 0
 406 581 385 572 360 572 c 0
293 452 m 0
 238 452 193 433 159 394 c 0
 125 355 108 307 108 250 c 0
 108 193 125 145 159 106 c 0
 193 67 238 48 293 48 c 0
 348 48 392 67 426 106 c 0
 460 145 477 193 477 250 c 0
 477 307 460 355 426 394 c 0
 392 433 348 452 293 452 c 0
293 512 m 0
 364 512 422 487 468 436 c 0
 514 385 537 323 537 250 c 0
 537 177 514 115 468 64 c 0
 422 13 364 -12 293 -12 c 0
 222 -12 163 13 117 64 c 0
 71 115 48 177 48 250 c 0
 48 323 71 385 117 436 c 0
 163 487 222 512 293 512 c 0
EndSplineSet
EndChar

StartChar: odieresis
Encoding: 246 246 179
GlifName: odieresis
Width: 584
Flags: W
HStem: -12 60<203.894 381.56> 452 60<203.894 381.56> 630 80<150.376 207.624 393.376 448.624>
VStem: 48 60<150.537 349.463> 139 80<642.376 698.624> 381 80<634.456 698.624> 477 60<150.537 349.463>
LayerCount: 2
Fore
SplineSet
179 710 m 4
 190 710 200 707 208 699 c 4
 216 691 219 681 219 670 c 4
 219 659 216 650 208 642 c 4
 200 634 190 630 179 630 c 4
 168 630 158 634 150 642 c 4
 142 650 139 659 139 670 c 4
 139 681 142 691 150 699 c 4
 158 707 168 710 179 710 c 4
421 710 m 4
 432 710 441 707 449 699 c 4
 457 691 461 681 461 670 c 4
 461 659 457 650 449 642 c 4
 441 634 432 630 421 630 c 4
 410 630 401 634 393 642 c 4
 385 650 381 659 381 670 c 4
 381 681 385 691 393 699 c 4
 401 707 410 710 421 710 c 4
293 452 m 0
 238 452 193 433 159 394 c 0
 125 355 108 307 108 250 c 0
 108 193 125 145 159 106 c 0
 193 67 238 48 293 48 c 0
 348 48 392 67 426 106 c 0
 460 145 477 193 477 250 c 0
 477 307 460 355 426 394 c 0
 392 433 348 452 293 452 c 0
293 512 m 0
 364 512 422 487 468 436 c 0
 514 385 537 323 537 250 c 0
 537 177 514 115 468 64 c 0
 422 13 364 -12 293 -12 c 0
 222 -12 163 13 117 64 c 0
 71 115 48 177 48 250 c 0
 48 323 71 385 117 436 c 0
 163 487 222 512 293 512 c 0
EndSplineSet
EndChar

StartChar: divide
Encoding: 247 247 180
GlifName: divide
Width: 625
Flags: W
HStem: 109 80<285.376 340.624> 267 61<123 503> 406 80<285.376 340.624>
VStem: 273 80<113.456 177.624 417.376 474.624>
CounterMasks: 1 e0
LayerCount: 2
Fore
SplineSet
313 486 m 0
 324 486 333 483 341 475 c 0
 349 467 353 457 353 446 c 0
 353 435 349 425 341 417 c 0
 333 409 324 406 313 406 c 0
 302 406 293 409 285 417 c 0
 277 425 273 435 273 446 c 0
 273 457 277 467 285 475 c 0
 293 483 302 486 313 486 c 0
123 328 m 1
 503 328 l 1
 503 267 l 1
 123 267 l 1
 123 328 l 1
313 189 m 0
 324 189 333 186 341 178 c 0
 349 170 353 160 353 149 c 0
 353 138 349 129 341 121 c 0
 333 113 324 109 313 109 c 0
 302 109 293 113 285 121 c 0
 277 129 273 138 273 149 c 0
 273 160 277 170 285 178 c 0
 293 186 302 189 313 189 c 0
EndSplineSet
EndChar

StartChar: oslash
Encoding: 248 248 181
GlifName: oslash
Width: 584
Flags: W
HStem: -12 60<203.894 381.56> 452 60<203.894 381.56>
VStem: 48 60<150.537 349.463> 477 60<150.537 349.463>
LayerCount: 2
Fore
SplineSet
293 452 m 0
 238 452 193 433 159 394 c 0
 125 355 108 307 108 250 c 0
 108 193 125 145 159 106 c 0
 193 67 238 48 293 48 c 0
 348 48 392 67 426 106 c 0
 460 145 477 193 477 250 c 0
 477 307 460 355 426 394 c 0
 392 433 348 452 293 452 c 0
293 512 m 0
 364 512 422 487 468 436 c 0
 514 385 537 323 537 250 c 0
 537 177 514 115 468 64 c 0
 422 13 364 -12 293 -12 c 0
 222 -12 163 13 117 64 c 0
 71 115 48 177 48 250 c 0
 48 323 71 385 117 436 c 0
 163 487 222 512 293 512 c 0
473 512 m 1
 519 474 l 1
 112 -12 l 1
 66 27 l 1
 473 512 l 1
EndSplineSet
EndChar

StartChar: ugrave
Encoding: 249 249 182
GlifName: ugrave
Width: 544
Flags: W
HStem: -12 60<197.634 347.788> 480 20G<63 123 422 482> 681 20G<124 230.48>
VStem: 63 60<130.351 500> 422 60<130.351 500>
LayerCount: 2
Fore
SplineSet
248 574 m 1
 124 701 l 1
 213 701 l 1
 324 574 l 1
 248 574 l 1
63 500 m 1
 123 500 l 1
 123 232 l 2
 123 175 138 131 166 98 c 0
 194 65 230 48 273 48 c 0
 316 48 351 65 379 98 c 0
 407 131 422 175 422 232 c 2
 422 500 l 1
 482 500 l 1
 482 232 l 2
 482 159 462 99 422 55 c 0
 382 11 333 -12 273 -12 c 0
 213 -12 163 11 123 55 c 0
 83 99 63 159 63 232 c 2
 63 500 l 1
EndSplineSet
EndChar

StartChar: uacute
Encoding: 250 250 183
GlifName: uacute
Width: 544
Flags: W
HStem: -12 60<197.634 347.788> 480 20G<63 123 422 482> 680 20G<333.698 440>
VStem: 63 60<130.351 500> 422 60<130.351 500>
LayerCount: 2
Fore
SplineSet
242 574 m 1
 351 700 l 1
 440 700 l 1
 318 574 l 1
 242 574 l 1
63 500 m 1
 123 500 l 1
 123 232 l 2
 123 175 138 131 166 98 c 0
 194 65 230 48 273 48 c 0
 316 48 351 65 379 98 c 0
 407 131 422 175 422 232 c 2
 422 500 l 1
 482 500 l 1
 482 232 l 2
 482 159 462 99 422 55 c 0
 382 11 333 -12 273 -12 c 0
 213 -12 163 11 123 55 c 0
 83 99 63 159 63 232 c 2
 63 500 l 1
EndSplineSet
EndChar

StartChar: ucircumflex
Encoding: 251 251 184
GlifName: ucircumflex
Width: 544
Flags: W
HStem: -12 60<197.634 347.788> 480 20G<63 123 422 482> 654 46<232 314>
VStem: 63 60<130.351 500> 422 60<130.351 500>
LayerCount: 2
Fore
SplineSet
112 574 m 1
 232 700 l 1
 314 700 l 1
 434 574 l 1
 352 574 l 1
 273 654 l 5
 194 574 l 1
 112 574 l 1
63 500 m 1
 123 500 l 1
 123 232 l 2
 123 175 138 131 166 98 c 0
 194 65 230 48 273 48 c 0
 316 48 351 65 379 98 c 0
 407 131 422 175 422 232 c 2
 422 500 l 1
 482 500 l 1
 482 232 l 2
 482 159 462 99 422 55 c 0
 382 11 333 -12 273 -12 c 0
 213 -12 163 11 123 55 c 0
 83 99 63 159 63 232 c 2
 63 500 l 1
EndSplineSet
EndChar

StartChar: udieresis
Encoding: 252 252 185
GlifName: udieresis
Width: 544
Flags: W
HStem: -12 60<197.634 347.788> 480 20G<63 123 422 482> 630 80<127.376 183.624 369.376 424.624>
VStem: 63 60<130.351 500> 115 80<642.376 698.624> 357 80<634.456 698.624> 422 60<130.351 500>
LayerCount: 2
Fore
SplineSet
155 710 m 4xe8
 166 710 176 707 184 699 c 4
 192 691 195 681 195 670 c 4
 195 659 192 650 184 642 c 4
 176 634 166 630 155 630 c 4
 144 630 135 634 127 642 c 4
 119 650 115 659 115 670 c 4
 115 681 119 691 127 699 c 4
 135 707 144 710 155 710 c 4xe8
397 710 m 4
 408 710 417 707 425 699 c 4
 433 691 437 681 437 670 c 4
 437 659 433 650 425 642 c 4
 417 634 408 630 397 630 c 4
 386 630 377 634 369 642 c 4
 361 650 357 659 357 670 c 4xe4
 357 681 361 691 369 699 c 4
 377 707 386 710 397 710 c 4
63 500 m 1xf2
 123 500 l 1
 123 232 l 2
 123 175 138 131 166 98 c 0
 194 65 230 48 273 48 c 0
 316 48 351 65 379 98 c 0
 407 131 422 175 422 232 c 2
 422 500 l 1
 482 500 l 1
 482 232 l 2
 482 159 462 99 422 55 c 0
 382 11 333 -12 273 -12 c 0
 213 -12 163 11 123 55 c 0
 83 99 63 159 63 232 c 2
 63 500 l 1xf2
EndSplineSet
EndChar

StartChar: yacute
Encoding: 253 253 186
GlifName: yacute
Width: 511
Flags: W
HStem: -212 59<23 132.901> 480 20G<13 86.3886 425.517 499> 680 20G<290.698 397>
LayerCount: 2
Fore
SplineSet
199 574 m 1
 308 700 l 1
 397 700 l 1
 275 574 l 1
 199 574 l 1
13 500 m 1
 78 500 l 1
 255 78 l 1
 434 500 l 1
 499 500 l 1
 254 -80 l 2
 237 -120 211 -152 174 -176 c 0
 137 -200 97 -212 53 -212 c 2
 23 -212 l 1
 23 -153 l 1
 53 -153 l 2
 85 -153 115 -144 141 -127 c 0
 167 -110 186 -87 199 -57 c 2
 223 0 l 1
 13 500 l 1
EndSplineSet
EndChar

StartChar: thorn
Encoding: 254 254 187
GlifName: thorn
Width: 614
Flags: W
HStem: -200 21G<77 136> -12 60<227.44 403.775> 452 60<227.44 403.775> 680 20G<77 136>
VStem: 77 59<-200 85 149.177 350.823 415 700> 500 60<151.406 348.594>
LayerCount: 2
Fore
SplineSet
136 -200 m 1
 77 -200 l 1
 77 700 l 1
 136 700 l 1
 136 415 l 1
 141 423 146 431 152 438 c 0
 191 487 245 512 315 512 c 0
 386 512 445 487 491 436 c 0
 537 385 560 324 560 250 c 0
 560 176 537 115 491 64 c 0
 445 13 386 -12 315 -12 c 0
 245 -12 191 13 152 62 c 0
 146 69 141 77 136 85 c 1
 136 -200 l 1
315 452 m 0
 261 452 217 433 185 394 c 0
 153 355 136 308 136 250 c 0
 136 192 153 145 185 106 c 0
 217 67 261 48 315 48 c 0
 370 48 414 67 448 106 c 0
 482 145 500 193 500 250 c 0
 500 307 482 355 448 394 c 0
 414 433 370 452 315 452 c 0
EndSplineSet
EndChar

StartChar: ydieresis
Encoding: 255 255 188
GlifName: ydieresis
Width: 511
Flags: W
HStem: -212 59<23 132.901> 480 20G<13 86.3886 425.517 499> 630 80<105.376 161.624 346.376 402.624>
VStem: 93 80<642.376 698.624> 335 80<642.376 698.624>
LayerCount: 2
Fore
SplineSet
133 710 m 4
 144 710 154 707 162 699 c 4
 170 691 173 681 173 670 c 4
 173 659 170 650 162 642 c 4
 154 634 144 630 133 630 c 4
 122 630 113 634 105 642 c 4
 97 650 93 659 93 670 c 4
 93 681 97 691 105 699 c 4
 113 707 122 710 133 710 c 4
375 710 m 4
 386 710 395 707 403 699 c 4
 411 691 415 681 415 670 c 4
 415 659 411 650 403 642 c 4
 395 634 386 630 375 630 c 4
 364 630 354 634 346 642 c 4
 338 650 335 659 335 670 c 4
 335 681 338 691 346 699 c 4
 354 707 364 710 375 710 c 4
13 500 m 1
 78 500 l 1
 255 78 l 1
 434 500 l 1
 499 500 l 1
 254 -80 l 2
 237 -120 211 -152 174 -176 c 0
 137 -200 97 -212 53 -212 c 2
 23 -212 l 1
 23 -153 l 1
 53 -153 l 2
 85 -153 115 -144 141 -127 c 0
 167 -110 186 -87 199 -57 c 2
 223 0 l 1
 13 500 l 1
EndSplineSet
EndChar

StartChar: Amacron
Encoding: 256 256 189
GlifName: A_macron
Width: 607
Flags: W
HStem: 0 21G<13 85.2195 522.78 595> 205 60<174 434> 619 81<233.5 374.5> 750 60<156 456>
LayerCount: 2
Fore
SplineSet
156 750 m 1
 156 810 l 1
 456 810 l 1
 456 750 l 1
 156 750 l 1
174 265 m 1
 434 265 l 1
 304 619 l 1
 174 265 l 1
152 205 m 1
 78 0 l 1
 13 0 l 1
 274 700 l 1
 334 700 l 1
 595 0 l 1
 530 0 l 1
 456 205 l 1
 152 205 l 1
EndSplineSet
EndChar

StartChar: amacron
Encoding: 257 257 190
GlifName: amacron
Width: 608
Flags: W
HStem: -12 60<203.894 378.714> 0 21G<471 531> 452 60<203.894 378.714> 480 20G<471 531> 580 60<149 449>
VStem: 48 60<150.537 349.463> 471 60<0 85 149.177 350.823 415 500>
LayerCount: 2
Fore
SplineSet
149 580 m 1x0e
 149 640 l 1
 449 640 l 1
 449 580 l 1
 149 580 l 1x0e
471 500 m 1x1e
 531 500 l 1
 531 0 l 1
 471 0 l 1x5e
 471 85 l 1
 466 77 461 69 455 62 c 0
 416 13 363 -12 293 -12 c 0
 222 -12 163 13 117 64 c 0
 71 115 48 177 48 250 c 0
 48 323 71 385 117 436 c 0
 163 487 222 512 293 512 c 0xae
 363 512 416 487 455 438 c 0
 461 431 466 423 471 415 c 1
 471 500 l 1x1e
293 452 m 0xae
 238 452 193 433 159 394 c 0
 125 355 108 307 108 250 c 0
 108 193 125 145 159 106 c 0
 193 67 238 48 293 48 c 0
 347 48 390 67 422 106 c 0
 454 145 471 192 471 250 c 0
 471 308 454 355 422 394 c 0
 390 433 347 452 293 452 c 0xae
EndSplineSet
EndChar

StartChar: Abreve
Encoding: 258 258 191
GlifName: A_breve
Width: 607
Flags: W
HStem: 0 21G<13 85.2195 522.78 595> 205 60<174 434> 619 81<233.5 374.5> 739 60<242.284 367.716>
VStem: 158 60<822.671 870> 392 60<822.671 870>
LayerCount: 2
Fore
SplineSet
158 870 m 1
 218 870 l 1
 218 849 226 832 243 819 c 0
 260 806 280 799 305 799 c 0
 330 799 350 806 367 819 c 0
 384 832 392 849 392 870 c 1
 452 870 l 1
 452 834 438 803 410 777 c 0
 382 751 347 739 305 739 c 0
 263 739 228 751 200 777 c 0
 172 803 158 834 158 870 c 1
174 265 m 1
 434 265 l 1
 304 619 l 1
 174 265 l 1
152 205 m 1
 78 0 l 1
 13 0 l 1
 274 700 l 1
 334 700 l 1
 595 0 l 1
 530 0 l 1
 456 205 l 1
 152 205 l 1
EndSplineSet
EndChar

StartChar: abreve
Encoding: 259 259 192
GlifName: abreve
Width: 608
Flags: W
HStem: -12 60<203.894 378.714> 0 21G<471 531> 452 60<203.894 378.714> 480 20G<471 531> 569 60<239.284 364.419> 680 20G<155 215 389 449>
VStem: 48 60<150.537 349.463> 155 60<652.671 700> 389 60<652.671 700> 471 60<0 85 149.177 350.823 415 500>
LayerCount: 2
Fore
SplineSet
155 700 m 1x0fc0
 215 700 l 1
 215 679 223 662 240 649 c 0
 257 636 277 629 302 629 c 0
 327 629 347 636 364 649 c 0
 381 662 389 679 389 700 c 1
 449 700 l 1
 449 664 434 633 406 607 c 0
 378 581 344 569 302 569 c 0
 260 569 225 581 197 607 c 0
 169 633 155 664 155 700 c 1x0fc0
471 500 m 1x1fc0
 531 500 l 1
 531 0 l 1
 471 0 l 1x5fc0
 471 85 l 1
 466 77 461 69 455 62 c 0
 416 13 363 -12 293 -12 c 0
 222 -12 163 13 117 64 c 0
 71 115 48 177 48 250 c 0
 48 323 71 385 117 436 c 0
 163 487 222 512 293 512 c 0xafc0
 363 512 416 487 455 438 c 0
 461 431 466 423 471 415 c 1
 471 500 l 1x1fc0
293 452 m 0xafc0
 238 452 193 433 159 394 c 0
 125 355 108 307 108 250 c 0
 108 193 125 145 159 106 c 0
 193 67 238 48 293 48 c 0
 347 48 390 67 422 106 c 0
 454 145 471 192 471 250 c 0
 471 308 454 355 422 394 c 0
 390 433 347 452 293 452 c 0xafc0
EndSplineSet
EndChar

StartChar: Aogonek
Encoding: 260 260 193
GlifName: A_ogonek
Width: 607
Flags: W
HStem: -212 55<491.185 577.823> 0 21G<13 85.2195 522.78 595> 205 60<174 434> 619 81<233.5 374.5>
VStem: 429 55<-150.231 -73.7958>
LayerCount: 2
Fore
SplineSet
610 -170 m 5
 607 -175 603 -179 599 -183 c 0
 580 -202 556 -212 529 -212 c 0
 501 -212 478 -203 458 -183 c 0
 439 -164 429 -140 429 -114 c 0
 429 -85 441 -59 465 -35 c 0
 481 -19 504 -3 532 12 c 1
 590 12 l 1
 498 -81 l 2
 489 -90 484 -100 484 -112 c 0
 484 -124 489 -135 498 -144 c 0
 507 -153 517 -157 529 -157 c 0
 541 -157 551 -153 560 -144 c 0
 562 -142 564 -140 565 -138 c 9
 610 -170 l 5
174 265 m 1
 434 265 l 1
 304 619 l 1
 174 265 l 1
152 205 m 1
 78 0 l 1
 13 0 l 1
 274 700 l 1
 334 700 l 1
 595 0 l 1
 530 0 l 1
 456 205 l 1
 152 205 l 1
EndSplineSet
EndChar

StartChar: aogonek
Encoding: 261 261 194
GlifName: aogonek
Width: 608
Flags: W
HStem: -212 55<431.185 517.823> -12 60<203.894 378.714> 0 21G<471 531> 452 60<203.894 378.714> 480 20G<471 531>
VStem: 48 60<150.537 349.463> 369 55<-150.231 -73.7958> 471 60<0 85 149.177 350.823 415 500>
LayerCount: 2
Fore
SplineSet
550 -170 m 5x87
 547 -175 543 -179 539 -183 c 0
 520 -202 496 -212 469 -212 c 0
 441 -212 418 -203 398 -183 c 0
 379 -164 369 -140 369 -114 c 0
 369 -85 381 -59 405 -35 c 0
 421 -19 444 -3 472 12 c 1
 530 12 l 1
 438 -81 l 2
 429 -90 424 -100 424 -112 c 0
 424 -124 429 -135 438 -144 c 0
 447 -153 457 -157 469 -157 c 0
 481 -157 492 -153 501 -144 c 0
 503 -142 504 -140 505 -138 c 9
 550 -170 l 5x87
471 500 m 1x8f
 531 500 l 1
 531 0 l 1
 471 0 l 1xaf
 471 85 l 1
 466 77 461 69 455 62 c 0
 416 13 363 -12 293 -12 c 0
 222 -12 163 13 117 64 c 0
 71 115 48 177 48 250 c 0
 48 323 71 385 117 436 c 0
 163 487 222 512 293 512 c 0xd7
 363 512 416 487 455 438 c 0
 461 431 466 423 471 415 c 1
 471 500 l 1x8f
293 452 m 0xd7
 238 452 193 433 159 394 c 0
 125 355 108 307 108 250 c 0
 108 193 125 145 159 106 c 0
 193 67 238 48 293 48 c 0
 347 48 390 67 422 106 c 0
 454 145 471 192 471 250 c 0
 471 308 454 355 422 394 c 0
 390 433 347 452 293 452 c 0xd7
EndSplineSet
EndChar

StartChar: Cacute
Encoding: 262 262 195
GlifName: C_acute
Width: 683
Flags: W
HStem: -12 60<282.675 500.227> 652 60<282.675 500.227>
VStem: 53 60<230.064 469.936>
LayerCount: 2
Fore
SplineSet
340 744 m 1
 449 870 l 1
 538 870 l 1
 416 744 l 1
 340 744 l 1
392 712 m 0
 442 712 489 703 531 683 c 0
 573 663 610 636 641 600 c 1
 598 556 l 1
 544 620 476 652 392 652 c 0
 311 652 244 623 192 564 c 0
 140 505 113 434 113 350 c 0
 113 266 140 195 192 136 c 0
 244 77 311 48 392 48 c 0
 476 48 544 80 598 144 c 1
 641 101 l 1
 610 65 573 38 531 18 c 0
 489 -2 442 -12 392 -12 c 0
 293 -12 212 23 149 93 c 0
 86 163 53 248 53 350 c 0
 53 452 86 537 149 607 c 0
 212 677 293 712 392 712 c 0
EndSplineSet
EndChar

StartChar: cacute
Encoding: 263 263 196
GlifName: cacute
Width: 504
Flags: W
HStem: -12 60<203.894 378.403> 452 60<203.894 378.403> 680 20G<341.698 448>
VStem: 48 60<150.537 349.463>
LayerCount: 2
Fore
SplineSet
250 574 m 1
 359 700 l 1
 448 700 l 1
 326 574 l 1
 250 574 l 1
293 512 m 0
 363 512 421 487 467 437 c 1
 426 393 l 1
 391 432 347 452 293 452 c 0
 238 452 193 433 159 394 c 0
 125 355 108 307 108 250 c 0
 108 193 125 145 159 106 c 0
 193 67 238 48 293 48 c 0
 347 48 391 68 426 107 c 1
 467 63 l 1
 421 13 363 -12 293 -12 c 0
 222 -12 163 13 117 64 c 0
 71 115 48 177 48 250 c 0
 48 323 71 385 117 436 c 0
 163 487 222 512 293 512 c 0
EndSplineSet
EndChar

StartChar: Ccircumflex
Encoding: 264 264 197
GlifName: C_circumflex
Width: 683
Flags: W
HStem: -12 60<282.675 500.227> 652 60<282.675 500.227> 824 46<350 432>
VStem: 53 60<230.064 469.936>
LayerCount: 2
Fore
SplineSet
230 744 m 1
 350 870 l 1
 432 870 l 1
 552 744 l 1
 470 744 l 1
 391 824 l 5
 312 744 l 1
 230 744 l 1
392 712 m 0
 442 712 489 703 531 683 c 0
 573 663 610 636 641 600 c 1
 598 556 l 1
 544 620 476 652 392 652 c 0
 311 652 244 623 192 564 c 0
 140 505 113 434 113 350 c 0
 113 266 140 195 192 136 c 0
 244 77 311 48 392 48 c 0
 476 48 544 80 598 144 c 1
 641 101 l 1
 610 65 573 38 531 18 c 0
 489 -2 442 -12 392 -12 c 0
 293 -12 212 23 149 93 c 0
 86 163 53 248 53 350 c 0
 53 452 86 537 149 607 c 0
 212 677 293 712 392 712 c 0
EndSplineSet
EndChar

StartChar: ccircumflex
Encoding: 265 265 198
GlifName: ccircumflex
Width: 504
Flags: W
HStem: -12 60<203.894 378.403> 452 60<203.894 378.403> 654 46<250 332>
VStem: 48 60<150.537 349.463>
LayerCount: 2
Fore
SplineSet
130 574 m 1
 250 700 l 1
 332 700 l 1
 452 574 l 1
 370 574 l 1
 291 654 l 5
 212 574 l 1
 130 574 l 1
293 512 m 0
 363 512 421 487 467 437 c 1
 426 393 l 1
 391 432 347 452 293 452 c 0
 238 452 193 433 159 394 c 0
 125 355 108 307 108 250 c 0
 108 193 125 145 159 106 c 0
 193 67 238 48 293 48 c 0
 347 48 391 68 426 107 c 1
 467 63 l 1
 421 13 363 -12 293 -12 c 0
 222 -12 163 13 117 64 c 0
 71 115 48 177 48 250 c 0
 48 323 71 385 117 436 c 0
 163 487 222 512 293 512 c 0
EndSplineSet
EndChar

StartChar: Cdotaccent
Encoding: 266 266 199
GlifName: C_dotaccent
Width: 683
Flags: W
HStem: -12 60<282.675 500.227> 652 60<282.675 500.227> 800 80<363.376 419.624>
VStem: 53 60<230.064 469.936> 352 80<812.376 868.624>
LayerCount: 2
Fore
SplineSet
432 840 m 0
 432 829 428 820 420 812 c 0
 412 804 403 800 392 800 c 0
 381 800 371 804 363 812 c 0
 355 820 352 829 352 840 c 0
 352 851 355 861 363 869 c 0
 371 877 381 880 392 880 c 0
 403 880 412 877 420 869 c 0
 428 861 432 851 432 840 c 0
392 712 m 0
 442 712 489 703 531 683 c 0
 573 663 610 636 641 600 c 1
 598 556 l 1
 544 620 476 652 392 652 c 0
 311 652 244 623 192 564 c 0
 140 505 113 434 113 350 c 0
 113 266 140 195 192 136 c 0
 244 77 311 48 392 48 c 0
 476 48 544 80 598 144 c 1
 641 101 l 1
 610 65 573 38 531 18 c 0
 489 -2 442 -12 392 -12 c 0
 293 -12 212 23 149 93 c 0
 86 163 53 248 53 350 c 0
 53 452 86 537 149 607 c 0
 212 677 293 712 392 712 c 0
EndSplineSet
EndChar

StartChar: cdotaccent
Encoding: 267 267 200
GlifName: cdotaccent
Width: 504
Flags: W
HStem: -12 60<203.894 378.403> 452 60<203.894 378.403> 630 80<263.376 319.624>
VStem: 48 60<150.537 349.463> 252 80<642.376 698.624>
LayerCount: 2
Fore
SplineSet
332 670 m 0
 332 659 328 650 320 642 c 0
 312 634 303 630 292 630 c 0
 281 630 271 634 263 642 c 0
 255 650 252 659 252 670 c 0
 252 681 255 691 263 699 c 0
 271 707 281 710 292 710 c 0
 303 710 312 707 320 699 c 0
 328 691 332 681 332 670 c 0
293 512 m 0
 363 512 421 487 467 437 c 1
 426 393 l 1
 391 432 347 452 293 452 c 0
 238 452 193 433 159 394 c 0
 125 355 108 307 108 250 c 0
 108 193 125 145 159 106 c 0
 193 67 238 48 293 48 c 0
 347 48 391 68 426 107 c 1
 467 63 l 1
 421 13 363 -12 293 -12 c 0
 222 -12 163 13 117 64 c 0
 71 115 48 177 48 250 c 0
 48 323 71 385 117 436 c 0
 163 487 222 512 293 512 c 0
EndSplineSet
EndChar

StartChar: Ccaron
Encoding: 268 268 201
GlifName: C_caron
Width: 683
Flags: W
HStem: -12 60<282.675 500.227> 652 60<282.675 500.227> 744 48<348 434>
VStem: 53 60<230.064 469.936>
LayerCount: 2
Fore
SplineSet
230 870 m 5
 312 870 l 5
 391 792 l 5
 470 870 l 5
 552 870 l 5
 434 744 l 5
 348 744 l 5
 230 870 l 5
392 712 m 0
 442 712 489 703 531 683 c 0
 573 663 610 636 641 600 c 1
 598 556 l 1
 544 620 476 652 392 652 c 0
 311 652 244 623 192 564 c 0
 140 505 113 434 113 350 c 0
 113 266 140 195 192 136 c 0
 244 77 311 48 392 48 c 0
 476 48 544 80 598 144 c 1
 641 101 l 1
 610 65 573 38 531 18 c 0
 489 -2 442 -12 392 -12 c 0
 293 -12 212 23 149 93 c 0
 86 163 53 248 53 350 c 0
 53 452 86 537 149 607 c 0
 212 677 293 712 392 712 c 0
EndSplineSet
EndChar

StartChar: ccaron
Encoding: 269 269 202
GlifName: ccaron
Width: 504
Flags: W
HStem: -12 60<203.894 378.403> 452 60<203.894 378.403> 680 20G<130 231.513 349.744 452>
VStem: 48 60<150.537 349.463>
LayerCount: 2
Fore
SplineSet
130 700 m 5
 211 700 l 5
 291 622 l 5
 370 700 l 5
 452 700 l 5
 334 574 l 5
 248 574 l 5
 130 700 l 5
293 512 m 0
 363 512 421 487 467 437 c 1
 426 393 l 1
 391 432 347 452 293 452 c 0
 238 452 193 433 159 394 c 0
 125 355 108 307 108 250 c 0
 108 193 125 145 159 106 c 0
 193 67 238 48 293 48 c 0
 347 48 391 68 426 107 c 1
 467 63 l 1
 421 13 363 -12 293 -12 c 0
 222 -12 163 13 117 64 c 0
 71 115 48 177 48 250 c 0
 48 323 71 385 117 436 c 0
 163 487 222 512 293 512 c 0
EndSplineSet
EndChar

StartChar: Dcaron
Encoding: 270 270 203
GlifName: D_caron
Width: 688
Flags: W
HStem: 0 60<163 396.859> 640 60<163 396.859> 744 48<267 353>
VStem: 103 60<60 640> 576 60<239.008 461.173>
LayerCount: 2
Fore
SplineSet
149 870 m 5
 231 870 l 5
 310 792 l 5
 389 870 l 5
 471 870 l 5
 353 744 l 5
 267 744 l 5
 149 870 l 5
286 640 m 2
 163 640 l 1
 163 60 l 1
 286 60 l 2
 366 60 434 88 491 145 c 0
 548 202 576 270 576 350 c 0
 576 430 548 498 491 555 c 0
 434 612 366 640 286 640 c 2
286 700 m 2
 383 700 465 666 533 598 c 0
 601 530 636 447 636 350 c 0
 636 253 601 171 533 103 c 0
 465 35 383 0 286 0 c 2
 103 0 l 1
 103 700 l 1
 286 700 l 2
EndSplineSet
EndChar

StartChar: dcaron
Encoding: 271 271 204
GlifName: dcaron
Width: 608
Flags: W
HStem: -12 60<203.894 378.714> 452 60<203.894 378.714> 679 20G<579.721 656>
VStem: 48 60<150.344 349.656> 471 60<149.177 350.823>
LayerCount: 2
Fore
SplineSet
532 527 m 1
 586 699 l 1
 656 699 l 1
 588 527 l 1
 532 527 l 1
293 452 m 0
 347 452 390 433 422 394 c 0
 454 355 471 308 471 250 c 0
 471 192 454 145 422 106 c 0
 390 67 347 48 293 48 c 0
 238 48 193 67 159 106 c 0
 125 145 108 193 108 250 c 0
 108 307 125 355 159 394 c 0
 193 433 238 452 293 452 c 0
293 512 m 0
 222 512 163 487 117 436 c 0
 71 385 48 324 48 250 c 0
 48 176 71 115 117 64 c 0
 163 13 222 -12 293 -12 c 0
 363 -12 416 13 455 62 c 0
 461 69 466 77 471 85 c 1
 471 0 l 1
 531 0 l 1
 531 700 l 1
 471 700 l 1
 471 415 l 1
 466 423 461 431 455 438 c 0
 416 487 363 512 293 512 c 0
EndSplineSet
EndChar

StartChar: Dcroat
Encoding: 272 272 205
GlifName: D_croat
Width: 688
Flags: W
HStem: 0 60<163 396.859> 319 60<53 301> 640 60<163 396.859>
VStem: 103 60<60 640> 576 60<239.008 461.173>
LayerCount: 2
Fore
SplineSet
286 640 m 2
 163 640 l 1
 163 60 l 1
 286 60 l 2
 366 60 434 88 491 145 c 0
 548 202 576 270 576 350 c 0
 576 430 548 498 491 555 c 0
 434 612 366 640 286 640 c 2
286 700 m 2
 383 700 465 666 533 598 c 0
 601 530 636 447 636 350 c 0
 636 253 601 171 533 103 c 0
 465 35 383 0 286 0 c 2
 103 0 l 1
 103 700 l 1
 286 700 l 2
53 319 m 1
 53 379 l 1
 301 379 l 1
 301 319 l 1
 53 319 l 1
EndSplineSet
EndChar

StartChar: dcroat
Encoding: 273 273 206
GlifName: dcroat
Width: 608
Flags: W
HStem: -12 60<203.894 378.714> 452 60<203.894 378.714>
VStem: 48 60<150.344 349.656> 471 60<149.177 350.823>
LayerCount: 2
Fore
SplineSet
293 452 m 0
 347 452 390 433 422 394 c 0
 454 355 471 308 471 250 c 0
 471 192 454 145 422 106 c 0
 390 67 347 48 293 48 c 0
 238 48 193 67 159 106 c 0
 125 145 108 193 108 250 c 0
 108 307 125 355 159 394 c 0
 193 433 238 452 293 452 c 0
293 512 m 0
 222 512 163 487 117 436 c 0
 71 385 48 324 48 250 c 0
 48 176 71 115 117 64 c 0
 163 13 222 -12 293 -12 c 0
 363 -12 416 13 455 62 c 0
 461 69 466 77 471 85 c 1
 471 0 l 1
 531 0 l 1
 531 700 l 1
 471 700 l 1
 471 415 l 1
 466 423 461 431 455 438 c 0
 416 487 363 512 293 512 c 0
603 566 m 1
 603 626 l 1
 333 626 l 1
 333 566 l 1
 603 566 l 1
EndSplineSet
EndChar

StartChar: Emacron
Encoding: 274 274 207
GlifName: E_macron
Width: 598
Flags: W
HStem: 0 60<163 506> 329 60<163 442> 640 60<163 506> 750 60<161 461>
VStem: 103 60<60 329 389 640>
LayerCount: 2
Fore
SplineSet
161 750 m 1
 161 810 l 1
 461 810 l 1
 461 750 l 1
 161 750 l 1
103 0 m 1
 103 700 l 1
 506 700 l 1
 506 640 l 1
 163 640 l 1
 163 389 l 1
 442 389 l 1
 442 329 l 1
 163 329 l 1
 163 60 l 1
 506 60 l 1
 506 0 l 1
 103 0 l 1
EndSplineSet
EndChar

StartChar: emacron
Encoding: 275 275 208
GlifName: emacron
Width: 554
Flags: W
HStem: -12 60<206.464 401.524> 220 60<110 456> 452 60<206.464 376.031> 580 60<139 439>
VStem: 48 62<148.75 220 280 351.25>
LayerCount: 2
Fore
SplineSet
517 220 m 5
 110 220 l 5
 116 170 136 129 169 97 c 4
 202 65 244 48 293 48 c 4
 363 48 417 68 456 107 c 5
 497 63 l 5
 447 13 379 -12 293 -12 c 4
 222 -12 163 13 117 64 c 4
 71 115 48 177 48 250 c 4
 48 323 71 385 117 436 c 4
 163 487 222 512 293 512 c 4
 363 512 417 488 457 438 c 4
 497 388 517 325 517 250 c 6
 517 220 l 5
293 452 m 4
 244 452 202 435 169 403 c 4
 136 371 116 330 110 280 c 5
 456 280 l 5
 451 331 435 372 407 404 c 4
 379 436 341 452 293 452 c 4
139 580 m 1
 139 640 l 1
 439 640 l 1
 439 580 l 1
 139 580 l 1
EndSplineSet
EndChar

StartChar: Ebreve
Encoding: 276 276 209
GlifName: E_breve
Width: 598
Flags: W
HStem: 0 60<163 506> 329 60<163 442> 640 60<163 506> 739 60<249.581 374.716>
VStem: 103 60<60 329 389 640> 165 60<822.671 870> 399 60<822.671 870>
LayerCount: 2
Fore
SplineSet
103 0 m 1
 103 700 l 1
 506 700 l 1
 506 640 l 1
 163 640 l 1
 163 389 l 1
 442 389 l 1
 442 329 l 1
 163 329 l 1
 163 60 l 1
 506 60 l 1
 506 0 l 1
 103 0 l 1
165 870 m 1
 225 870 l 1
 225 849 233 832 250 819 c 0
 267 806 287 799 312 799 c 0
 337 799 357 806 374 819 c 0
 391 832 399 849 399 870 c 1
 459 870 l 1
 459 834 445 803 417 777 c 0
 389 751 354 739 312 739 c 0
 270 739 236 751 208 777 c 0
 180 803 165 834 165 870 c 1
EndSplineSet
EndChar

StartChar: ebreve
Encoding: 277 277 210
GlifName: ebreve
Width: 554
Flags: W
HStem: -12 60<206.464 401.524> 220 60<110 456> 452 60<206.464 376.031> 569 60<227.581 352.716> 680 20G<143 203 377 437>
VStem: 48 62<148.75 220 280 351.25> 143 60<652.671 700> 377 60<652.671 700>
LayerCount: 2
Fore
SplineSet
517 220 m 5
 110 220 l 5
 116 170 136 129 169 97 c 4
 202 65 244 48 293 48 c 4
 363 48 417 68 456 107 c 5
 497 63 l 5
 447 13 379 -12 293 -12 c 4
 222 -12 163 13 117 64 c 4
 71 115 48 177 48 250 c 4
 48 323 71 385 117 436 c 4
 163 487 222 512 293 512 c 4
 363 512 417 488 457 438 c 4
 497 388 517 325 517 250 c 6
 517 220 l 5
293 452 m 4
 244 452 202 435 169 403 c 4
 136 371 116 330 110 280 c 5
 456 280 l 5
 451 331 435 372 407 404 c 4
 379 436 341 452 293 452 c 4
143 700 m 1
 203 700 l 1
 203 679 211 662 228 649 c 0
 245 636 265 629 290 629 c 0
 315 629 335 636 352 649 c 0
 369 662 377 679 377 700 c 1
 437 700 l 1
 437 664 423 633 395 607 c 0
 367 581 332 569 290 569 c 0
 248 569 214 581 186 607 c 0
 158 633 143 664 143 700 c 1
EndSplineSet
EndChar

StartChar: Edotaccent
Encoding: 278 278 211
GlifName: E_dotaccent
Width: 598
Flags: W
HStem: 0 60<163 506> 329 60<163 442> 640 60<163 506> 800 80<282.376 338.624>
VStem: 103 60<60 329 389 640> 271 80<812.376 868.624>
LayerCount: 2
Fore
SplineSet
351 840 m 0
 351 829 347 820 339 812 c 0
 331 804 322 800 311 800 c 0
 300 800 290 804 282 812 c 0
 274 820 271 829 271 840 c 0
 271 851 274 861 282 869 c 0
 290 877 300 880 311 880 c 0
 322 880 331 877 339 869 c 0
 347 861 351 851 351 840 c 0
103 0 m 1
 103 700 l 1
 506 700 l 1
 506 640 l 1
 163 640 l 1
 163 389 l 1
 442 389 l 1
 442 329 l 1
 163 329 l 1
 163 60 l 1
 506 60 l 1
 506 0 l 1
 103 0 l 1
EndSplineSet
EndChar

StartChar: edotaccent
Encoding: 279 279 212
GlifName: edotaccent
Width: 554
Flags: W
HStem: -12 60<206.464 401.524> 220 60<110 456> 452 60<206.464 376.031> 630 80<260.376 316.624>
VStem: 48 62<148.75 220 280 351.25> 249 80<642.376 698.624>
LayerCount: 2
Fore
SplineSet
517 220 m 5
 110 220 l 5
 116 170 136 129 169 97 c 4
 202 65 244 48 293 48 c 4
 363 48 417 68 456 107 c 5
 497 63 l 5
 447 13 379 -12 293 -12 c 4
 222 -12 163 13 117 64 c 4
 71 115 48 177 48 250 c 4
 48 323 71 385 117 436 c 4
 163 487 222 512 293 512 c 4
 363 512 417 488 457 438 c 4
 497 388 517 325 517 250 c 6
 517 220 l 5
293 452 m 4
 244 452 202 435 169 403 c 4
 136 371 116 330 110 280 c 5
 456 280 l 5
 451 331 435 372 407 404 c 4
 379 436 341 452 293 452 c 4
329 670 m 0
 329 659 325 650 317 642 c 0
 309 634 300 630 289 630 c 0
 278 630 268 634 260 642 c 0
 252 650 249 659 249 670 c 0
 249 681 252 691 260 699 c 0
 268 707 278 710 289 710 c 0
 300 710 309 707 317 699 c 0
 325 691 329 681 329 670 c 0
EndSplineSet
EndChar

StartChar: Eogonek
Encoding: 280 280 213
GlifName: E_ogonek
Width: 598
Flags: W
HStem: -212 55<406.185 493.322> 0 60<163 447 505 506> 329 60<163 442> 640 60<163 506>
VStem: 103 60<60 329 389 640> 344 55<-150.231 -73.7958>
LayerCount: 2
Fore
SplineSet
525 -170 m 5
 522 -175 518 -179 514 -183 c 4
 495 -202 471 -212 444 -212 c 4
 416 -212 393 -203 373 -183 c 4
 354 -164 344 -140 344 -114 c 4
 344 -85 356 -59 380 -35 c 4
 396 -19 419 -3 447 12 c 5
 505 12 l 5
 413 -81 l 6
 404 -90 399 -100 399 -112 c 4
 399 -124 404 -135 413 -144 c 4
 422 -153 432 -157 444 -157 c 4
 456 -157 466 -153 475 -144 c 4
 477 -142 480 -140 481 -138 c 13
 525 -170 l 5
103 0 m 1
 103 700 l 1
 506 700 l 1
 506 640 l 1
 163 640 l 1
 163 389 l 1
 442 389 l 1
 442 329 l 1
 163 329 l 1
 163 60 l 1
 506 60 l 1
 506 0 l 1
 103 0 l 1
EndSplineSet
EndChar

StartChar: eogonek
Encoding: 281 281 214
GlifName: eogonek
Width: 554
Flags: W
HStem: -195 55<357.962 441.823> -12 60<206.464 361.803> 220 60<110 456> 452 60<206.464 376.031>
VStem: 48 62<148.75 220 280 351.25> 293 55<-130.066 -54.624>
LayerCount: 2
Fore
SplineSet
517 220 m 5
 110 220 l 5
 116 170 136 129 169 97 c 4
 202 65 244 48 293 48 c 4
 363 48 417 68 456 107 c 5
 497 63 l 5
 447 13 379 -12 293 -12 c 4
 222 -12 163 13 117 64 c 4
 71 115 48 177 48 250 c 4
 48 323 71 385 117 436 c 4
 163 487 222 512 293 512 c 4
 363 512 417 488 457 438 c 4
 497 388 517 325 517 250 c 6
 517 220 l 5
293 452 m 4
 244 452 202 435 169 403 c 4
 136 371 116 330 110 280 c 5
 456 280 l 5
 451 331 435 372 407 404 c 4
 379 436 341 452 293 452 c 4
475 -153 m 1
 472 -158 467 -162 463 -166 c 0
 444 -185 420 -195 393 -195 c 0
 365 -195 342 -186 322 -166 c 0
 303 -147 293 -124 293 -98 c 0
 293 -69 305 -42 329 -18 c 0
 345 -2 368 14 396 29 c 1
 454 29 l 1
 361 -63 l 2
 352 -72 348 -83 348 -95 c 0
 348 -107 352 -118 361 -127 c 0
 370 -136 381 -140 393 -140 c 0
 405 -140 415 -136 424 -127 c 0
 426 -125 428 -123 429 -121 c 9
 475 -153 l 1
EndSplineSet
EndChar

StartChar: Ecaron
Encoding: 282 282 215
GlifName: E_caron
Width: 598
Flags: W
HStem: 0 60<163 506> 329 60<163 442> 640 60<163 506> 744 48<267 353>
VStem: 103 60<60 329 389 640>
LayerCount: 2
Fore
SplineSet
149 870 m 5
 231 870 l 5
 310 792 l 5
 389 870 l 5
 471 870 l 5
 353 744 l 5
 267 744 l 5
 149 870 l 5
103 0 m 1
 103 700 l 1
 506 700 l 1
 506 640 l 1
 163 640 l 1
 163 389 l 1
 442 389 l 1
 442 329 l 1
 163 329 l 1
 163 60 l 1
 506 60 l 1
 506 0 l 1
 103 0 l 1
EndSplineSet
EndChar

StartChar: ecaron
Encoding: 283 283 216
GlifName: ecaron
Width: 554
Flags: W
HStem: -12 60<206.464 401.524> 220 60<110 456> 452 60<206.464 376.031> 574 48<245 331> 680 20G<127 229.256 346.744 449>
VStem: 48 62<148.75 220 280 351.25>
LayerCount: 2
Fore
SplineSet
517 220 m 5
 110 220 l 5
 116 170 136 129 169 97 c 4
 202 65 244 48 293 48 c 4
 363 48 417 68 456 107 c 5
 497 63 l 5
 447 13 379 -12 293 -12 c 4
 222 -12 163 13 117 64 c 4
 71 115 48 177 48 250 c 4
 48 323 71 385 117 436 c 4
 163 487 222 512 293 512 c 4
 363 512 417 488 457 438 c 4
 497 388 517 325 517 250 c 6
 517 220 l 5
293 452 m 4
 244 452 202 435 169 403 c 4
 136 371 116 330 110 280 c 5
 456 280 l 5
 451 331 435 372 407 404 c 4
 379 436 341 452 293 452 c 4
127 700 m 1
 209 700 l 1
 288 622 l 1
 367 700 l 1
 449 700 l 1
 331 574 l 1
 245 574 l 1
 127 700 l 1
EndSplineSet
EndChar

StartChar: Gcircumflex
Encoding: 284 284 217
GlifName: G_circumflex
Width: 771
Flags: W
HStem: -12 60<281.675 499.021> 320 60<479 668> 652 60<281.675 499.658> 825 46<352 434>
VStem: 53 60<230.064 469.936>
LayerCount: 2
Fore
SplineSet
232 745 m 1
 352 871 l 1
 434 871 l 1
 554 745 l 1
 472 745 l 1
 393 825 l 5
 314 745 l 1
 232 745 l 1
391 712 m 0
 441 712 489 703 531 683 c 0
 573 663 610 636 641 600 c 1
 597 556 l 1
 543 620 475 652 391 652 c 0
 310 652 243 623 191 564 c 0
 139 505 113 434 113 350 c 0
 113 266 139 195 191 136 c 0
 243 77 310 48 391 48 c 0
 475 48 543 80 597 144 c 0
 638 193 662 252 668 320 c 1
 479 320 l 1
 479 380 l 1
 729 380 l 1
 729 350 l 2
 729 252 699 168 640 100 c 0
 609 65 573 38 530 18 c 0
 487 -2 441 -12 391 -12 c 0
 292 -12 211 23 148 93 c 0
 85 163 53 248 53 350 c 0
 53 452 85 537 148 607 c 0
 211 677 292 712 391 712 c 0
EndSplineSet
EndChar

StartChar: gcircumflex
Encoding: 285 285 218
GlifName: gcircumflex
Width: 595
Flags: W
HStem: -212 55<160.177 368.438> 0 61<199.754 372.069> 452 60<200.847 372.069> 480 20G<458 518> 654 46<268 350>
VStem: 48 60<159.386 352.852> 458 60<-56.258 91 157.026 355.722 421 500>
LayerCount: 2
Fore
SplineSet
148 574 m 1xce
 268 700 l 1
 350 700 l 1
 470 574 l 1
 388 574 l 1
 309 654 l 5
 230 574 l 1
 148 574 l 1xce
287 452 m 0xee
 235 452 191 433 158 395 c 0
 125 357 108 311 108 256 c 0
 108 201 125 155 158 117 c 0
 191 79 234 61 287 61 c 0
 339 61 380 79 411 117 c 0
 442 155 458 201 458 256 c 4
 458 311 442 358 411 396 c 0
 380 434 339 452 287 452 c 0xee
287 512 m 0
 355 512 407 487 445 439 c 0
 449 433 454 427 458 421 c 1
 458 500 l 1
 518 500 l 1xde
 518 46 l 2
 518 -29 496 -92 451 -140 c 0
 406 -188 348 -212 277 -212 c 0
 212 -212 151 -195 94 -162 c 1
 119 -114 l 1
 163 -143 216 -157 277 -157 c 0
 336 -157 380 -138 411 -98 c 0
 442 -58 458 -11 458 46 c 2
 458 91 l 1
 454 85 449 79 445 73 c 0
 407 25 355 0 287 0 c 0
 218 0 160 26 115 75 c 0
 70 124 48 184 48 256 c 0
 48 328 70 389 115 438 c 0
 160 487 218 512 287 512 c 0
EndSplineSet
EndChar

StartChar: Gbreve
Encoding: 286 286 219
GlifName: G_breve
Width: 771
Flags: W
HStem: -12 60<281.675 499.021> 320 60<479 668> 652 60<281.675 499.658> 769 60<326.581 451.716>
VStem: 53 60<230.064 469.936> 242 60<851.683 900> 476 60<851.683 900>
LayerCount: 2
Fore
SplineSet
242 900 m 1
 302 900 l 1
 302 879 310 862 327 849 c 0
 344 836 364 829 389 829 c 0
 414 829 434 836 451 849 c 0
 468 862 476 879 476 900 c 1
 536 900 l 1
 536 864 522 834 494 808 c 0
 466 782 431 769 389 769 c 0
 347 769 313 782 285 808 c 0
 257 834 242 864 242 900 c 1
391 712 m 0
 441 712 489 703 531 683 c 0
 573 663 610 636 641 600 c 1
 597 556 l 1
 543 620 475 652 391 652 c 0
 310 652 243 623 191 564 c 0
 139 505 113 434 113 350 c 0
 113 266 139 195 191 136 c 0
 243 77 310 48 391 48 c 0
 475 48 543 80 597 144 c 0
 638 193 662 252 668 320 c 1
 479 320 l 1
 479 380 l 1
 729 380 l 1
 729 350 l 2
 729 252 699 168 640 100 c 0
 609 65 573 38 530 18 c 0
 487 -2 441 -12 391 -12 c 0
 292 -12 211 23 148 93 c 0
 85 163 53 248 53 350 c 0
 53 452 85 537 148 607 c 0
 211 677 292 712 391 712 c 0
EndSplineSet
EndChar

StartChar: gbreve
Encoding: 287 287 220
GlifName: gbreve
Width: 595
Flags: W
HStem: -212 55<160.177 368.438> 0 61<199.754 372.069> 452 60<200.847 372.069> 480 20G<458 518> 569 60<257.284 382.419> 680 20G<173 233 407 467>
VStem: 48 60<159.386 352.852> 173 60<652.671 700> 407 60<652.671 700> 458 60<-56.258 91 157.026 355.722 421 500>
LayerCount: 2
Fore
SplineSet
173 700 m 5xcf80
 233 700 l 5
 233 679 241 662 258 649 c 4
 275 636 295 629 320 629 c 4
 345 629 365 636 382 649 c 4
 399 662 407 679 407 700 c 5
 467 700 l 5
 467 664 452 633 424 607 c 4
 396 581 362 569 320 569 c 4
 278 569 243 581 215 607 c 4
 187 633 173 664 173 700 c 5xcf80
287 452 m 0xef40
 235 452 191 433 158 395 c 0
 125 357 108 311 108 256 c 0
 108 201 125 155 158 117 c 0
 191 79 234 61 287 61 c 0
 339 61 380 79 411 117 c 0
 442 155 458 201 458 256 c 0
 458 311 442 358 411 396 c 0
 380 434 339 452 287 452 c 0xef40
287 512 m 0
 355 512 407 487 445 439 c 0
 449 433 454 427 458 421 c 1
 458 500 l 1
 518 500 l 1xdf40
 518 46 l 2
 518 -29 496 -92 451 -140 c 0
 406 -188 348 -212 277 -212 c 0
 212 -212 151 -195 94 -162 c 1
 119 -114 l 1
 163 -143 216 -157 277 -157 c 0
 336 -157 380 -138 411 -98 c 0
 442 -58 458 -11 458 46 c 2
 458 91 l 1
 454 85 449 79 445 73 c 0
 407 25 355 0 287 0 c 0
 218 0 160 26 115 75 c 0
 70 124 48 184 48 256 c 0
 48 328 70 389 115 438 c 0
 160 487 218 512 287 512 c 0
EndSplineSet
EndChar

StartChar: Gdotaccent
Encoding: 288 288 221
GlifName: G_dotaccent
Width: 771
Flags: W
HStem: -12 60<281.675 499.021> 320 60<479 668> 652 60<281.675 499.658> 830 80<360.376 417.624>
VStem: 53 60<230.064 469.936> 349 80<841.376 897.624>
LayerCount: 2
Fore
SplineSet
429 870 m 4
 429 859 426 849 418 841 c 4
 410 833 400 830 389 830 c 4
 378 830 368 833 360 841 c 4
 352 849 349 859 349 870 c 4
 349 881 352 890 360 898 c 4
 368 906 378 910 389 910 c 4
 400 910 410 906 418 898 c 4
 426 890 429 881 429 870 c 4
391 712 m 0
 441 712 489 703 531 683 c 0
 573 663 610 636 641 600 c 1
 597 556 l 1
 543 620 475 652 391 652 c 0
 310 652 243 623 191 564 c 0
 139 505 113 434 113 350 c 0
 113 266 139 195 191 136 c 0
 243 77 310 48 391 48 c 0
 475 48 543 80 597 144 c 0
 638 193 662 252 668 320 c 1
 479 320 l 1
 479 380 l 1
 729 380 l 1
 729 350 l 2
 729 252 699 168 640 100 c 0
 609 65 573 38 530 18 c 0
 487 -2 441 -12 391 -12 c 0
 292 -12 211 23 148 93 c 0
 85 163 53 248 53 350 c 0
 53 452 85 537 148 607 c 0
 211 677 292 712 391 712 c 0
EndSplineSet
EndChar

StartChar: gdotaccent
Encoding: 289 289 222
GlifName: gdotaccent
Width: 595
Flags: W
HStem: -212 55<160.177 368.438> 0 61<199.754 372.069> 452 60<200.847 372.069> 480 20G<458 518> 630 80<281.376 337.624>
VStem: 48 60<159.386 352.852> 270 80<642.376 698.624> 458 60<-56.258 91 157.026 355.722 421 500>
LayerCount: 2
Fore
SplineSet
350 670 m 4xcf
 350 659 346 650 338 642 c 4
 330 634 321 630 310 630 c 4
 299 630 289 634 281 642 c 4
 273 650 270 659 270 670 c 4
 270 681 273 691 281 699 c 4
 289 707 299 710 310 710 c 4
 321 710 330 707 338 699 c 4
 346 691 350 681 350 670 c 4xcf
287 452 m 0xef
 235 452 191 433 158 395 c 0
 125 357 108 311 108 256 c 0
 108 201 125 155 158 117 c 0
 191 79 234 61 287 61 c 0
 339 61 380 79 411 117 c 0
 442 155 458 201 458 256 c 0
 458 311 442 358 411 396 c 0
 380 434 339 452 287 452 c 0xef
287 512 m 0
 355 512 407 487 445 439 c 0
 449 433 454 427 458 421 c 1
 458 500 l 1
 518 500 l 1xdf
 518 46 l 2
 518 -29 496 -92 451 -140 c 0
 406 -188 348 -212 277 -212 c 0
 212 -212 151 -195 94 -162 c 1
 119 -114 l 1
 163 -143 216 -157 277 -157 c 0
 336 -157 380 -138 411 -98 c 0
 442 -58 458 -11 458 46 c 2
 458 91 l 1
 454 85 449 79 445 73 c 0
 407 25 355 0 287 0 c 0
 218 0 160 26 115 75 c 0
 70 124 48 184 48 256 c 0
 48 328 70 389 115 438 c 0
 160 487 218 512 287 512 c 0
EndSplineSet
EndChar

StartChar: uni0122
Encoding: 290 290 223
GlifName: uni0122
Width: 771
Flags: W
HStem: -200 21G<347 411.088> -12 60<281.675 499.021> 320 60<479 668> 652 60<281.675 499.658>
VStem: 53 60<230.064 469.936>
LayerCount: 2
Fore
SplineSet
347 -200 m 5
 387 -64 l 1
 458 -64 l 1
 403 -200 l 5
 347 -200 l 5
391 712 m 0
 441 712 489 703 531 683 c 0
 573 663 610 636 641 600 c 1
 597 556 l 1
 543 620 475 652 391 652 c 0
 310 652 243 623 191 564 c 0
 139 505 113 434 113 350 c 0
 113 266 139 195 191 136 c 0
 243 77 310 48 391 48 c 0
 475 48 543 80 597 144 c 0
 638 193 662 252 668 320 c 1
 479 320 l 1
 479 380 l 1
 729 380 l 1
 729 350 l 2
 729 252 699 168 640 100 c 0
 609 65 573 38 530 18 c 0
 487 -2 441 -12 391 -12 c 0
 292 -12 211 23 148 93 c 0
 85 163 53 248 53 350 c 0
 53 452 85 537 148 607 c 0
 211 677 292 712 391 712 c 0
EndSplineSet
EndChar

StartChar: uni0123
Encoding: 291 291 224
GlifName: uni0123
Width: 595
Flags: W
HStem: -212 55<160.177 368.438> 0 61<199.754 372.069> 452 60<200.847 372.069> 480 20G<458 518> 693 20G<308.767 375>
VStem: 48 60<159.386 352.852> 458 60<-56.258 91 157.026 355.722 421 500>
LayerCount: 2
Fore
SplineSet
287 452 m 0xee
 235 452 191 433 158 395 c 0
 125 357 108 311 108 256 c 0
 108 201 125 155 158 117 c 0
 191 79 234 61 287 61 c 0
 339 61 380 79 411 117 c 0
 442 155 458 201 458 256 c 4
 458 311 442 358 411 396 c 0
 380 434 339 452 287 452 c 0xee
287 512 m 0
 355 512 407 487 445 439 c 0
 449 433 454 427 458 421 c 1
 458 500 l 1
 518 500 l 1xde
 518 46 l 2
 518 -29 496 -92 451 -140 c 0
 406 -188 348 -212 277 -212 c 0
 212 -212 151 -195 94 -162 c 1
 119 -114 l 1
 163 -143 216 -157 277 -157 c 0
 336 -157 380 -138 411 -98 c 0
 442 -58 458 -11 458 46 c 2
 458 91 l 1
 454 85 449 79 445 73 c 0
 407 25 355 0 287 0 c 0
 218 0 160 26 115 75 c 0
 70 124 48 184 48 256 c 0
 48 328 70 389 115 438 c 0
 160 487 218 512 287 512 c 0
375 713 m 5
 324 584 l 5
 253 584 l 5
 319 713 l 5
 375 713 l 5
EndSplineSet
EndChar

StartChar: Hcircumflex
Encoding: 292 292 225
GlifName: H_circumflex
Width: 732
Flags: W
HStem: 0 21G<103 163 570 630> 331 60<163 570> 680 20G<103 163 570 630> 824 46<326 408>
VStem: 103 60<0 331 391 700> 570 60<0 331 391 700>
LayerCount: 2
Fore
SplineSet
206 744 m 1
 326 870 l 1
 408 870 l 1
 528 744 l 1
 446 744 l 1
 367 824 l 5
 288 744 l 1
 206 744 l 1
103 0 m 1
 103 700 l 1
 163 700 l 1
 163 391 l 1
 570 391 l 1
 570 700 l 1
 630 700 l 1
 630 0 l 1
 570 0 l 1
 570 331 l 1
 163 331 l 1
 163 0 l 1
 103 0 l 1
EndSplineSet
EndChar

StartChar: hcircumflex
Encoding: 293 293 226
GlifName: hcircumflex
Width: 559
Flags: W
HStem: 0 21G<78 138 437 497> 452 60<213.231 363.151> 680 20G<78 138> 854 46<66 148>
VStem: 78 60<0 369.649 432 700> 437 60<0 370.142>
LayerCount: 2
Fore
SplineSet
-54 774 m 1
 66 900 l 1
 148 900 l 1
 268 774 l 1
 186 774 l 1
 107 854 l 1
 28 774 l 1
 -54 774 l 1
497 0 m 1
 437 0 l 1
 437 268 l 2
 437 325 423 369 395 402 c 0
 367 435 331 452 288 452 c 0
 245 452 209 435 181 402 c 0
 153 369 138 325 138 268 c 2
 138 0 l 1
 78 0 l 1
 78 700 l 1
 138 700 l 1
 138 432 l 1
 141 437 145 442 148 446 c 0
 183 490 230 512 288 512 c 0
 348 512 397 489 437 445 c 0
 477 401 497 341 497 268 c 2
 497 0 l 1
EndSplineSet
EndChar

StartChar: Hbar
Encoding: 294 294 227
GlifName: H_bar
Width: 732
Flags: W
HStem: 0 21G<103 163 570 630> 331 60<163 570> 500 60<8 724> 680 20G<103 163 570 630>
VStem: 103 60<0 331 391 700> 570 60<0 331 391 700>
LayerCount: 2
Fore
SplineSet
103 0 m 1
 103 700 l 1
 163 700 l 1
 163 391 l 1
 570 391 l 1
 570 700 l 1
 630 700 l 1
 630 0 l 1
 570 0 l 1
 570 331 l 1
 163 331 l 1
 163 0 l 1
 103 0 l 1
8 500 m 1
 8 560 l 1
 724 560 l 1
 724 500 l 1
 8 500 l 1
EndSplineSet
EndChar

StartChar: hbar
Encoding: 295 295 228
GlifName: hbar
Width: 559
Flags: W
HStem: 0 21G<78 138 437 497> 452 60<213.231 363.151> 569 60<3 311> 680 20G<78 138>
VStem: 78 60<0 369.649 432 700> 437 60<0 370.142>
LayerCount: 2
Fore
SplineSet
497 0 m 1
 437 0 l 1
 437 268 l 2
 437 325 423 369 395 402 c 0
 367 435 331 452 288 452 c 0
 245 452 209 435 181 402 c 0
 153 369 138 325 138 268 c 2
 138 0 l 1
 78 0 l 1
 78 700 l 1
 138 700 l 1
 138 432 l 1
 141 437 145 442 148 446 c 0
 183 490 230 512 288 512 c 0
 348 512 397 489 437 445 c 0
 477 401 497 341 497 268 c 2
 497 0 l 1
3 569 m 1
 3 629 l 1
 311 629 l 1
 311 569 l 1
 3 569 l 1
EndSplineSet
EndChar

StartChar: Itilde
Encoding: 296 296 229
GlifName: I_tilde
Width: 265
Flags: W
HStem: 0 21G<103 163> 680 20G<103 163> 742 56<157.662 225.975> 814 56<41.5843 107.805>
VStem: -23 59<777 809.45> 103 60<0 700> 231 59<801.411 836>
LayerCount: 2
Fore
SplineSet
103 0 m 1
 103 700 l 1
 163 700 l 1
 163 0 l 1
 103 0 l 1
193 742 m 0
 164 742 140 754 120 778 c 0
 112 787 105 796 98 803 c 0
 91 810 84 814 76 814 c 0
 55 814 42 802 36 777 c 1
 -23 777 l 1
 -20 803 -9 824 10 842 c 0
 29 860 51 870 76 870 c 0
 101 870 124 858 145 834 c 0
 153 825 161 816 168 809 c 0
 175 802 184 798 193 798 c 0
 214 798 227 811 231 836 c 1
 290 836 l 1
 286 809 275 787 257 769 c 0
 239 751 218 742 193 742 c 0
EndSplineSet
EndChar

StartChar: itilde
Encoding: 297 297 230
GlifName: itilde
Width: 225
Flags: W
HStem: 0 21G<82 142> 480 20G<82 142> 572 56<135.662 203.975> 644 56<19.5843 85.8054>
VStem: -45 59<607 639.45> 82 60<0 500> 209 59<631.411 666>
LayerCount: 2
Fore
SplineSet
82 0 m 1
 82 500 l 1
 142 500 l 1
 142 0 l 1
 82 0 l 1
171 572 m 0
 142 572 118 584 98 608 c 0
 90 617 83 626 76 633 c 0
 69 640 62 644 54 644 c 0
 33 644 20 632 14 607 c 1
 -45 607 l 1
 -42 633 -31 654 -12 672 c 0
 7 690 29 700 54 700 c 0
 79 700 102 688 123 664 c 0
 131 655 139 646 146 639 c 0
 153 632 162 628 171 628 c 0
 192 628 205 641 209 666 c 1
 268 666 l 1
 264 639 253 617 235 599 c 0
 217 581 196 572 171 572 c 0
EndSplineSet
EndChar

StartChar: Imacron
Encoding: 298 298 231
GlifName: I_macron
Width: 265
Flags: W
HStem: 0 21G<103 163> 680 20G<103 163> 750 60<-17 283>
VStem: 103 60<0 700>
LayerCount: 2
Fore
SplineSet
-17 750 m 1
 -17 810 l 1
 283 810 l 1
 283 750 l 1
 -17 750 l 1
103 0 m 1
 103 700 l 1
 163 700 l 1
 163 0 l 1
 103 0 l 1
EndSplineSet
EndChar

StartChar: imacron
Encoding: 299 299 232
GlifName: imacron
Width: 225
Flags: W
HStem: 0 21G<82 142> 480 20G<82 142> 580 57<-12 238>
VStem: 82 60<0 500>
LayerCount: 2
Fore
SplineSet
-12 580 m 1
 -12 637 l 1
 238 637 l 1
 238 580 l 1
 -12 580 l 1
82 0 m 1
 82 500 l 1
 142 500 l 1
 142 0 l 1
 82 0 l 1
EndSplineSet
EndChar

StartChar: Ibreve
Encoding: 300 300 233
GlifName: I_breve
Width: 265
Flags: W
HStem: 0 21G<103 163> 680 20G<103 163> 739 60<69.2843 194.419>
VStem: -15 60<822.671 870> 103 60<0 700> 219 60<822.671 870>
LayerCount: 2
Fore
SplineSet
103 0 m 1
 103 700 l 1
 163 700 l 1
 163 0 l 1
 103 0 l 1
-15 870 m 1
 45 870 l 1
 45 849 53 832 70 819 c 0
 87 806 107 799 132 799 c 0
 157 799 177 806 194 819 c 0
 211 832 219 849 219 870 c 1
 279 870 l 1
 279 834 264 803 236 777 c 0
 208 751 174 739 132 739 c 0
 90 739 55 751 27 777 c 0
 -1 803 -15 834 -15 870 c 1
EndSplineSet
EndChar

StartChar: ibreve
Encoding: 301 301 234
GlifName: ibreve
Width: 225
Flags: W
HStem: 0 21G<82 142> 480 20G<82 142> 569 60<50.2843 175.419> 680 20G<-34 26 200 260>
VStem: -34 60<652.671 700> 82 60<0 500> 200 60<652.671 700>
LayerCount: 2
Fore
SplineSet
82 0 m 1
 82 500 l 1
 142 500 l 1
 142 0 l 1
 82 0 l 1
-34 700 m 1
 26 700 l 1
 26 679 34 662 51 649 c 0
 68 636 88 629 113 629 c 0
 138 629 158 636 175 649 c 0
 192 662 200 679 200 700 c 1
 260 700 l 1
 260 664 245 633 217 607 c 0
 189 581 155 569 113 569 c 0
 71 569 36 581 8 607 c 0
 -20 633 -34 664 -34 700 c 1
EndSplineSet
EndChar

StartChar: Iogonek
Encoding: 302 302 235
GlifName: I_ogonek
Width: 265
Flags: W
HStem: -212 55<65.9617 149.823> 0 21G<103 163> 680 20G<103 163>
VStem: 1 55<-146.805 -72.4531> 103 60<12 700>
LayerCount: 2
Fore
SplineSet
183 -170 m 1
 180 -175 175 -179 171 -183 c 0
 152 -202 128 -212 101 -212 c 0
 73 -212 50 -203 30 -183 c 0
 11 -164 1 -140 1 -114 c 0
 1 -85 13 -59 37 -35 c 0
 53 -19 76 -3 104 12 c 1
 162 12 l 1
 69 -81 l 2
 60 -90 56 -100 56 -112 c 0
 56 -124 60 -135 69 -144 c 0
 78 -153 89 -157 101 -157 c 0
 113 -157 123 -153 132 -144 c 0
 134 -142 136 -140 137 -138 c 9
 183 -170 l 1
103 0 m 1
 103 700 l 1
 163 700 l 1
 163 0 l 1
 103 0 l 1
EndSplineSet
EndChar

StartChar: iogonek
Encoding: 303 303 236
GlifName: iogonek
Width: 225
Flags: W
HStem: -212 55<44.9617 128.823> 0 21G<82 142> 480 20G<82 142> 630 80<85.3757 141.624>
VStem: -20 55<-146.805 -72.4531> 73 80<642.376 698.624> 82 60<12 500>
LayerCount: 2
Fore
SplineSet
162 -170 m 1xf8
 159 -175 154 -179 150 -183 c 0
 131 -202 107 -212 80 -212 c 0
 52 -212 29 -203 9 -183 c 0
 -10 -164 -20 -140 -20 -114 c 0
 -20 -85 -8 -59 16 -35 c 0
 32 -19 55 -3 83 12 c 1
 141 12 l 1
 48 -81 l 2
 39 -90 35 -100 35 -112 c 0
 35 -124 39 -135 48 -144 c 0
 57 -153 68 -157 80 -157 c 0
 92 -157 102 -153 111 -144 c 0
 113 -142 115 -140 116 -138 c 9
 162 -170 l 1xf8
153 670 m 0xfc
 153 659 150 650 142 642 c 0xfa
 134 634 124 630 113 630 c 0
 102 630 93 634 85 642 c 0
 77 650 73 659 73 670 c 0xfc
 73 681 77 691 85 699 c 0
 93 707 102 710 113 710 c 0
 124 710 134 707 142 699 c 0xfa
 150 691 153 681 153 670 c 0xfc
82 0 m 1
 82 500 l 1
 142 500 l 1
 142 0 l 1
 82 0 l 1
EndSplineSet
EndChar

StartChar: Idotaccent
Encoding: 304 304 237
GlifName: I_dotaccent
Width: 265
Flags: W
HStem: 0 21G<103 163> 680 20G<103 163> 800 80<105.376 161.624>
VStem: 93 80<812.376 868.624> 103 60<0 700>
LayerCount: 2
Fore
SplineSet
173 840 m 0xf0
 173 829 170 820 162 812 c 0
 154 804 144 800 133 800 c 0
 122 800 113 804 105 812 c 0
 97 820 93 829 93 840 c 0
 93 851 97 861 105 869 c 0
 113 877 122 880 133 880 c 0
 144 880 154 877 162 869 c 0
 170 861 173 851 173 840 c 0xf0
103 0 m 1xe8
 103 700 l 1
 163 700 l 1
 163 0 l 1
 103 0 l 1xe8
EndSplineSet
EndChar

StartChar: dotlessi
Encoding: 305 305 238
GlifName: dotlessi
Width: 225
Flags: W
HStem: 0 21G<82 142> 480 20G<82 142>
VStem: 82 60<0 500>
LayerCount: 2
Fore
SplineSet
82 0 m 1
 82 500 l 1
 142 500 l 1
 142 0 l 1
 82 0 l 1
EndSplineSet
EndChar

StartChar: IJ
Encoding: 306 306 239
GlifName: I_J_
Width: 769
Flags: W
HStem: -11 60<330.905 467.407> 0 21G<103 163> 680 20G<103 163 520 580>
VStem: 103 60<0 700> 520 60<101.861 700>
LayerCount: 2
Fore
SplineSet
520 700 m 1xb8
 580 700 l 1
 580 169 l 2
 580 119 562 77 527 42 c 0
 492 7 450 -11 400 -11 c 0
 350 -11 308 7 273 42 c 1
 315 84 l 1
 338 61 367 49 400 49 c 0
 432 49 460 61 484 85 c 0
 508 109 520 137 520 169 c 2
 520 700 l 1xb8
103 0 m 1x78
 103 700 l 1
 163 700 l 1
 163 0 l 1
 103 0 l 1x78
EndSplineSet
EndChar

StartChar: ij
Encoding: 307 307 240
GlifName: ij
Width: 485
Flags: W
HStem: -215 60<173 247.883> 0 21G<82 142> 480 20G<82 142 321 381> 632 80<85.3757 141.624 322.376 378.624>
VStem: 73 80<642.376 698.624> 82 60<0 500> 311 80<644.376 700.624> 321 60<-81.8828 500>
LayerCount: 2
Fore
SplineSet
321 500 m 5xf1
 381 500 l 5
 381 -7 l 6
 381 -64 361 -113 320 -154 c 4
 279 -195 230 -215 173 -215 c 5
 173 -155 l 5
 214 -155 248 -140 277 -111 c 4
 306 -82 321 -48 321 -7 c 6
 321 500 l 5xf1
391 672 m 4xf2
 391 661 387 652 379 644 c 4
 371 636 362 632 351 632 c 4
 340 632 330 636 322 644 c 4
 314 652 311 661 311 672 c 4
 311 683 314 693 322 701 c 4
 330 709 340 712 351 712 c 4
 362 712 371 709 379 701 c 4
 387 693 391 683 391 672 c 4xf2
153 670 m 0xf8
 153 659 150 650 142 642 c 0xf4
 134 634 124 630 113 630 c 0
 102 630 93 634 85 642 c 0
 77 650 73 659 73 670 c 0xf8
 73 681 77 691 85 699 c 0
 93 707 102 710 113 710 c 0
 124 710 134 707 142 699 c 0xf4
 150 691 153 681 153 670 c 0xf8
82 0 m 1
 82 500 l 1
 142 500 l 1
 142 0 l 1
 82 0 l 1
EndSplineSet
EndChar

StartChar: Jcircumflex
Encoding: 308 308 241
GlifName: J_circumflex
Width: 408
Flags: W
HStem: -11 60<66.9046 203.407> 680 20G<256 316> 824 46<241 323>
VStem: 256 60<101.861 700>
LayerCount: 2
Fore
SplineSet
121 744 m 1
 241 870 l 1
 323 870 l 1
 443 744 l 1
 361 744 l 1
 282 824 l 1
 203 744 l 1
 121 744 l 1
256 700 m 1
 316 700 l 1
 316 169 l 2
 316 119 298 77 263 42 c 0
 228 7 186 -11 136 -11 c 0
 86 -11 44 7 9 42 c 1
 51 84 l 1
 74 61 103 49 136 49 c 0
 168 49 196 61 220 85 c 0
 244 109 256 137 256 169 c 2
 256 700 l 1
EndSplineSet
EndChar

StartChar: jcircumflex
Encoding: 309 309 242
GlifName: jcircumflex
Width: 243
Flags: W
HStem: -215 60<-47 30.1973> 480 20G<101 161> 654 46<81 163>
VStem: 101 60<-83.7975 500>
LayerCount: 2
Fore
SplineSet
-39 574 m 1
 81 700 l 1
 163 700 l 1
 283 574 l 1
 201 574 l 1
 122 654 l 1
 43 574 l 1
 -39 574 l 1
101 500 m 1
 161 500 l 1
 161 -7 l 2
 161 -64 141 -113 100 -154 c 0
 59 -195 10 -215 -47 -215 c 1
 -47 -155 l 1
 -6 -155 29 -140 58 -111 c 0
 87 -82 101 -48 101 -7 c 2
 101 500 l 1
EndSplineSet
EndChar

StartChar: uni0136
Encoding: 310 310 243
GlifName: uni0136
Width: 593
Flags: W
HStem: -200 21G<226 290.088> 0 21G<103 163 491.54 586> 680 20G<103 163 474.587 576>
VStem: 103 60<0 271 359 700>
LayerCount: 2
Fore
SplineSet
226 -200 m 5
 266 -64 l 1
 337 -64 l 1
 282 -200 l 5
 226 -200 l 5
103 0 m 1
 103 700 l 1
 163 700 l 1
 163 359 l 1
 494 700 l 1
 576 700 l 1
 270 383 l 1
 586 0 l 1
 508 0 l 1
 229 339 l 1
 163 271 l 1
 163 0 l 1
 103 0 l 1
EndSplineSet
EndChar

StartChar: uni0137
Encoding: 311 311 244
GlifName: uni0137
Width: 470
Flags: W
HStem: -200 21G<171 235.088> 0 21G<78 138 381.409 468> 480 20G<348.753 450> 680 20G<78 138>
VStem: 78 60<0 175 261 700>
LayerCount: 2
Fore
SplineSet
171 -200 m 5
 211 -64 l 1
 282 -64 l 1
 227 -200 l 5
 171 -200 l 5
78 0 m 1
 78 700 l 1
 138 700 l 1
 138 261 l 1
 368 500 l 1
 450 500 l 1
 261 303 l 1
 468 0 l 1
 395 0 l 1
 219 259 l 1
 138 175 l 1
 138 0 l 1
 78 0 l 1
EndSplineSet
EndChar

StartChar: Lacute
Encoding: 313 313 245
GlifName: L_acute
Width: 518
Flags: W
HStem: 0 60<163 506> 680 20G<103 163>
VStem: 103 60<60 700>
LayerCount: 2
Fore
SplineSet
97 744 m 1
 206 870 l 1
 295 870 l 1
 173 744 l 1
 97 744 l 1
103 0 m 1
 103 700 l 1
 163 700 l 1
 163 60 l 1
 506 60 l 1
 506 0 l 1
 103 0 l 1
EndSplineSet
EndChar

StartChar: lacute
Encoding: 314 314 246
GlifName: lacute
Width: 215
Flags: W
HStem: 0 21G<78 138> 680 20G<78 138>
VStem: 78 60<0 700>
LayerCount: 2
Fore
SplineSet
70 744 m 1
 179 870 l 1
 268 870 l 1
 146 744 l 1
 70 744 l 1
78 700 m 1
 138 700 l 1
 138 0 l 1
 78 0 l 1
 78 700 l 1
EndSplineSet
EndChar

StartChar: uni013B
Encoding: 315 315 247
GlifName: uni013B_
Width: 518
Flags: W
HStem: -200 21G<216 280.088> 0 60<163 506> 680 20G<103 163>
VStem: 103 60<60 700>
LayerCount: 2
Fore
SplineSet
216 -200 m 5
 256 -64 l 1
 327 -64 l 1
 272 -200 l 5
 216 -200 l 5
103 0 m 1
 103 700 l 1
 163 700 l 1
 163 60 l 1
 506 60 l 1
 506 0 l 1
 103 0 l 1
EndSplineSet
EndChar

StartChar: uni013C
Encoding: 316 316 248
GlifName: uni013C_
Width: 215
Flags: W
HStem: -200 21G<39 102.794> 0 21G<78 138> 680 20G<79.9429 138>
VStem: 78 60<0 700>
LayerCount: 2
Fore
SplineSet
39 -200 m 1
 77 -64 l 1
 148 -64 l 1
 95 -200 l 1
 39 -200 l 1
80 700 m 5
 138 700 l 1
 138 0 l 1
 78 0 l 1
 80 700 l 5
EndSplineSet
EndChar

StartChar: Lcaron
Encoding: 317 317 249
GlifName: L_caron
Width: 518
Flags: W
HStem: 0 60<163 506> 680 20G<103 163>
VStem: 103 60<60 700>
LayerCount: 2
Fore
SplineSet
230 586 m 1
 283 758 l 5
 354 758 l 5
 286 586 l 1
 230 586 l 1
103 0 m 1
 103 700 l 1
 163 700 l 1
 163 60 l 1
 506 60 l 1
 506 0 l 1
 103 0 l 1
EndSplineSet
EndChar

StartChar: lcaron
Encoding: 318 318 250
GlifName: lcaron
Width: 215
Flags: W
HStem: 0 21G<78 138> 679 20G<78 138 199.837 277>
VStem: 78 60<0 700>
LayerCount: 2
Fore
SplineSet
153 527 m 1
 206 699 l 1
 277 699 l 1
 209 527 l 1
 153 527 l 1
78 700 m 1
 138 700 l 1
 138 0 l 1
 78 0 l 1
 78 700 l 1
EndSplineSet
EndChar

StartChar: Ldot
Encoding: 319 319 251
GlifName: L_dot
Width: 518
Flags: W
HStem: 0 60<163 506> 330 80<323.376 379.624> 680 20G<103 163>
VStem: 103 60<60 700> 312 80<341.376 397.624>
LayerCount: 2
Fore
SplineSet
103 0 m 1
 103 700 l 1
 163 700 l 1
 163 60 l 1
 506 60 l 1
 506 0 l 1
 103 0 l 1
392 370 m 0
 392 359 388 349 380 341 c 0
 372 333 363 330 352 330 c 0
 341 330 331 333 323 341 c 0
 315 349 312 359 312 370 c 0
 312 381 315 390 323 398 c 0
 331 406 341 410 352 410 c 0
 363 410 372 406 380 398 c 0
 388 390 392 381 392 370 c 0
EndSplineSet
EndChar

StartChar: ldot
Encoding: 320 320 252
GlifName: ldot
Width: 291
Flags: W
HStem: 0 21G<78 138> 330 80<183.376 239.624> 680 20G<78 138>
VStem: 78 60<0 700> 172 80<341.376 397.624>
LayerCount: 2
Fore
SplineSet
78 700 m 1
 138 700 l 1
 138 0 l 1
 78 0 l 1
 78 700 l 1
252 370 m 0
 252 359 248 349 240 341 c 0
 232 333 223 330 212 330 c 0
 201 330 191 333 183 341 c 0
 175 349 172 359 172 370 c 0
 172 381 175 390 183 398 c 0
 191 406 201 410 212 410 c 0
 223 410 232 406 240 398 c 0
 248 390 252 381 252 370 c 0
EndSplineSet
EndChar

StartChar: Lslash
Encoding: 321 321 253
GlifName: L_slash
Width: 518
Flags: W
HStem: 0 60<163 506> 680 20G<103 163>
VStem: 103 60<60 700>
LayerCount: 2
Fore
SplineSet
103 0 m 1
 103 700 l 1
 163 700 l 1
 163 60 l 1
 506 60 l 1
 506 0 l 1
 103 0 l 1
7 265 m 1
 7 331 l 1
 285 455 l 1
 285 389 l 1
 7 265 l 1
EndSplineSet
EndChar

StartChar: lslash
Encoding: 322 322 254
GlifName: lslash
Width: 285
Flags: W
HStem: 0 21G<112 172> 680 20G<112 172>
VStem: 112 60<0 700>
LayerCount: 2
Fore
SplineSet
23 272 m 1
 23 339 l 1
 263 454 l 1
 263 388 l 1
 23 272 l 1
112 0 m 1
 112 700 l 1
 172 700 l 1
 172 0 l 1
 112 0 l 1
EndSplineSet
EndChar

StartChar: Nacute
Encoding: 323 323 255
GlifName: N_acute
Width: 739
Flags: W
HStem: 0 21G<103 163 563.061 637> 680 20G<103 176.939 577 637>
VStem: 103 60<0 594> 577 60<106 700>
LayerCount: 2
Fore
SplineSet
331 744 m 1
 440 870 l 1
 529 870 l 1
 407 744 l 1
 331 744 l 1
103 700 m 1
 163 700 l 1
 577 106 l 1
 577 700 l 1
 637 700 l 1
 637 0 l 1
 577 0 l 1
 163 594 l 1
 163 0 l 1
 103 0 l 1
 103 700 l 1
EndSplineSet
EndChar

StartChar: nacute
Encoding: 324 324 256
GlifName: nacute
Width: 559
Flags: W
HStem: 0 21G<78 138 437 497> 452 60<213.231 363.151> 480 20G<78 138> 680 20G<324.698 431>
VStem: 78 60<0 369.649 432 500> 437 60<0 370.142>
LayerCount: 2
Fore
SplineSet
233 574 m 1x9c
 342 700 l 1
 431 700 l 1
 309 574 l 1
 233 574 l 1x9c
497 0 m 1
 437 0 l 1
 437 268 l 2
 437 325 423 369 395 402 c 0
 367 435 331 452 288 452 c 0xdc
 245 452 209 435 181 402 c 0
 153 369 138 325 138 268 c 2
 138 0 l 5
 78 0 l 5
 78 500 l 1
 138 500 l 1xbc
 138 432 l 1
 141 437 145 442 148 446 c 0
 183 490 230 512 288 512 c 0xdc
 348 512 397 489 437 445 c 0
 477 401 497 341 497 268 c 2
 497 0 l 1
EndSplineSet
EndChar

StartChar: uni0145
Encoding: 325 325 257
GlifName: uni0145
Width: 739
Flags: W
HStem: -200 21G<318 382.088> 0 21G<103 163 563.061 637> 680 20G<103 176.939 577 637>
VStem: 103 60<0 594> 577 60<106 700>
LayerCount: 2
Fore
SplineSet
318 -200 m 5
 358 -64 l 1
 429 -64 l 1
 374 -200 l 5
 318 -200 l 5
103 700 m 1
 163 700 l 1
 577 106 l 1
 577 700 l 1
 637 700 l 1
 637 0 l 1
 577 0 l 1
 163 594 l 1
 163 0 l 1
 103 0 l 1
 103 700 l 1
EndSplineSet
EndChar

StartChar: uni0146
Encoding: 326 326 258
GlifName: uni0146
Width: 559
Flags: W
HStem: -200 21G<209 273.088> 0 21G<78 138 437 497> 452 60<213.231 363.151> 480 20G<78 138>
VStem: 78 60<0 369.649 432 500> 437 60<0 370.142>
LayerCount: 2
Fore
SplineSet
209 -200 m 5xcc
 249 -64 l 1
 320 -64 l 1
 265 -200 l 5
 209 -200 l 5xcc
497 0 m 1
 437 0 l 1
 437 268 l 2
 437 325 423 369 395 402 c 0
 367 435 331 452 288 452 c 0xec
 245 452 209 435 181 402 c 0
 153 369 138 325 138 268 c 2
 138 0 l 5
 78 0 l 5
 78 500 l 1
 138 500 l 1xdc
 138 432 l 1
 141 437 145 442 148 446 c 0
 183 490 230 512 288 512 c 0xec
 348 512 397 489 437 445 c 0
 477 401 497 341 497 268 c 2
 497 0 l 1
EndSplineSet
EndChar

StartChar: Ncaron
Encoding: 327 327 259
GlifName: N_caron
Width: 739
Flags: W
HStem: 0 21G<103 163 563.061 637> 680 20G<103 176.939 577 637> 744 48<339 425>
VStem: 103 60<0 594> 577 60<106 700>
LayerCount: 2
Fore
SplineSet
221 870 m 5
 303 870 l 5
 382 792 l 5
 461 870 l 5
 543 870 l 5
 425 744 l 5
 339 744 l 5
 221 870 l 5
103 700 m 1
 163 700 l 1
 577 106 l 1
 577 700 l 1
 637 700 l 1
 637 0 l 1
 577 0 l 1
 163 594 l 1
 163 0 l 1
 103 0 l 1
 103 700 l 1
EndSplineSet
EndChar

StartChar: ncaron
Encoding: 328 328 260
GlifName: ncaron
Width: 559
Flags: W
HStem: 0 21G<78 138 437 497> 452 60<213.231 363.151> 480 20G<78 138> 574 48<236 322> 680 20G<118 220.256 337.744 440>
VStem: 78 60<0 369.649 432 500> 437 60<0 370.142>
LayerCount: 2
Fore
SplineSet
118 700 m 5x9e
 200 700 l 5
 279 622 l 5
 358 700 l 5
 440 700 l 5
 322 574 l 5
 236 574 l 5
 118 700 l 5x9e
497 0 m 1
 437 0 l 1
 437 268 l 2
 437 325 423 369 395 402 c 0
 367 435 331 452 288 452 c 0xde
 245 452 209 435 181 402 c 0
 153 369 138 325 138 268 c 2
 138 0 l 5
 78 0 l 5
 78 500 l 1
 138 500 l 1xbe
 138 432 l 1
 141 437 145 442 148 446 c 0
 183 490 230 512 288 512 c 0xde
 348 512 397 489 437 445 c 0
 477 401 497 341 497 268 c 2
 497 0 l 1
EndSplineSet
EndChar

StartChar: Eng
Encoding: 330 330 261
GlifName: E_ng
Width: 739
Flags: W
HStem: -212 60<425 521.25> -20 20G<577 637> 0 21G<103 163 563.061 637> 680 20G<103 176.939 577 637>
VStem: 103 60<0 594> 577 60<-96.25 0 106 700>
LayerCount: 2
Fore
SplineSet
103 700 m 1xbc
 163 700 l 1
 577 106 l 1
 577 700 l 1
 637 700 l 1
 637 0 l 1
 577 0 l 1xdc
 163 594 l 1
 163 0 l 1
 103 0 l 1
 103 700 l 1xbc
577 0 m 5
 637 0 l 5
 637 -25 l 6
 637 -76 619 -120 582 -157 c 4
 545 -194 501 -212 450 -212 c 6
 425 -212 l 5
 425 -152 l 5
 450 -152 l 6
 485 -152 515 -140 540 -115 c 4
 565 -90 577 -60 577 -25 c 6
 577 0 l 5
EndSplineSet
EndChar

StartChar: eng
Encoding: 331 331 262
GlifName: eng
Width: 559
Flags: W
HStem: -212 60<285 381.25> -20 20G<437 497> 0 21G<78 138 437 497> 452 60<213.231 363.151> 480 20G<78 138>
VStem: 78 60<0 369.649 432 500> 437 60<-96.25 370.142>
LayerCount: 2
Fore
SplineSet
497 0 m 1xd6
 437 0 l 1
 437 268 l 2
 437 325 423 369 395 402 c 0
 367 435 331 452 288 452 c 0xd6
 245 452 209 435 181 402 c 0
 153 369 138 325 138 268 c 2
 138 0 l 5
 78 0 l 5
 78 500 l 1
 138 500 l 1xae
 138 432 l 1
 141 437 145 442 148 446 c 0
 183 490 230 512 288 512 c 0
 348 512 397 489 437 445 c 0
 477 401 497 341 497 268 c 2
 497 0 l 1xd6
437 0 m 5
 497 0 l 5
 497 -25 l 6
 497 -76 479 -120 442 -157 c 4
 405 -194 361 -212 310 -212 c 6
 285 -212 l 5
 285 -152 l 5
 310 -152 l 6
 345 -152 375 -140 400 -115 c 4
 425 -90 437 -60 437 -25 c 6
 437 0 l 5
EndSplineSet
EndChar

StartChar: Omacron
Encoding: 332 332 263
GlifName: O_macron
Width: 781
Flags: W
HStem: -12 60<281.675 500.075> 652 60<281.675 500.075> 750 60<241 541>
VStem: 53 60<230.064 469.936> 669 60<230.064 469.936>
LayerCount: 2
Fore
SplineSet
391 652 m 0
 310 652 243 623 191 564 c 0
 139 505 113 434 113 350 c 0
 113 266 139 195 191 136 c 0
 243 77 310 48 391 48 c 0
 472 48 538 77 590 136 c 0
 642 195 669 266 669 350 c 0
 669 434 642 505 590 564 c 0
 538 623 472 652 391 652 c 0
391 712 m 0
 490 712 571 677 634 607 c 0
 697 537 729 452 729 350 c 0
 729 248 697 163 634 93 c 0
 571 23 490 -12 391 -12 c 0
 292 -12 211 23 148 93 c 0
 85 163 53 248 53 350 c 0
 53 452 85 537 148 607 c 0
 211 677 292 712 391 712 c 0
241 750 m 1
 241 810 l 1
 541 810 l 1
 541 750 l 1
 241 750 l 1
EndSplineSet
EndChar

StartChar: omacron
Encoding: 333 333 264
GlifName: omacron
Width: 584
Flags: W
HStem: -12 60<203.894 381.56> 452 60<203.894 381.56> 580 60<148 448>
VStem: 48 60<150.537 349.463> 477 60<150.537 349.463>
LayerCount: 2
Fore
SplineSet
148 580 m 1
 148 640 l 1
 448 640 l 1
 448 580 l 1
 148 580 l 1
293 452 m 0
 238 452 193 433 159 394 c 0
 125 355 108 307 108 250 c 0
 108 193 125 145 159 106 c 0
 193 67 238 48 293 48 c 0
 348 48 392 67 426 106 c 0
 460 145 477 193 477 250 c 0
 477 307 460 355 426 394 c 0
 392 433 348 452 293 452 c 0
293 512 m 0
 364 512 422 487 468 436 c 0
 514 385 537 323 537 250 c 0
 537 177 514 115 468 64 c 0
 422 13 364 -12 293 -12 c 0
 222 -12 163 13 117 64 c 0
 71 115 48 177 48 250 c 0
 48 323 71 385 117 436 c 0
 163 487 222 512 293 512 c 0
EndSplineSet
EndChar

StartChar: Obreve
Encoding: 334 334 265
GlifName: O_breve
Width: 781
Flags: W
HStem: -12 60<281.675 500.075> 652 60<281.675 500.075> 739 60<331.581 456.716>
VStem: 53 60<230.064 469.936> 247 60<822.671 870> 481 60<822.671 870> 669 60<230.064 469.936>
LayerCount: 2
Fore
SplineSet
391 652 m 0
 310 652 243 623 191 564 c 0
 139 505 113 434 113 350 c 0
 113 266 139 195 191 136 c 0
 243 77 310 48 391 48 c 0
 472 48 538 77 590 136 c 0
 642 195 669 266 669 350 c 0
 669 434 642 505 590 564 c 0
 538 623 472 652 391 652 c 0
391 712 m 0
 490 712 571 677 634 607 c 0
 697 537 729 452 729 350 c 0
 729 248 697 163 634 93 c 0
 571 23 490 -12 391 -12 c 0
 292 -12 211 23 148 93 c 0
 85 163 53 248 53 350 c 0
 53 452 85 537 148 607 c 0
 211 677 292 712 391 712 c 0
247 870 m 1
 307 870 l 1
 307 849 315 832 332 819 c 0
 349 806 369 799 394 799 c 0
 419 799 439 806 456 819 c 0
 473 832 481 849 481 870 c 1
 541 870 l 1
 541 834 527 803 499 777 c 0
 471 751 436 739 394 739 c 0
 352 739 318 751 290 777 c 0
 262 803 247 834 247 870 c 1
EndSplineSet
EndChar

StartChar: obreve
Encoding: 335 335 266
GlifName: obreve
Width: 584
Flags: W
HStem: -12 60<203.894 381.56> 452 60<203.894 381.56> 569 60<233.284 358.419> 680 20G<149 209 383 443>
VStem: 48 60<150.537 349.463> 149 60<652.671 700> 383 60<652.671 700> 477 60<150.537 349.463>
LayerCount: 2
Fore
SplineSet
293 452 m 0
 238 452 193 433 159 394 c 0
 125 355 108 307 108 250 c 0
 108 193 125 145 159 106 c 0
 193 67 238 48 293 48 c 0
 348 48 392 67 426 106 c 0
 460 145 477 193 477 250 c 0
 477 307 460 355 426 394 c 0
 392 433 348 452 293 452 c 0
293 512 m 0
 364 512 422 487 468 436 c 0
 514 385 537 323 537 250 c 0
 537 177 514 115 468 64 c 0
 422 13 364 -12 293 -12 c 0
 222 -12 163 13 117 64 c 0
 71 115 48 177 48 250 c 0
 48 323 71 385 117 436 c 0
 163 487 222 512 293 512 c 0
149 700 m 1
 209 700 l 1
 209 679 217 662 234 649 c 0
 251 636 271 629 296 629 c 0
 321 629 341 636 358 649 c 0
 375 662 383 679 383 700 c 1
 443 700 l 1
 443 664 428 633 400 607 c 0
 372 581 338 569 296 569 c 0
 254 569 219 581 191 607 c 0
 163 633 149 664 149 700 c 1
EndSplineSet
EndChar

StartChar: Ohungarumlaut
Encoding: 336 336 267
GlifName: O_hungarumlaut
Width: 781
Flags: W
HStem: -12 60<281.675 500.075> 652 60<281.675 500.075>
VStem: 53 60<230.064 469.936> 669 60<230.064 469.936>
LayerCount: 2
Fore
SplineSet
431 744 m 1
 524 870 l 1
 613 870 l 1
 511 744 l 1
 431 744 l 1
267 744 m 1
 360 870 l 1
 449 870 l 1
 347 744 l 1
 267 744 l 1
391 652 m 0
 310 652 243 623 191 564 c 0
 139 505 113 434 113 350 c 0
 113 266 139 195 191 136 c 0
 243 77 310 48 391 48 c 0
 472 48 538 77 590 136 c 0
 642 195 669 266 669 350 c 0
 669 434 642 505 590 564 c 0
 538 623 472 652 391 652 c 0
391 712 m 0
 490 712 571 677 634 607 c 0
 697 537 729 452 729 350 c 0
 729 248 697 163 634 93 c 0
 571 23 490 -12 391 -12 c 0
 292 -12 211 23 148 93 c 0
 85 163 53 248 53 350 c 0
 53 452 85 537 148 607 c 0
 211 677 292 712 391 712 c 0
EndSplineSet
EndChar

StartChar: ohungarumlaut
Encoding: 337 337 268
GlifName: ohungarumlaut
Width: 584
Flags: W
HStem: -12 60<203.894 381.56> 452 60<203.894 381.56> 680 20G<250.238 354 414.238 518>
VStem: 48 60<150.537 349.463> 477 60<150.537 349.463>
LayerCount: 2
Fore
SplineSet
336 574 m 1
 429 700 l 1
 518 700 l 1
 416 574 l 1
 336 574 l 1
172 574 m 1
 265 700 l 1
 354 700 l 1
 252 574 l 1
 172 574 l 1
293 452 m 0
 238 452 193 433 159 394 c 0
 125 355 108 307 108 250 c 0
 108 193 125 145 159 106 c 0
 193 67 238 48 293 48 c 0
 348 48 392 67 426 106 c 0
 460 145 477 193 477 250 c 0
 477 307 460 355 426 394 c 0
 392 433 348 452 293 452 c 0
293 512 m 0
 364 512 422 487 468 436 c 0
 514 385 537 323 537 250 c 0
 537 177 514 115 468 64 c 0
 422 13 364 -12 293 -12 c 0
 222 -12 163 13 117 64 c 0
 71 115 48 177 48 250 c 0
 48 323 71 385 117 436 c 0
 163 487 222 512 293 512 c 0
EndSplineSet
EndChar

StartChar: OE
Encoding: 338 338 269
GlifName: O_E_
Width: 1164
Flags: W
HStem: -12 60<281.675 500.075> 0 60<729 1072> 329 60<729 1008> 640 60<729 1072> 652 60<281.675 500.075>
VStem: 53 60<230.064 469.936> 669 60<60 640>
LayerCount: 2
Fore
SplineSet
391 652 m 0xae
 310 652 243 623 191 564 c 0
 139 505 113 434 113 350 c 0
 113 266 139 195 191 136 c 0
 243 77 310 48 391 48 c 0
 472 48 538 77 590 136 c 0
 642 195 669 266 669 350 c 0
 669 434 642 505 590 564 c 0
 538 623 472 652 391 652 c 0xae
391 712 m 0
 490 712 571 677 634 607 c 0
 697 537 729 452 729 350 c 0
 729 248 697 163 634 93 c 0
 571 23 490 -12 391 -12 c 0
 292 -12 211 23 148 93 c 0
 85 163 53 248 53 350 c 0
 53 452 85 537 148 607 c 0
 211 677 292 712 391 712 c 0
669 0 m 1x76
 669 700 l 1
 1072 700 l 1
 1072 640 l 1
 729 640 l 1
 729 389 l 1
 1008 389 l 1
 1008 329 l 1
 729 329 l 1
 729 60 l 1
 1072 60 l 1
 1072 0 l 1
 669 0 l 1x76
EndSplineSet
EndChar

StartChar: oe
Encoding: 339 339 270
GlifName: oe
Width: 983
Flags: W
HStem: -12 60<203.894 381.56 635.464 830.524> 220 60<539 885> 452 60<203.894 381.56 635.464 805.031>
VStem: 48 60<150.537 349.463> 477 60<177 323>
CounterMasks: 1 e0
LayerCount: 2
Fore
SplineSet
946 220 m 5
 539 220 l 5
 545 170 565 129 598 97 c 4
 631 65 673 48 722 48 c 4
 792 48 846 68 885 107 c 5
 926 63 l 5
 876 13 808 -12 722 -12 c 4
 651 -12 592 13 546 64 c 4
 500 115 477 177 477 250 c 4
 477 323 500 385 546 436 c 4
 592 487 651 512 722 512 c 4
 792 512 846 488 886 438 c 4
 926 388 946 325 946 250 c 6
 946 220 l 5
722 452 m 4
 673 452 631 435 598 403 c 4
 565 371 545 330 539 280 c 5
 885 280 l 5
 880 331 864 372 836 404 c 4
 808 436 770 452 722 452 c 4
293 452 m 0
 238 452 193 433 159 394 c 0
 125 355 108 307 108 250 c 0
 108 193 125 145 159 106 c 0
 193 67 238 48 293 48 c 0
 348 48 392 67 426 106 c 0
 460 145 477 193 477 250 c 0
 477 307 460 355 426 394 c 0
 392 433 348 452 293 452 c 0
293 512 m 0
 364 512 422 487 468 436 c 0
 514 385 537 323 537 250 c 0
 537 177 514 115 468 64 c 0
 422 13 364 -12 293 -12 c 0
 222 -12 163 13 117 64 c 0
 71 115 48 177 48 250 c 0
 48 323 71 385 117 436 c 0
 163 487 222 512 293 512 c 0
EndSplineSet
EndChar

StartChar: Racute
Encoding: 340 340 271
GlifName: R_acute
Width: 593
Flags: W
HStem: 0 21G<103 163 465.667 541> 300 60<163 335> 640 60<163 415.291>
VStem: 103 60<0 300 360 640> 481 60<424.898 575.198>
LayerCount: 2
Fore
SplineSet
247 744 m 1
 356 870 l 1
 445 870 l 1
 323 744 l 1
 247 744 l 1
163 640 m 1
 163 360 l 1
 341 360 l 2
 379 360 412 373 440 401 c 0
 468 429 481 462 481 500 c 0
 481 538 468 571 440 599 c 0
 412 627 379 640 341 640 c 2
 163 640 l 1
103 700 m 1
 341 700 l 2
 396 700 443 681 482 642 c 0
 521 603 541 555 541 500 c 0
 541 456 528 415 501 380 c 0
 474 345 439 321 397 309 c 1
 541 0 l 1
 475 0 l 1
 335 300 l 1
 163 300 l 1
 163 0 l 1
 103 0 l 1
 103 700 l 1
EndSplineSet
EndChar

StartChar: racute
Encoding: 341 341 272
GlifName: racute
Width: 327
Flags: W
HStem: 0 21G<78 138> 452 60<230.152 315> 480 20G<78 138> 680 20G<207.698 314>
VStem: 78 60<0 359.848 424 500>
LayerCount: 2
Fore
SplineSet
116 574 m 1x98
 225 700 l 1
 314 700 l 1
 192 574 l 1
 116 574 l 1x98
78 500 m 1xb8
 138 500 l 1xb8
 138 424 l 1
 143 430 148 437 154 443 c 0
 172 462 192 477 213 488 c 0
 243 504 277 512 315 512 c 1
 315 452 l 1xd8
 266 452 225 435 190 400 c 0
 155 365 138 324 138 275 c 2
 138 0 l 1
 78 0 l 1
 78 500 l 1xb8
EndSplineSet
EndChar

StartChar: uni0156
Encoding: 342 342 273
GlifName: uni0156
Width: 593
Flags: W
HStem: -200 21G<239 303.088> 0 21G<103 163 465.667 541> 300 60<163 335> 640 60<163 415.291>
VStem: 103 60<0 300 360 640> 481 60<424.898 575.198>
LayerCount: 2
Fore
SplineSet
239 -200 m 5
 279 -64 l 1
 350 -64 l 1
 295 -200 l 5
 239 -200 l 5
163 640 m 1
 163 360 l 1
 341 360 l 2
 379 360 412 373 440 401 c 0
 468 429 481 462 481 500 c 0
 481 538 468 571 440 599 c 0
 412 627 379 640 341 640 c 2
 163 640 l 1
103 700 m 1
 341 700 l 2
 396 700 443 681 482 642 c 0
 521 603 541 555 541 500 c 0
 541 456 528 415 501 380 c 0
 474 345 439 321 397 309 c 1
 541 0 l 1
 475 0 l 1
 335 300 l 1
 163 300 l 1
 163 0 l 1
 103 0 l 1
 103 700 l 1
EndSplineSet
EndChar

StartChar: uni0157
Encoding: 343 343 274
GlifName: uni0157
Width: 327
Flags: W
HStem: -200 21G<37 101.088> 0 21G<78 138> 452 60<230.152 315> 480 20G<78 138>
VStem: 78 60<0 359.848 424 500>
LayerCount: 2
Fore
SplineSet
37 -200 m 5xc8
 77 -64 l 1
 148 -64 l 1
 93 -200 l 5
 37 -200 l 5xc8
78 500 m 1xd8
 138 500 l 1xd8
 138 424 l 1
 143 430 148 437 154 443 c 0
 172 462 192 477 213 488 c 0
 243 504 277 512 315 512 c 1
 315 452 l 1xe8
 266 452 225 435 190 400 c 0
 155 365 138 324 138 275 c 2
 138 0 l 1
 78 0 l 1
 78 500 l 1xd8
EndSplineSet
EndChar

StartChar: Rcaron
Encoding: 344 344 275
GlifName: R_caron
Width: 593
Flags: W
HStem: 0 21G<103 163 465.667 541> 300 60<163 335> 640 60<163 415.291> 744 48<245 331>
VStem: 103 60<0 300 360 640> 481 60<424.898 575.198>
LayerCount: 2
Fore
SplineSet
127 870 m 5
 209 870 l 5
 288 792 l 5
 367 870 l 5
 449 870 l 5
 331 744 l 5
 245 744 l 5
 127 870 l 5
163 640 m 1
 163 360 l 1
 341 360 l 2
 379 360 412 373 440 401 c 0
 468 429 481 462 481 500 c 0
 481 538 468 571 440 599 c 0
 412 627 379 640 341 640 c 2
 163 640 l 1
103 700 m 1
 341 700 l 2
 396 700 443 681 482 642 c 0
 521 603 541 555 541 500 c 0
 541 456 528 415 501 380 c 0
 474 345 439 321 397 309 c 1
 541 0 l 1
 475 0 l 1
 335 300 l 1
 163 300 l 1
 163 0 l 1
 103 0 l 1
 103 700 l 1
EndSplineSet
EndChar

StartChar: rcaron
Encoding: 345 345 276
GlifName: rcaron
Width: 327
Flags: W
HStem: 0 21G<78 138> 452 60<230.152 315> 480 20G<78 138> 574 48<144 230> 680 20G<26 127.513 246.487 348>
VStem: 78 60<0 359.848 424 500>
LayerCount: 2
Fore
SplineSet
26 700 m 5x9c
 107 700 l 5
 187 622 l 5
 267 700 l 5
 348 700 l 5
 230 574 l 5
 144 574 l 5
 26 700 l 5x9c
78 500 m 1xbc
 138 500 l 1xbc
 138 424 l 1
 143 430 148 437 154 443 c 0
 172 462 192 477 213 488 c 0
 243 504 277 512 315 512 c 1
 315 452 l 1xdc
 266 452 225 435 190 400 c 0
 155 365 138 324 138 275 c 2
 138 0 l 1
 78 0 l 1
 78 500 l 1xbc
EndSplineSet
EndChar

StartChar: Sacute
Encoding: 346 346 277
GlifName: S_acute
Width: 544
Flags: W
HStem: -12 60<179.626 350.523> 652 60<181.257 353.042>
VStem: 65 60<466.24 599.552> 427 60<121.586 270.703>
LayerCount: 2
Fore
SplineSet
226 744 m 1
 335 870 l 1
 424 870 l 1
 302 744 l 1
 226 744 l 1
266 712 m 0
 313 712 353 701 386 680 c 0
 419 659 443 630 456 593 c 1
 399 572 l 1
 390 597 375 617 352 631 c 0
 329 645 301 652 266 652 c 0
 224 652 190 641 164 618 c 0
 138 595 125 566 125 531 c 0
 125 503 134 478 153 459 c 0
 176 435 214 419 266 410 c 0
 330 399 383 375 425 338 c 0
 467 301 487 255 487 199 c 0
 487 140 465 90 423 49 c 0
 381 8 328 -12 266 -12 c 0
 217 -12 174 1 137 26 c 0
 100 51 73 85 58 127 c 1
 115 147 l 1
 126 117 144 93 171 75 c 0
 198 57 230 48 266 48 c 0
 312 48 350 63 381 92 c 0
 412 121 427 157 427 199 c 0
 427 239 411 272 381 298 c 0
 351 324 313 342 266 350 c 0
 206 361 158 381 121 410 c 0
 84 439 65 480 65 531 c 0
 65 582 84 625 122 660 c 0
 160 695 207 712 266 712 c 0
EndSplineSet
EndChar

StartChar: sacute
Encoding: 347 347 278
GlifName: sacute
Width: 435
Flags: W
HStem: -12 60<137.19 286.377> 452 60<152.873 286.786> 680 20G<258.698 365>
VStem: 68 60<333.317 427.672> 328 60<87.3032 193.325>
LayerCount: 2
Fore
SplineSet
167 574 m 1
 276 700 l 1
 365 700 l 1
 243 574 l 1
 167 574 l 1
364 422 m 1
 307 402 l 1
 302 417 291 429 275 438 c 0
 259 447 240 452 218 452 c 0
 191 452 168 445 152 430 c 0
 136 415 128 397 128 376 c 0
 128 352 144 332 176 316 c 0
 191 309 209 303 230 297 c 0
 284 282 324 262 350 236 c 0
 375 211 388 180 388 144 c 0
 388 101 371 64 337 34 c 0
 303 4 262 -12 212 -12 c 0
 173 -12 140 -3 112 16 c 0
 84 35 63 60 48 91 c 1
 104 111 l 1
 124 69 159 48 212 48 c 0
 245 48 273 57 295 76 c 0
 317 95 328 117 328 144 c 0
 328 172 312 195 279 214 c 0
 262 224 240 232 214 239 c 0
 172 250 137 268 109 290 c 0
 81 312 68 341 68 376 c 0
 68 414 82 447 110 473 c 0
 138 499 174 512 218 512 c 0
 253 512 284 504 310 488 c 0
 336 472 354 449 364 422 c 1
EndSplineSet
EndChar

StartChar: Scircumflex
Encoding: 348 348 279
GlifName: S_circumflex
Width: 544
Flags: W
HStem: -12 60<179.626 350.523> 652 60<181.257 353.042> 824 46<224 306>
VStem: 65 60<466.24 599.552> 427 60<121.586 270.703>
LayerCount: 2
Fore
SplineSet
104 744 m 1
 224 870 l 1
 306 870 l 1
 426 744 l 1
 344 744 l 1
 265 824 l 5
 186 744 l 1
 104 744 l 1
266 712 m 0
 313 712 353 701 386 680 c 0
 419 659 443 630 456 593 c 1
 399 572 l 1
 390 597 375 617 352 631 c 0
 329 645 301 652 266 652 c 0
 224 652 190 641 164 618 c 0
 138 595 125 566 125 531 c 0
 125 503 134 478 153 459 c 0
 176 435 214 419 266 410 c 0
 330 399 383 375 425 338 c 0
 467 301 487 255 487 199 c 0
 487 140 465 90 423 49 c 0
 381 8 328 -12 266 -12 c 0
 217 -12 174 1 137 26 c 0
 100 51 73 85 58 127 c 1
 115 147 l 1
 126 117 144 93 171 75 c 0
 198 57 230 48 266 48 c 0
 312 48 350 63 381 92 c 0
 412 121 427 157 427 199 c 0
 427 239 411 272 381 298 c 0
 351 324 313 342 266 350 c 0
 206 361 158 381 121 410 c 0
 84 439 65 480 65 531 c 0
 65 582 84 625 122 660 c 0
 160 695 207 712 266 712 c 0
EndSplineSet
EndChar

StartChar: scircumflex
Encoding: 349 349 280
GlifName: scircumflex
Width: 435
Flags: W
HStem: -12 60<137.19 286.377> 452 60<152.873 286.786> 654 46<177 259>
VStem: 68 60<333.317 427.672> 328 60<87.3032 193.325>
LayerCount: 2
Fore
SplineSet
57 574 m 1
 177 700 l 1
 259 700 l 1
 379 574 l 1
 297 574 l 1
 218 654 l 5
 139 574 l 1
 57 574 l 1
364 422 m 1
 307 402 l 1
 302 417 291 429 275 438 c 0
 259 447 240 452 218 452 c 0
 191 452 168 445 152 430 c 0
 136 415 128 397 128 376 c 0
 128 352 144 332 176 316 c 0
 191 309 209 303 230 297 c 0
 284 282 324 262 350 236 c 0
 375 211 388 180 388 144 c 0
 388 101 371 64 337 34 c 0
 303 4 262 -12 212 -12 c 0
 173 -12 140 -3 112 16 c 0
 84 35 63 60 48 91 c 1
 104 111 l 1
 124 69 159 48 212 48 c 0
 245 48 273 57 295 76 c 0
 317 95 328 117 328 144 c 0
 328 172 312 195 279 214 c 0
 262 224 240 232 214 239 c 0
 172 250 137 268 109 290 c 0
 81 312 68 341 68 376 c 0
 68 414 82 447 110 473 c 0
 138 499 174 512 218 512 c 0
 253 512 284 504 310 488 c 0
 336 472 354 449 364 422 c 1
EndSplineSet
EndChar

StartChar: Scedilla
Encoding: 350 350 281
GlifName: S_cedilla
Width: 544
Flags: W
HStem: -210 57<191.193 307.351> -12 60<179.626 300.447> 652 60<181.257 353.042>
VStem: 65 60<466.24 599.552> 335 57<-125.633 -14.7037> 427 60<121.586 270.703>
LayerCount: 2
Fore
SplineSet
347 33 m 1
 377 5 392 -29 392 -70 c 0
 392 -109 378 -142 351 -169 c 0
 324 -196 291 -210 252 -210 c 0
 220 -210 192 -201 167 -181 c 1
 191 -152 204 -137 204 -137 c 5
 218 -147 234 -153 252 -153 c 0
 274 -153 295 -144 311 -128 c 0
 327 -112 335 -92 335 -70 c 0
 335 -54 330 -39 322 -26 c 0
 314 -13 304 -3 290 4 c 1
 347 33 l 1
266 712 m 0
 313 712 353 701 386 680 c 0
 419 659 443 630 456 593 c 1
 399 572 l 1
 390 597 375 617 352 631 c 0
 329 645 301 652 266 652 c 0
 224 652 190 641 164 618 c 0
 138 595 125 566 125 531 c 0
 125 503 134 478 153 459 c 0
 176 435 214 419 266 410 c 0
 330 399 383 375 425 338 c 0
 467 301 487 255 487 199 c 0
 487 140 465 90 423 49 c 0
 381 8 328 -12 266 -12 c 0
 217 -12 174 1 137 26 c 0
 100 51 73 85 58 127 c 1
 115 147 l 1
 126 117 144 93 171 75 c 0
 198 57 230 48 266 48 c 0
 312 48 350 63 381 92 c 0
 412 121 427 157 427 199 c 0
 427 239 411 272 381 298 c 0
 351 324 313 342 266 350 c 0
 206 361 158 381 121 410 c 0
 84 439 65 480 65 531 c 0
 65 582 84 625 122 660 c 0
 160 695 207 712 266 712 c 0
EndSplineSet
EndChar

StartChar: scedilla
Encoding: 351 351 282
GlifName: scedilla
Width: 435
Flags: W
HStem: -210 57<132.193 248.351> -12 60<137.19 241.407> 452 60<152.873 286.786>
VStem: 68 60<333.317 427.672> 276 57<-125.633 -4.09253> 328 60<87.3032 193.325>
LayerCount: 2
Fore
SplineSet
288 33 m 1xf8
 318 5 333 -29 333 -70 c 0
 333 -109 319 -142 292 -169 c 0
 265 -196 232 -210 193 -210 c 0
 161 -210 133 -201 108 -181 c 1
 132 -152 145 -137 145 -137 c 5
 159 -147 175 -153 193 -153 c 0
 215 -153 236 -144 252 -128 c 0
 268 -112 276 -92 276 -70 c 0
 276 -54 272 -39 264 -26 c 0
 256 -13 245 -3 231 4 c 1
 288 33 l 1xf8
364 422 m 1
 307 402 l 1
 302 417 291 429 275 438 c 0
 259 447 240 452 218 452 c 0
 191 452 168 445 152 430 c 0
 136 415 128 397 128 376 c 0
 128 352 144 332 176 316 c 0
 191 309 209 303 230 297 c 0
 284 282 324 262 350 236 c 0
 375 211 388 180 388 144 c 0
 388 101 371 64 337 34 c 0
 303 4 262 -12 212 -12 c 0
 173 -12 140 -3 112 16 c 0
 84 35 63 60 48 91 c 1
 104 111 l 1
 124 69 159 48 212 48 c 0
 245 48 273 57 295 76 c 0
 317 95 328 117 328 144 c 0xf4
 328 172 312 195 279 214 c 0
 262 224 240 232 214 239 c 0
 172 250 137 268 109 290 c 0
 81 312 68 341 68 376 c 0
 68 414 82 447 110 473 c 0
 138 499 174 512 218 512 c 0
 253 512 284 504 310 488 c 0
 336 472 354 449 364 422 c 1
EndSplineSet
EndChar

StartChar: Scaron
Encoding: 352 352 283
GlifName: S_caron
Width: 544
Flags: W
HStem: -12 60<179.626 350.523> 652 60<181.257 353.042>
VStem: 65 60<466.24 599.552> 427 60<121.586 270.703>
LayerCount: 2
Fore
SplineSet
110 870 m 5
 191 870 l 5
 271 792 l 5
 350 870 l 5
 432 870 l 5
 314 744 l 5
 228 744 l 5
 110 870 l 5
266 712 m 0
 313 712 353 701 386 680 c 0
 419 659 443 630 456 593 c 1
 399 572 l 1
 390 597 375 617 352 631 c 0
 329 645 301 652 266 652 c 0
 224 652 190 641 164 618 c 0
 138 595 125 566 125 531 c 0
 125 503 134 478 153 459 c 0
 176 435 214 419 266 410 c 0
 330 399 383 375 425 338 c 0
 467 301 487 255 487 199 c 0
 487 140 465 90 423 49 c 0
 381 8 328 -12 266 -12 c 0
 217 -12 174 1 137 26 c 0
 100 51 73 85 58 127 c 1
 115 147 l 1
 126 117 144 93 171 75 c 0
 198 57 230 48 266 48 c 0
 312 48 350 63 381 92 c 0
 412 121 427 157 427 199 c 0
 427 239 411 272 381 298 c 0
 351 324 313 342 266 350 c 0
 206 361 158 381 121 410 c 0
 84 439 65 480 65 531 c 0
 65 582 84 625 122 660 c 0
 160 695 207 712 266 712 c 0
EndSplineSet
EndChar

StartChar: scaron
Encoding: 353 353 284
GlifName: scaron
Width: 435
Flags: W
HStem: -12 60<137.19 286.377> 452 60<152.873 286.786> 574 48<175 261> 680 20G<57 159.256 276.744 379>
VStem: 68 60<333.317 427.672> 328 60<87.3032 193.325>
LayerCount: 2
Fore
SplineSet
57 700 m 5
 139 700 l 5
 218 622 l 5
 297 700 l 5
 379 700 l 5
 261 574 l 5
 175 574 l 5
 57 700 l 5
364 422 m 1
 307 402 l 1
 302 417 291 429 275 438 c 0
 259 447 240 452 218 452 c 0
 191 452 168 445 152 430 c 0
 136 415 128 397 128 376 c 0
 128 352 144 332 176 316 c 0
 191 309 209 303 230 297 c 0
 284 282 324 262 350 236 c 0
 375 211 388 180 388 144 c 0
 388 101 371 64 337 34 c 0
 303 4 262 -12 212 -12 c 0
 173 -12 140 -3 112 16 c 0
 84 35 63 60 48 91 c 1
 104 111 l 1
 124 69 159 48 212 48 c 0
 245 48 273 57 295 76 c 0
 317 95 328 117 328 144 c 0
 328 172 312 195 279 214 c 0
 262 224 240 232 214 239 c 0
 172 250 137 268 109 290 c 0
 81 312 68 341 68 376 c 0
 68 414 82 447 110 473 c 0
 138 499 174 512 218 512 c 0
 253 512 284 504 310 488 c 0
 336 472 354 449 364 422 c 1
EndSplineSet
EndChar

StartChar: uni0162
Encoding: 354 354 285
GlifName: uni0162
Width: 545
Flags: W
HStem: -202 57<147.193 264.13> 0 21G<243 303> 640 60<13 243 303 533>
VStem: 243 60<41 640> 291 57<-118.13 -7.07751>
LayerCount: 2
Fore
SplineSet
13 700 m 1xf0
 533 700 l 1
 533 640 l 1
 303 640 l 1
 303 0 l 1
 243 0 l 1
 243 640 l 1
 13 640 l 1
 13 700 l 1xf0
303 41 m 1
 333 13 348 -21 348 -62 c 0
 348 -101 334 -134 307 -161 c 0
 280 -188 247 -202 208 -202 c 0
 176 -202 148 -193 123 -173 c 1
 147 -144 160 -129 160 -129 c 5
 174 -139 190 -145 208 -145 c 0
 230 -145 251 -137 267 -121 c 0
 283 -105 291 -84 291 -62 c 0xe8
 291 -46 286 -32 278 -19 c 0
 270 -6 260 5 246 12 c 1
 303 41 l 1
EndSplineSet
EndChar

StartChar: uni0163
Encoding: 355 355 286
GlifName: uni0163
Width: 364
Flags: W
HStem: -200 57<175.193 292.13> 0 21G<283.5 331> 441 59<23 112 172 332>
VStem: 112 60<123.611 441 500 656> 319 57<-116.13 5.55478>
LayerCount: 2
Fore
SplineSet
112 656 m 1
 172 656 l 1
 172 500 l 1
 332 500 l 1
 332 441 l 1
 172 441 l 1
 172 199 l 2
 172 160 185 128 212 101 c 0
 239 74 272 60 311 60 c 2
 331 60 l 1
 331 0 l 1
 311 0 l 2
 256 0 209 20 170 59 c 0
 131 98 112 144 112 199 c 2
 112 441 l 1
 23 441 l 1
 23 500 l 1
 112 500 l 1
 112 656 l 1
331 43 m 1
 361 15 376 -19 376 -60 c 0
 376 -99 362 -132 335 -159 c 0
 308 -186 275 -200 236 -200 c 0
 204 -200 176 -191 151 -171 c 1
 175 -142 188 -127 188 -127 c 1
 202 -137 218 -143 236 -143 c 0
 258 -143 279 -135 295 -119 c 0
 311 -103 319 -82 319 -60 c 0
 319 -44 315 -30 307 -17 c 0
 299 -4 288 7 274 14 c 1
 331 43 l 1
EndSplineSet
EndChar

